<svg xmlns="http://www.w3.org/2000/svg" width="21.875" height="21.875" viewBox="0 0 21.875 21.875"><path d="M-2.634-9.375C.079-13.5.841-17.394-1.03-19.261c-1.3-1.3-3.581-1.4-6.419-.267a19.949,19.949,0,0,0-3.488,1.884,20.112,20.112,0,0,0-3.488-1.884c-2.834-1.13-5.11-1.038-6.419.267-1.871,1.867-1.109,5.761,1.6,9.886-2.711,4.125-3.473,8.019-1.6,9.886a3.932,3.932,0,0,0,2.882,1.051A9.742,9.742,0,0,0-14.426.778a20.061,20.061,0,0,0,3.488-1.884A20,20,0,0,0-7.449.778a9.728,9.728,0,0,0,3.537.784A3.937,3.937,0,0,0-1.03.511C.841-1.356.079-5.25-2.634-9.375Zm-9.683,7.291A17.912,17.912,0,0,1-15.008-.672c-2.182.872-3.9.9-4.73.079-1.12-1.118-.629-4.02,1.462-7.4A36.568,36.568,0,0,0-15.5-4.822,36.456,36.456,0,0,0-12.317-2.084Zm-5.959-8.671c-2.09-3.381-2.583-6.283-1.462-7.4a2.441,2.441,0,0,1,1.778-.6,8.237,8.237,0,0,1,2.951.674,17.839,17.839,0,0,1,2.692,1.412A35.682,35.682,0,0,0-18.275-10.755Zm7.338,7.764a34.524,34.524,0,0,1-3.456-2.935,34.054,34.054,0,0,1-2.95-3.448,33.923,33.923,0,0,1,2.95-3.448,34.348,34.348,0,0,1,3.456-2.935,34.477,34.477,0,0,1,3.455,2.935A34.1,34.1,0,0,1-4.532-9.374,34.246,34.246,0,0,1-7.483-5.926,34.424,34.424,0,0,1-10.937-2.991ZM-8.2-9.375a2.743,2.743,0,0,0-2.74-2.734,2.742,2.742,0,0,0-2.74,2.74,2.742,2.742,0,0,0,2.74,2.74A2.741,2.741,0,0,0-8.2-9.369Zm-1.567,0A1.172,1.172,0,0,1-10.936-8.2h0a1.175,1.175,0,0,1-1.174-1.174,1.175,1.175,0,0,1,1.174-1.174A1.175,1.175,0,0,1-9.764-9.377Zm.2-7.291a17.992,17.992,0,0,1,2.693-1.412c2.183-.871,3.906-.9,4.729-.079,1.122,1.118.629,4.02-1.462,7.4a36.535,36.535,0,0,0-2.776-3.172A36.285,36.285,0,0,0-9.56-16.666ZM-3.6-7.995c2.09,3.381,2.583,6.284,1.462,7.4C-2.962.227-4.684.2-6.866-.672A17.849,17.849,0,0,1-9.56-2.084,36.659,36.659,0,0,0-6.375-4.822,36.748,36.748,0,0,0-3.6-7.995Z" transform="translate(21.875 20.313)" fill="#0f5203"/></svg>