<svg xmlns="http://www.w3.org/2000/svg" width="22.75" height="26" viewBox="0 0 22.75 26"><path d="M-11.375-12.594A2.845,2.845,0,0,0-14.219-9.75a2.845,2.845,0,0,0,2.844,2.844A2.845,2.845,0,0,0-8.531-9.75,2.85,2.85,0,0,0-11.375-12.594Zm0,4.063A1.219,1.219,0,0,1-12.594-9.75a1.219,1.219,0,0,1,1.219-1.219A1.219,1.219,0,0,1-10.156-9.75,1.22,1.22,0,0,1-11.375-8.531ZM-1.791-9.75A8.99,8.99,0,0,0-.171-12.8a3.894,3.894,0,0,0-.308-3.056C-1.4-17.4-3.543-18.035-6.243-17.805c-1.181-3.025-3.022-4.945-5.132-4.945s-3.952,1.92-5.131,4.945c-2.7-.23-4.84.4-5.764,1.952a3.887,3.887,0,0,0-.309,3.056,8.99,8.99,0,0,0,1.62,3.047A8.99,8.99,0,0,0-22.579-6.7a3.894,3.894,0,0,0,.308,3.056c.8,1.346,2.519,2.007,4.724,2.007.324,0,.686-.058,1.028-.086,1.181,3.043,3.026,4.977,5.143,4.977s3.963-1.934,5.143-4.977c.343.029.7.086,1.028.086,2.2,0,3.92-.661,4.723-2.007A3.887,3.887,0,0,0-.171-6.7,8.99,8.99,0,0,0-1.791-9.75ZM-20.876-4.48a2.285,2.285,0,0,1-.132-1.8,7.053,7.053,0,0,1,1.133-2.2,24.534,24.534,0,0,0,2.2,1.953,26.47,26.47,0,0,0,.64,3.247C-18.951-3.183-20.357-3.613-20.876-4.48ZM-17.853-8.8q-.521-.473-.971-.951.45-.48.971-.951c-.011.316-.024.629-.024.951S-17.864-9.114-17.853-8.8Zm.178-4.173a24.36,24.36,0,0,0-2.2,1.953,7.053,7.053,0,0,1-1.133-2.2,2.277,2.277,0,0,1,.133-1.8c.468-.786,1.662-1.218,3.309-1.218.168,0,.351.014.53.023A26.419,26.419,0,0,0-17.675-12.971Zm10.753-1.295c-.425-.271-.857-.537-1.311-.789-.327-.182-.652-.351-.979-.515.506-.152,1.337-.352,1.857-.448C-7.211-15.541-7.017-14.756-6.922-14.266Zm-4.453-6.859c1.222,0,2.515,1.322,3.463,3.553a24.938,24.938,0,0,0-3.463,1.033,24.832,24.832,0,0,0-3.463-1.034C-13.89-19.8-12.6-21.125-11.375-21.125Zm-4.02,5.107c.519.095,1.35.3,1.855.448-.325.164-.652.333-.978.515-.454.252-.885.519-1.311.789C-15.733-14.756-15.539-15.541-15.395-16.018Zm-.433,10.785c.425.271.857.537,1.311.789.341.19.679.329,1.02.5-.517.157-1.367.365-1.9.463C-15.539-3.958-15.733-4.744-15.828-5.234Zm4.453,6.859c-1.227,0-2.525-1.332-3.474-3.579a24.61,24.61,0,0,0,3.474-1.031A24.61,24.61,0,0,0-7.9-1.954C-8.85.293-10.148,1.625-11.375,1.625Zm4.02-5.106c-.531-.1-1.38-.305-1.9-.463.341-.171.679-.31,1.019-.5.454-.252.887-.519,1.312-.789C-7.043-4.613-7.19-4.031-7.355-3.481Zm.747-3.93c-.641.467-1.723,1.161-2.415,1.548-.631.352-1.684.866-2.35,1.148-.667-.282-1.721-.8-2.353-1.148-.692-.387-1.774-1.081-2.415-1.548-.07-.747-.109-1.527-.109-2.339s.04-1.592.109-2.339c.641-.467,1.723-1.161,2.415-1.548.632-.353,1.686-.869,2.352-1.152.666.283,1.72.8,2.352,1.152.692.387,1.774,1.081,2.415,1.548.07.747.109,1.527.109,2.339S-6.538-8.158-6.608-7.411Zm1.425-8.827c1.646,0,2.839.432,3.309,1.217a2.285,2.285,0,0,1,.132,1.8,7.058,7.058,0,0,1-1.133,2.2,24.245,24.245,0,0,0-2.2-1.953,26.65,26.65,0,0,0-.638-3.244C-5.535-16.225-5.353-16.238-5.183-16.238ZM-4.9-10.7q.521.473.971.951-.45.48-.971.951c.011-.316.024-.629.024-.951S-4.886-10.386-4.9-10.7ZM-1.875-4.48c-.516.866-1.922,1.3-3.839,1.2a26.445,26.445,0,0,0,.64-3.245,24.36,24.36,0,0,0,2.2-1.953,7.055,7.055,0,0,1,1.133,2.2A2.277,2.277,0,0,1-1.875-4.48Z" transform="translate(22.75 22.75)" fill="#0f5203"/></svg>