<svg xmlns="http://www.w3.org/2000/svg" width="18.438" height="20" viewBox="0 0 18.438 20"><path d="M-14.176,2.5a5.03,5.03,0,0,0,3.568-1.475L-2.1-7.481a.469.469,0,0,0,0-.663l-.221-.221a.469.469,0,0,0-.663,0L-11.492.141a3.8,3.8,0,0,1-5.367,0,3.8,3.8,0,0,1,0-5.367L-6.622-15.464a2.693,2.693,0,0,1,3.8,0,2.693,2.693,0,0,1,0,3.8l-8.7,8.7a1.587,1.587,0,0,1-2.242,0,1.587,1.587,0,0,1,0-2.242L-7.1-11.857a.469.469,0,0,0,0-.663l-.221-.221a.469.469,0,0,0-.663,0L-14.64-6.089a2.839,2.839,0,0,0,0,4.01,2.838,2.838,0,0,0,4.01,0l8.7-8.7a3.945,3.945,0,0,0,0-5.573,3.945,3.945,0,0,0-5.573,0L-17.743-6.111a5.051,5.051,0,0,0,0,7.135A5.03,5.03,0,0,0-14.176,2.5Z" transform="translate(19.219 17.5)" fill="#caced4"/></svg>