<svg xmlns="http://www.w3.org/2000/svg" width="56" height="49" viewBox="0 0 56 49"><path d="M-5.25-35H-17.5v-7.875A2.624,2.624,0,0,0-20.125-45.5h-15.75A2.624,2.624,0,0,0-38.5-42.875V-35H-50.75A5.25,5.25,0,0,0-56-29.75v28A5.25,5.25,0,0,0-50.75,3.5h45.5A5.25,5.25,0,0,0,0-1.75v-28A5.25,5.25,0,0,0-5.25-35ZM-35-42h14v7H-35ZM-3.5-1.75A1.752,1.752,0,0,1-5.25,0h-45.5A1.752,1.752,0,0,1-52.5-1.75V-17.5H-35v4.375A2.626,2.626,0,0,0-32.375-10.5h8.75A2.626,2.626,0,0,0-21-13.125V-17.5H-3.5ZM-31.5-14v-3.5h7V-14Zm28-7h-49v-8.75a1.752,1.752,0,0,1,1.75-1.75h45.5A1.752,1.752,0,0,1-3.5-29.75Z" transform="translate(56 45.5)" fill="#677071"/></svg>