<svg xmlns="http://www.w3.org/2000/svg" width="13.125" height="15" viewBox="0 0 13.125 15"><path d="M-8.789-4.687a.353.353,0,0,0,.352-.352V-6.211a.353.353,0,0,0-.352-.352H-9.961a.353.353,0,0,0-.352.352v1.172a.353.353,0,0,0,.352.352Zm3.164-.352V-6.211a.353.353,0,0,0-.352-.352H-7.148a.353.353,0,0,0-.352.352v1.172a.353.353,0,0,0,.352.352h1.172A.353.353,0,0,0-5.625-5.039Zm2.813,0V-6.211a.353.353,0,0,0-.352-.352H-4.336a.353.353,0,0,0-.352.352v1.172a.353.353,0,0,0,.352.352h1.172A.353.353,0,0,0-2.812-5.039ZM-5.625-2.227V-3.4a.353.353,0,0,0-.352-.352H-7.148A.353.353,0,0,0-7.5-3.4v1.172a.353.353,0,0,0,.352.352h1.172A.353.353,0,0,0-5.625-2.227Zm-2.812,0V-3.4a.353.353,0,0,0-.352-.352H-9.961a.353.353,0,0,0-.352.352v1.172a.353.353,0,0,0,.352.352h1.172A.353.353,0,0,0-8.437-2.227Zm5.625,0V-3.4a.353.353,0,0,0-.352-.352H-4.336a.353.353,0,0,0-.352.352v1.172a.353.353,0,0,0,.352.352h1.172A.353.353,0,0,0-2.812-2.227ZM0-9.844A1.407,1.407,0,0,0-1.406-11.25H-2.812v-1.523a.353.353,0,0,0-.352-.352H-4.336a.353.353,0,0,0-.352.352v1.523h-3.75v-1.523a.353.353,0,0,0-.352-.352H-9.961a.353.353,0,0,0-.352.352v1.523h-1.406a1.407,1.407,0,0,0-1.406,1.406V.469a1.407,1.407,0,0,0,1.406,1.406H-1.406A1.407,1.407,0,0,0,0,.469ZM-1.406.293a.176.176,0,0,1-.176.176h-9.961a.176.176,0,0,1-.176-.176v-8.73H-1.406Z" transform="translate(13.125 13.125)" fill="#677071"/></svg>