<svg xmlns="http://www.w3.org/2000/svg" width="56" height="49" viewBox="0 0 56 49"><path d="M-1.75,0H-3.5V-4.375A2.625,2.625,0,0,0-6.125-7H-10.5V-26.25H-14V-7h-7V-26.25h-3.5V-7h-7V-26.25H-35V-7h-7V-26.25h-3.5V-7h-4.375A2.625,2.625,0,0,0-52.5-4.375V0h-1.75A1.75,1.75,0,0,0-56,1.75v.875a.875.875,0,0,0,.875.875H-.875A.875.875,0,0,0,0,2.625V1.75A1.75,1.75,0,0,0-1.75,0ZM-49-3.5H-7V0H-49ZM-.846-34.125-26.34-45.231A6.288,6.288,0,0,0-28-45.5a6.288,6.288,0,0,0-1.66.269L-55.154-34.125A1.411,1.411,0,0,0-56-32.9h0v.961a1.313,1.313,0,0,0,1.313,1.313H-52.5v1.313A1.313,1.313,0,0,0-51.187-28H-4.812A1.313,1.313,0,0,0-3.5-29.312v-1.312h2.188A1.313,1.313,0,0,0,0-31.937V-32.9A1.312,1.312,0,0,0-.846-34.125ZM-7-31.5H-49v-1.488l20.556-8.955A2.1,2.1,0,0,1-28-42a2.1,2.1,0,0,1,.444.057L-7-32.988Z" transform="translate(56 45.5)" fill="#677071"/></svg>