<svg xmlns="http://www.w3.org/2000/svg" xmlns:xlink="http://www.w3.org/1999/xlink" width="91.498" height="91.498" viewBox="0 0 91.498 91.498"><defs><filter id="a" x="0" y="0" width="91.498" height="91.498" filterUnits="userSpaceOnUse"><feOffset dy="3" input="SourceAlpha"/><feGaussianBlur stdDeviation="3" result="b"/><feFlood flood-color="#4e5a68" flood-opacity="0.051"/><feComposite operator="in" in2="b"/><feComposite in="SourceGraphic"/></filter></defs><g transform="translate(9 6)"><g transform="matrix(1, 0, 0, 1, -9, -6)" filter="url(#a)"><g transform="translate(9 6)" fill="#fff"><path d="M 36.74921035766602 72.99842071533203 C 31.85538101196289 72.99842071533203 27.10820007324219 72.04006958007813 22.63953971862793 70.14997863769531 C 18.32307052612305 68.32427215576172 14.44638061523438 65.71050262451172 11.11715030670166 62.38127136230469 C 7.787920475006104 59.05205154418945 5.174150466918945 55.17536163330078 3.348440408706665 50.85889053344727 C 1.458350300788879 46.39022064208984 0.5000003576278687 41.64303970336914 0.5000003576278687 36.74921035766602 C 0.5000003576278687 31.85538101196289 1.458350300788879 27.10820007324219 3.348440408706665 22.63953971862793 C 5.174150466918945 18.32307052612305 7.787920475006104 14.44638061523438 11.11715030670166 11.11715030670166 C 14.44638061523438 7.787920475006104 18.32307052612305 5.174150466918945 22.63953971862793 3.348440408706665 C 27.10820007324219 1.458350300788879 31.85538101196289 0.5000003576278687 36.74921035766602 0.5000003576278687 C 41.64303970336914 0.5000003576278687 46.39022064208984 1.458350300788879 50.85889053344727 3.348440408706665 C 55.17536163330078 5.174150466918945 59.05205154418945 7.787920475006104 62.38127136230469 11.11715030670166 C 65.71050262451172 14.44638061523438 68.32427215576172 18.32307052612305 70.14997863769531 22.63953971862793 C 72.04006958007813 27.10820007324219 72.99842071533203 31.85538101196289 72.99842071533203 36.74921035766602 C 72.99842071533203 41.64303970336914 72.04006958007813 46.39022064208984 70.14997863769531 50.85889053344727 C 68.32427215576172 55.17536163330078 65.71050262451172 59.05205154418945 62.38127136230469 62.38127136230469 C 59.05205154418945 65.71050262451172 55.17536163330078 68.32427215576172 50.85889053344727 70.14997863769531 C 46.39022064208984 72.04006958007813 41.64303970336914 72.99842071533203 36.74921035766602 72.99842071533203 Z" stroke="none"/><path d="M 36.74921035766602 1 C 31.92266082763672 1 27.24100875854492 1.945060729980469 22.83430862426758 3.808937072753906 C 18.57744216918945 5.609451293945313 14.75416946411133 8.187240600585938 11.47069931030273 11.47069931030273 C 8.187240600585938 14.75416946411133 5.609451293945313 18.57744216918945 3.808937072753906 22.83430862426758 C 1.945060729980469 27.24100875854492 1 31.92266082763672 1 36.74921035766602 C 1 41.57575988769531 1.945060729980469 46.25740814208984 3.808937072753906 50.66410827636719 C 5.609451293945313 54.92098236083984 8.187240600585938 58.7442512512207 11.47069931030273 62.0277214050293 C 14.75416946411133 65.31118774414063 18.57744216918945 67.88897705078125 22.83430862426758 69.68948364257813 C 27.24100875854492 71.55335998535156 31.92266082763672 72.49842071533203 36.74921035766602 72.49842071533203 C 41.57575988769531 72.49842071533203 46.25740814208984 71.55335998535156 50.66410827636719 69.68948364257813 C 54.92098236083984 67.88897705078125 58.7442512512207 65.31118774414063 62.0277214050293 62.0277214050293 C 65.31118774414063 58.7442512512207 67.88897705078125 54.92098236083984 69.68948364257813 50.66410827636719 C 71.55335998535156 46.25740814208984 72.49842071533203 41.57575988769531 72.49842071533203 36.74921035766602 C 72.49842071533203 31.92266082763672 71.55335998535156 27.24100875854492 69.68948364257813 22.83430862426758 C 67.88897705078125 18.57744216918945 65.31118774414063 14.75416946411133 62.0277214050293 11.47069931030273 C 58.7442512512207 8.187240600585938 54.92098236083984 5.609451293945313 50.66410827636719 3.808937072753906 C 46.25740814208984 1.945060729980469 41.57575988769531 1 36.74921035766602 1 M 36.74921035766602 0 C 57.04524230957031 0 73.49842071533203 16.45318984985352 73.49842071533203 36.74921035766602 C 73.49842071533203 57.04524230957031 57.04524230957031 73.49842071533203 36.74921035766602 73.49842071533203 C 16.45318984985352 73.49842071533203 0 57.04524230957031 0 36.74921035766602 C 0 16.45318984985352 16.45318984985352 0 36.74921035766602 0 Z" stroke="none" fill="#f2f3f7"/></g></g><g transform="translate(16.233 18.561)"><path d="M0,.636H.636V0H0Z" transform="translate(25.026 4.649)" fill="#708187"/><path d="M0,.636H.636V0H0Z" transform="translate(25.98 4.649)" fill="#708187"/><path d="M0,.636H.636V0H0Z" transform="translate(36.164 11.013)" fill="#708187"/><path d="M0,.636H.636V0H0Z" transform="translate(34.891 11.013)" fill="#708187"/><g transform="translate(0 0)"><g transform="translate(0 0)"><g transform="translate(6.716 12.142)"><g transform="translate(0 0)"><path d="M276.591,545.068H273.7v-.7h2.205c0-.8-.309-1.26-.924-1.4a2.9,2.9,0,0,0-.615-.056V542.3c.336,0,.548.006.633.012a1.437,1.437,0,0,1,.365.085,1.846,1.846,0,0,1,1.231,1.973v.7Z" transform="translate(-273.7 -541.061)" fill="#717272"/><path d="M395,506.828h-.8a.913.913,0,0,1-.754-.318,1.18,1.18,0,0,1-.244-.792V502.9h.677v2.544a.7.7,0,0,0,.194.586.945.945,0,0,0,.524.1h.4Z" transform="translate(-389.682 -502.821)" fill="#717272"/><path d="M450.392,560.694h-.871a1.29,1.29,0,0,1-1.1.53,1.275,1.275,0,0,1-1.089-.53h-.93V560h.657c-.006-.068-.006-.133-.006-.2a1.392,1.392,0,0,1,.377-1,1.326,1.326,0,0,1,.992-.395,1.259,1.259,0,0,1,.986.409,1.451,1.451,0,0,1,.377,1.016V560h.609Zm-1.31-.877a.939.939,0,0,0-.165-.554.626.626,0,0,0-.518-.25.576.576,0,0,0-.492.244.9.9,0,0,0-.159.536.725.725,0,0,0,.689.8.578.578,0,0,0,.486-.233A.871.871,0,0,0,449.082,559.816Z" transform="translate(-441.315 -556.687)" fill="#717272"/><path d="M574.668,500.877H574V500.2h.668Zm2.179,3.33h-2.812v-.695h.633a.419.419,0,0,0,.409-.206,1.049,1.049,0,0,0,.073-.462v-1.4h.677v1.363a1.166,1.166,0,0,1-.147.707h1.169v.695Zm-1.025-3.33h-.668V500.2h.668Z" transform="translate(-565.159 -500.2)" fill="#717272"/><path d="M668.874,543.9H665.5v-.695h.883a1.527,1.527,0,0,1-.132-.639,1.487,1.487,0,0,1,.389-1.042,1.3,1.3,0,0,1,1.01-.427,1.25,1.25,0,0,1,1.192.786l-.583.28a.624.624,0,0,0-.639-.468.594.594,0,0,0-.518.268,1.017,1.017,0,0,0-.165.592.944.944,0,0,0,.218.651h1.716v.695Z" transform="translate(-653.965 -539.896)" fill="#717272"/><path d="M801.977,506.633H801.3V502.7h.677Z" transform="translate(-785.766 -502.626)" fill="#717272"/></g><g transform="translate(3.395 6.121)"><path d="M389,710.528V709h.215l.489.774a3.94,3.94,0,0,1,.274.5l.006,0c-.018-.2-.024-.392-.024-.627V709h.186v1.528h-.2l-.486-.777a4.956,4.956,0,0,1-.286-.509l-.006,0c.012.194.015.377.015.63v.654H389Z" transform="translate(-389 -708.974)" fill="#4a4848"/><path d="M437.76,709.6a.993.993,0,0,1-.4.074.716.716,0,0,1-.757-.774.76.76,0,0,1,.8-.8.817.817,0,0,1,.362.068l-.047.162a.734.734,0,0,0-.309-.065.569.569,0,0,0-.6.63.556.556,0,0,0,.589.615.743.743,0,0,0,.321-.065Z" transform="translate(-435.199 -708.1)" fill="#4a4848"/><path d="M481.162,709.948l-.159.48h-.2l.518-1.528h.238l.521,1.528h-.212l-.162-.48Zm.5-.153-.15-.442c-.035-.1-.056-.191-.08-.28h-.006c-.023.091-.047.182-.077.277l-.15.442h.462Z" transform="translate(-478.097 -708.877)" fill="#4a4848"/><path d="M528.362,709.948l-.159.48H528l.518-1.528h.238l.521,1.528h-.212l-.162-.48Zm.5-.153-.15-.442c-.035-.1-.056-.191-.08-.28h-.006c-.023.091-.047.182-.077.277l-.15.442h.462Z" transform="translate(-523.908 -708.877)" fill="#4a4848"/><path d="M575.462,709.948l-.159.48h-.2l.518-1.528h.239l.521,1.528h-.212l-.162-.48Zm.5-.153-.15-.442c-.035-.1-.056-.191-.079-.28h-.006c-.023.091-.047.182-.077.277l-.15.442h.462Z" transform="translate(-569.621 -708.877)" fill="#4a4848"/></g></g><g transform="translate(0 0)"><rect width="2.715" height="2.715" transform="translate(11.485 28.028) rotate(-45)" fill="#135a2e"/><path d="M518.22,897.836l1.92-1.917L518.22,894h0l-1.92,1.92h0Z" transform="translate(-502.442 -870.264)" fill="#135a2e"/><path d="M598.82,817.236l1.92-1.919h0l-1.92-1.917h0l-1.92,1.917h0Z" transform="translate(-580.669 -792.037)" fill="#135a2e"/><rect width="2.715" height="2.715" transform="translate(18.604 20.908) rotate(-45)" fill="#135a2e"/><rect width="2.715" height="2.715" transform="translate(9.112 25.655) rotate(-45)" fill="#135a2e"/><path d="M278.336,815.317l-1.92-1.917h0l-1.917,1.917h0l1.917,1.919Z" transform="translate(-267.761 -792.037)" fill="#135a2e"/><rect width="2.715" height="2.715" transform="translate(4.363 20.908) rotate(-45)" fill="#135a2e"/><rect width="2.715" height="2.715" transform="translate(20.979 18.533) rotate(-45)" fill="#135a2e"/><rect width="2.715" height="2.715" transform="translate(23.353 16.16) rotate(-45)" fill="#135a2e"/><rect width="2.715" height="2.715" transform="translate(25.726 13.787) rotate(-45)" fill="#135a2e"/><path d="M1001.92,414.136l1.919-1.917h0l-1.919-1.92h0l-1.92,1.92h0Z" transform="translate(-971.901 -400.805)" fill="#135a2e"/><path d="M1082.519,333.536l1.92-1.92h0l-1.92-1.917h0l-1.919,1.917Z" transform="translate(-1050.128 -322.578)" fill="#135a2e"/><rect width="2.715" height="2.715" transform="translate(32.845 6.667) rotate(-45)" fill="#135a2e"/><rect width="2.715" height="2.715" transform="translate(35.22 4.292) rotate(-45)" fill="#135a2e"/><rect width="2.715" height="2.715" transform="translate(37.594 1.919) rotate(-45)" fill="#135a2e"/><rect width="2.444" height="2.444" transform="translate(9.303 30.401) rotate(-45)" fill="#0c8b44"/><rect width="2.444" height="2.444" transform="translate(11.676 32.774) rotate(-45)" fill="#0c8b44"/><rect width="2.444" height="2.444" transform="translate(6.931 28.027) rotate(-45)" fill="#0c8b44"/><rect width="2.444" height="2.444" transform="translate(4.556 25.656) rotate(-45)" fill="#0c8b44"/><path d="M123.156,821.625l-1.728-1.725-1.728,1.725h0l1.728,1.728Z" transform="translate(-117.518 -798.345)" fill="#0c8b44"/><rect width="2.444" height="2.444" transform="translate(14.049 30.402) rotate(-45)" fill="#0c8b44"/><rect width="2.444" height="2.444" transform="translate(16.423 28.031) rotate(-45)" fill="#0c8b44"/><rect width="2.444" height="2.444" transform="translate(18.796 25.656) rotate(-45)" fill="#0c8b44"/><path d="M766.425,823.353l1.728-1.728h0l-1.728-1.725-1.725,1.725h0Z" transform="translate(-743.528 -798.345)" fill="#0c8b44"/><rect width="2.444" height="2.444" transform="translate(23.546 20.908) rotate(-45)" fill="#0c8b44"/><rect width="2.444" height="2.444" transform="translate(25.917 18.534) rotate(-45)" fill="#0c8b44"/><rect width="2.444" height="2.444" transform="translate(28.291 16.161) rotate(-45)" fill="#0c8b44"/><rect width="2.444" height="2.444" transform="translate(30.665 13.79) rotate(-45)" fill="#0c8b44"/><path d="M1169.526,420.254l1.728-1.725h0l-1.728-1.728-1.725,1.728h0Z" transform="translate(-1134.761 -407.113)" fill="#0c8b44"/><rect width="2.444" height="2.444" transform="translate(35.413 9.041) rotate(-45)" fill="#0c8b44"/><rect width="2.444" height="2.444" transform="translate(37.787 6.668) rotate(-45)" fill="#0c8b44"/><rect width="2.17" height="2.17" transform="translate(7.121 32.774) rotate(-45)" fill="#2db24a"/><rect width="2.17" height="2.17" transform="translate(9.496 35.149) rotate(-45)" fill="#2db24a"/><rect width="2.17" height="2.17" transform="translate(11.869 37.523) rotate(-45)" fill="#2db24a"/><rect width="2.17" height="2.17" transform="translate(4.746 30.402) rotate(-45)" fill="#2db24a"/><path d="M129.368,989.137l-1.534-1.537h0l-1.534,1.537,1.534,1.534h0Z" transform="translate(-123.924 -961.108)" fill="#2db24a"/><path d="M48.671,908.537,47.137,907h0L45.6,908.537h0l1.537,1.534h0Z" transform="translate(-45.6 -882.881)" fill="#2db24a"/><path d="M530.837,1232.571l1.534-1.537-1.534-1.534h0l-1.537,1.534h0Z" transform="translate(-515.059 -1195.886)" fill="#2db24a"/><path d="M611.534,1151.971l1.534-1.537h0l-1.534-1.534h0L610,1150.434Z" transform="translate(-593.383 -1117.659)" fill="#2db24a"/><rect width="2.17" height="2.17" transform="translate(18.989 30.4) rotate(-45)" fill="#2db24a"/><rect width="2.17" height="2.17" transform="translate(21.363 28.027) rotate(-45)" fill="#2db24a"/><rect width="2.17" height="2.17" transform="translate(23.736 25.655) rotate(-45)" fill="#2db24a"/><path d="M933.937,829.471l1.534-1.537h0l-1.534-1.534h0l-1.537,1.534h0Z" transform="translate(-906.291 -804.654)" fill="#2db24a"/><path d="M1014.634,748.871l1.534-1.537-1.534-1.534h0l-1.534,1.534h0Z" transform="translate(-984.615 -726.427)" fill="#2db24a"/><rect width="2.17" height="2.17" transform="translate(30.855 18.536) rotate(-45)" fill="#2db24a"/><rect width="2.17" height="2.17" transform="translate(33.23 16.159) rotate(-45)" fill="#2db24a"/><rect width="2.17" height="2.17" transform="translate(35.604 13.787) rotate(-45)" fill="#2db24a"/><path d="M1337.037,426.371l1.534-1.534h0l-1.534-1.537-1.537,1.537h0Z" transform="translate(-1297.523 -413.422)" fill="#2db24a"/></g></g></g></g></g></svg>