<svg xmlns="http://www.w3.org/2000/svg" width="32.5" height="26" viewBox="0 0 32.5 26"><path d="M-1.625-16.25h-9.75A1.626,1.626,0,0,0-13-14.625V1.625A1.626,1.626,0,0,0-11.375,3.25h9.75A1.626,1.626,0,0,0,0,1.625v-16.25A1.626,1.626,0,0,0-1.625-16.25Zm0,17.875h-9.75v-16.25h9.75Zm-26-22.75h19.5v3.25H-6.5v-3.25A1.626,1.626,0,0,0-8.125-22.75h-19.5a1.626,1.626,0,0,0-1.625,1.625v13h-2.437a.813.813,0,0,0-.812.813V-6.5a3.262,3.262,0,0,0,3.245,3.25h14.63V-4.875h-14.63A1.627,1.627,0,0,1-30.875-6.5h16.25V-8.125h-13Z" transform="translate(32.5 22.75)" fill="#0f5203"/></svg>