<svg xmlns="http://www.w3.org/2000/svg" width="15" height="11.25" viewBox="0 0 15 11.25"><path d="M-.284-7.535C-.94-7.025-1.808-6.375-4.8-4.2c-.595.434-1.658,1.4-2.7,1.395S-9.583-3.753-10.2-4.2c-2.988-2.171-3.858-2.818-4.515-3.328A.175.175,0,0,0-15-7.395v5.988A1.407,1.407,0,0,0-13.594,0H-1.406A1.407,1.407,0,0,0,0-1.406V-7.4A.176.176,0,0,0-.284-7.535ZM-7.5-3.75c.68.012,1.658-.855,2.15-1.213C-1.462-7.784-1.166-8.03-.27-8.733A.7.7,0,0,0,0-9.287v-.557A1.407,1.407,0,0,0-1.406-11.25H-13.594A1.407,1.407,0,0,0-15-9.844v.557a.705.705,0,0,0,.27.554c.9.7,1.192.949,5.08,3.77C-9.158-4.605-8.18-3.738-7.5-3.75Z" transform="translate(15 11.25)" fill="#fff"/></svg>