<svg xmlns="http://www.w3.org/2000/svg" width="26" height="26" viewBox="0 0 26 26"><path d="M-8.125-10.156v-.812a.406.406,0,0,0-.406-.406h-8.937a.406.406,0,0,0-.406.406v.813a.406.406,0,0,0,.406.406h8.938A.406.406,0,0,0-8.125-10.156ZM-17.469-13h8.938a.406.406,0,0,0,.406-.406v-.812a.406.406,0,0,0-.406-.406h-8.937a.406.406,0,0,0-.406.406v.813A.406.406,0,0,0-17.469-13ZM-.884-14.4c-.1-.083-1.127-.909-2.366-1.906v-1.574A1.625,1.625,0,0,0-4.875-19.5h-2.36l-.518-.413c-1.122-.9-3.041-2.837-5.247-2.837s-4.095,1.915-5.248,2.837l-.518.413h-2.359a1.625,1.625,0,0,0-1.625,1.625V-16.3c-1.245,1-2.272,1.829-2.36,1.9A2.764,2.764,0,0,0-26-12.519V.813A2.437,2.437,0,0,0-23.562,3.25H-2.437A2.437,2.437,0,0,0,0,.813v-13.33A2.436,2.436,0,0,0-.884-14.4ZM-13-21.125A5.748,5.748,0,0,1-9.794-19.5H-16.2A5.766,5.766,0,0,1-13-21.125Zm-8.125,3.25h16.25v8.8c-1.642,1.32-3.316,2.663-4.4,3.521-.856.682-2.549,2.32-3.728,2.3-1.179.019-2.872-1.619-3.728-2.3-1.081-.858-2.754-2.2-4.4-3.521Zm-3.25,5.356a.81.81,0,0,1,.3-.628c.063-.052.59-.476,1.328-1.07v3.837l-1.625-1.309ZM-1.625.813a.814.814,0,0,1-.812.813H-23.562a.814.814,0,0,1-.812-.812V-9.6c2.171,1.749,5.043,4.058,6.636,5.323C-16.7-3.449-14.858-1.612-13-1.625c1.851.013,3.67-1.8,4.738-2.654C-6.667-5.545-3.8-7.854-1.625-9.6Zm0-12.5L-3.25-10.38v-3.836c.733.59,1.259,1.014,1.33,1.073a.809.809,0,0,1,.295.626Z" transform="translate(26 22.75)" fill="#0f5203"/></svg>