<svg xmlns="http://www.w3.org/2000/svg" width="15" height="13.125" viewBox="0 0 15 13.125"><path d="M-10.625-11.484a.7.7,0,0,0-.7-.7H-14.3a.7.7,0,0,0-.7.7v2.344a.7.7,0,0,0,.7.7h2.969a.7.7,0,0,0,.7-.7Zm5.313,7.031V-6.8a.7.7,0,0,0-.7-.7H-8.984a.7.7,0,0,0-.7.7v2.344a.7.7,0,0,0,.7.7h2.969A.7.7,0,0,0-5.312-4.453Zm.938-7.031v2.344a.7.7,0,0,0,.7.7H-.7a.7.7,0,0,0,.7-.7v-2.344a.7.7,0,0,0-.7-.7H-3.672A.7.7,0,0,0-4.375-11.484Zm-.937,2.344v-2.344a.7.7,0,0,0-.7-.7H-8.984a.7.7,0,0,0-.7.7v2.344a.7.7,0,0,0,.7.7h2.969A.7.7,0,0,0-5.312-9.141ZM-11.328-7.5H-14.3a.7.7,0,0,0-.7.7v2.344a.7.7,0,0,0,.7.7h2.969a.7.7,0,0,0,.7-.7V-6.8A.7.7,0,0,0-11.328-7.5ZM-15-2.109V.234a.7.7,0,0,0,.7.7h2.969a.7.7,0,0,0,.7-.7V-2.109a.7.7,0,0,0-.7-.7H-14.3A.7.7,0,0,0-15-2.109ZM-3.672-3.75H-.7a.7.7,0,0,0,.7-.7V-6.8a.7.7,0,0,0-.7-.7H-3.672a.7.7,0,0,0-.7.7v2.344A.7.7,0,0,0-3.672-3.75Zm0,4.688H-.7a.7.7,0,0,0,.7-.7V-2.109a.7.7,0,0,0-.7-.7H-3.672a.7.7,0,0,0-.7.7V.234A.7.7,0,0,0-3.672.938ZM-9.688-2.109V.234a.7.7,0,0,0,.7.7h2.969a.7.7,0,0,0,.7-.7V-2.109a.7.7,0,0,0-.7-.7H-8.984A.7.7,0,0,0-9.688-2.109Z" transform="translate(15 12.188)" fill="#677071"/></svg>