<svg xmlns="http://www.w3.org/2000/svg" width="15.34" height="15.337" viewBox="0 0 15.34 15.337"><path d="M7.6,35.561a3.932,3.932,0,1,0,3.932,3.932A3.926,3.926,0,0,0,7.6,35.561Zm0,6.489a2.556,2.556,0,1,1,2.556-2.556A2.561,2.561,0,0,1,7.6,42.05Zm5.01-6.649a.917.917,0,1,1-.917-.917A.915.915,0,0,1,12.607,35.4Zm2.6.931a4.539,4.539,0,0,0-1.239-3.214,4.569,4.569,0,0,0-3.214-1.239c-1.266-.072-5.062-.072-6.328,0a4.562,4.562,0,0,0-3.214,1.235A4.554,4.554,0,0,0-.021,36.328c-.072,1.266-.072,5.062,0,6.328a4.539,4.539,0,0,0,1.239,3.214,4.575,4.575,0,0,0,3.214,1.239c1.266.072,5.062.072,6.328,0a4.539,4.539,0,0,0,3.214-1.239,4.569,4.569,0,0,0,1.239-3.214C15.283,41.389,15.283,37.6,15.211,36.331Zm-1.636,7.683a2.588,2.588,0,0,1-1.458,1.458A16.9,16.9,0,0,1,7.6,45.78a17.034,17.034,0,0,1-4.521-.308,2.588,2.588,0,0,1-1.458-1.458,16.9,16.9,0,0,1-.308-4.521,17.034,17.034,0,0,1,.308-4.521,2.588,2.588,0,0,1,1.458-1.458A16.9,16.9,0,0,1,7.6,33.207a17.034,17.034,0,0,1,4.521.308,2.588,2.588,0,0,1,1.458,1.458,16.9,16.9,0,0,1,.308,4.521A16.893,16.893,0,0,1,13.576,44.014Z" transform="translate(0.075 -31.825)" fill="#fff"/></svg>