<svg xmlns="http://www.w3.org/2000/svg" xmlns:xlink="http://www.w3.org/1999/xlink" width="91.498" height="91.498" viewBox="0 0 91.498 91.498"><defs><filter id="a" x="0" y="0" width="91.498" height="91.498" filterUnits="userSpaceOnUse"><feOffset dy="3" input="SourceAlpha"/><feGaussianBlur stdDeviation="3" result="b"/><feFlood flood-color="#4e5a68" flood-opacity="0.051"/><feComposite operator="in" in2="b"/><feComposite in="SourceGraphic"/></filter></defs><g transform="translate(9 6)"><g transform="matrix(1, 0, 0, 1, -9, -6)" filter="url(#a)"><g transform="translate(9 6)" fill="#fff"><path d="M 36.74921035766602 72.99842071533203 C 31.85538101196289 72.99842071533203 27.10820007324219 72.04006958007813 22.63953971862793 70.14997863769531 C 18.32307052612305 68.32427215576172 14.44638061523438 65.71050262451172 11.11715030670166 62.38127136230469 C 7.787920475006104 59.05205154418945 5.174150466918945 55.17536163330078 3.348440408706665 50.85889053344727 C 1.458350300788879 46.39022064208984 0.5000003576278687 41.64303970336914 0.5000003576278687 36.74921035766602 C 0.5000003576278687 31.85538101196289 1.458350300788879 27.10820007324219 3.348440408706665 22.63953971862793 C 5.174150466918945 18.32307052612305 7.787920475006104 14.44638061523438 11.11715030670166 11.11715030670166 C 14.44638061523438 7.787920475006104 18.32307052612305 5.174150466918945 22.63953971862793 3.348440408706665 C 27.10820007324219 1.458350300788879 31.85538101196289 0.5000003576278687 36.74921035766602 0.5000003576278687 C 41.64303970336914 0.5000003576278687 46.39022064208984 1.458350300788879 50.85889053344727 3.348440408706665 C 55.17536163330078 5.174150466918945 59.05205154418945 7.787920475006104 62.38127136230469 11.11715030670166 C 65.71050262451172 14.44638061523438 68.32427215576172 18.32307052612305 70.14997863769531 22.63953971862793 C 72.04006958007813 27.10820007324219 72.99842071533203 31.85538101196289 72.99842071533203 36.74921035766602 C 72.99842071533203 41.64303970336914 72.04006958007813 46.39022064208984 70.14997863769531 50.85889053344727 C 68.32427215576172 55.17536163330078 65.71050262451172 59.05205154418945 62.38127136230469 62.38127136230469 C 59.05205154418945 65.71050262451172 55.17536163330078 68.32427215576172 50.85889053344727 70.14997863769531 C 46.39022064208984 72.04006958007813 41.64303970336914 72.99842071533203 36.74921035766602 72.99842071533203 Z" stroke="none"/><path d="M 36.74921035766602 1 C 31.92266082763672 1 27.24100875854492 1.945060729980469 22.83430862426758 3.808937072753906 C 18.57744216918945 5.609451293945313 14.75416946411133 8.187240600585938 11.47069931030273 11.47069931030273 C 8.187240600585938 14.75416946411133 5.609451293945313 18.57744216918945 3.808937072753906 22.83430862426758 C 1.945060729980469 27.24100875854492 1 31.92266082763672 1 36.74921035766602 C 1 41.57575988769531 1.945060729980469 46.25740814208984 3.808937072753906 50.66410827636719 C 5.609451293945313 54.92098236083984 8.187240600585938 58.7442512512207 11.47069931030273 62.0277214050293 C 14.75416946411133 65.31118774414063 18.57744216918945 67.88897705078125 22.83430862426758 69.68948364257813 C 27.24100875854492 71.55335998535156 31.92266082763672 72.49842071533203 36.74921035766602 72.49842071533203 C 41.57575988769531 72.49842071533203 46.25740814208984 71.55335998535156 50.66410827636719 69.68948364257813 C 54.92098236083984 67.88897705078125 58.7442512512207 65.31118774414063 62.0277214050293 62.0277214050293 C 65.31118774414063 58.7442512512207 67.88897705078125 54.92098236083984 69.68948364257813 50.66410827636719 C 71.55335998535156 46.25740814208984 72.49842071533203 41.57575988769531 72.49842071533203 36.74921035766602 C 72.49842071533203 31.92266082763672 71.55335998535156 27.24100875854492 69.68948364257813 22.83430862426758 C 67.88897705078125 18.57744216918945 65.31118774414063 14.75416946411133 62.0277214050293 11.47069931030273 C 58.7442512512207 8.187240600585938 54.92098236083984 5.609451293945313 50.66410827636719 3.808937072753906 C 46.25740814208984 1.945060729980469 41.57575988769531 1 36.74921035766602 1 M 36.74921035766602 0 C 57.04524230957031 0 73.49842071533203 16.45318984985352 73.49842071533203 36.74921035766602 C 73.49842071533203 57.04524230957031 57.04524230957031 73.49842071533203 36.74921035766602 73.49842071533203 C 16.45318984985352 73.49842071533203 0 57.04524230957031 0 36.74921035766602 C 0 16.45318984985352 16.45318984985352 0 36.74921035766602 0 Z" stroke="none" fill="#f2f3f7"/></g></g><g transform="translate(16.97 15.123)"><g transform="translate(0 0)"><g transform="translate(8.006)"><path d="M388.589,27l.025.033a.117.117,0,0,0,.07.087,1.216,1.216,0,0,0,.479.479h0a.675.675,0,0,0,.064.064,7.387,7.387,0,0,0,2.432,1.171c.183.055.19.115.114.263a10.644,10.644,0,0,0-.667,1.525,4.543,4.543,0,0,0-.311,2.1,1.343,1.343,0,0,0,.643,1.028,1.952,1.952,0,0,0,1.6.092,11.545,11.545,0,0,0,3.937-2.241h0l.052-.04h0l.051-.041-.022-.022h0c.041-.049.082-.1.124-.146-.042.047-.083.1-.124.146l.022.022.576-.476c.108-.034.16-.136.244-.2.034-.026.052-.087.105-.071.071.021.044.089.044.136,0,1.668,0,3.337.007,5.005,0,.165-.067.191-.209.164a1.519,1.519,0,0,1-.792-.426,5.221,5.221,0,0,1-1.17-1.735c-.029-.07-.044-.158-.13-.2a.2.2,0,0,0,.006.186,7,7,0,0,0,.868,1.871,1.777,1.777,0,0,0,1.333.931c.105.008.09.084.09.15,0,.289.017.58,0,.868-.016.219.06.265.266.264q6.651-.008,13.3,0c.354,0,.3.023.3-.311q0-11.942,0-23.884c0-.3,0-.3-.3-.3H406.9q-4.3,0-8.594-.005c-.2,0-.285.043-.268.264.021.288,0,.579.006.868,0,.083,0,.149-.11.163-.631.086-.87.518-.953,1.086a1.174,1.174,0,0,1-.344.751.558.558,0,0,0-.132.311c-.035.148-.071.3-.114.442a5.167,5.167,0,0,0-.266,1.154,1.615,1.615,0,0,0,.05.649c.1-.061.089-.154.107-.23a4.525,4.525,0,0,1,.364-1.408,9.271,9.271,0,0,0,.791-2.1.6.6,0,0,1,.287-.363c.27-.152.319-.124.319.182q0,2.708,0,5.417c0,.137,0,.274,0,.411,0,.1-.04.119-.123.05-.156-.13-.324-.247-.476-.381a14.254,14.254,0,0,0-3.266-2.192,4.429,4.429,0,0,0-1.988-.539,1.407,1.407,0,0,0-1.2.593,1.737,1.737,0,0,0-.3.967,6.5,6.5,0,0,0,.667,2.693c.017.04.029.112.133.072a6.427,6.427,0,0,1-.277-.9,6.134,6.134,0,0,1-.06-1.535,1.128,1.128,0,0,1,1.477-1.134,5.583,5.583,0,0,1,1.607.574,17,17,0,0,1,3.134,2.147c.222.188.447.372.707.588,0-.214,0-.38,0-.546,0-.049-.025-.116.041-.14s.095.038.132.071c.352.307.66.658.982.995l.018-.02h0l-.018.02c.12.154.241.308.359.463.078.1.125.177-.076.186-.383.016-.756-.069-1.136-.08-.306-.009-.319-.016-.3-.311.015-.22-.056-.279-.277-.278a27.162,27.162,0,0,0-4.02.34,10.888,10.888,0,0,0-2.036.488l-.046.009a.469.469,0,0,0-.241.078.024.024,0,0,0-.033.006,1.245,1.245,0,0,0-.512.178.026.026,0,0,0-.036.012,5.419,5.419,0,0,0-1.921,1.089h0a1.464,1.464,0,0,0-.452.549l-.013.006v.014A1.456,1.456,0,0,0,388.589,27Zm.122-1.1a.116.116,0,0,0,0,.02A.116.116,0,0,1,388.711,25.9Zm10.383,5.023a.248.248,0,0,0-.01-.031.248.248,0,0,1,.01.031Zm-.81-.42a.485.485,0,0,0-.084-.094.205.205,0,0,0-.068-.037.205.205,0,0,1,.068.037.485.485,0,0,1,.084.094Zm1.908,4.328a.278.278,0,0,0-.029-.014.272.272,0,0,1,.029.014Zm-.65-14.128a1.406,1.406,0,0,1-.039.653c-.043.211-.24.136-.377.169-.287.028-.341-.013-.3-.289a5.3,5.3,0,0,0-.075-1.267c-.024-.334.026-.376.372-.346.421.036.423.037.378.471A1.653,1.653,0,0,0,399.542,20.707Zm.3,5.049a1.453,1.453,0,0,1-.034.611.186.186,0,0,1-.184.17c-.121.007-.242.019-.369.029-.146.017-.27-.019-.237-.2a4.845,4.845,0,0,0-.062-1.339c-.034-.356.01-.4.361-.375.068,0,.137.007.205.009.3.007.331.037.3.348A2.076,2.076,0,0,0,399.84,25.756Zm.122,2.707.049.024Zm-1.892,1.012c.022-.514-.073-.43.432-.44.64-.013,1.278-.053,1.915-.116.082-.008.205.028.215-.109a.262.262,0,0,0-.163-.291,1.6,1.6,0,0,0-.533-.069h0a.072.072,0,0,0-.094,0l-.18-.054a.294.294,0,0,0-.275-.036l-.205-.135a7.2,7.2,0,0,1,.957-.112.465.465,0,0,0,.47-.51c-.029-.473.029-.943.037-1.414a14.433,14.433,0,0,0,.04-1.778c-.046-.428-.139-.493-.566-.442a3.855,3.855,0,0,1-1.267-.115.509.509,0,0,1,.259-.073c.332-.043.665-.082,1-.129a.354.354,0,0,0,.345-.458,5.251,5.251,0,0,1-.053-.728,1.792,1.792,0,0,0-.117-.625,5.349,5.349,0,0,1-.312-1.652c-.022-.319-.052-.637-.077-.956-.011-.146-.078-.206-.225-.165a.906.906,0,0,1-.157.028,1.9,1.9,0,0,1-1.157-.186c.122-.014.179-.022.235-.027.3-.029.607-.048.908-.089.219-.029.255-.121.185-.332a6.144,6.144,0,0,1-.285-1.079,9.84,9.84,0,0,0-.639-1.941.6.6,0,0,0-.194-.3c-.049-.126-.173-.131-.276-.17a.291.291,0,0,0-.181-.017c-.089-.171.036-.176.144-.173a1.456,1.456,0,0,1,.675.277c.376.507.476,1.148.813,1.675a.238.238,0,0,1,.024.111,5.9,5.9,0,0,0,.366,1.55c.039.116.081.188.21.194.106.005.221.006.251.146a.257.257,0,0,1-.125.294c-.136.077-.136.184-.111.311.048.246.086.495.14.74a13.779,13.779,0,0,0,.228,1.419,3.183,3.183,0,0,1,.136.691c.035.348.106.692.164,1.037.014.081.023.181.144.164s.182.017.21.124a.2.2,0,0,1-.1.253c-.1.049-.092.11-.064.2a4.074,4.074,0,0,1,.158,1.535c-.063.707-.056,1.415-.064,2.123,0,.084-.013.166.126.156.114-.008.14.1.152.193s.043.217-.058.244c-.212.058-.218.229-.265.385s-.014.236.179.209c.588-.084,1.173-.184,1.754-.312.134-.029.172-.081.089-.2-.043-.062-.08-.129-.12-.194-.432-.707-.883-1.4-1.38-2.067-.064-.085-.121-.154-.019-.269.2-.223.371-.463.55-.7a17.116,17.116,0,0,0,2.158-3.562,4.736,4.736,0,0,0,.495-1.979,1.065,1.065,0,0,0-.721-1.036,2.812,2.812,0,0,0-1.485-.108c-.364.053-.714.166-1.078.219a8.042,8.042,0,0,1,1.112-.464,3.462,3.462,0,0,1,.646-.144,2.135,2.135,0,0,1,1.17.089,1.632,1.632,0,0,1,.862,1.758,7.953,7.953,0,0,1-.977,2.831,19.589,19.589,0,0,1-2.157,3.215c-.1.116-.106.2-.007.312a6.9,6.9,0,0,1,.445.635c.312.442.577.912.856,1.375a.2.2,0,0,0,.275.1c.222-.077.456-.124.678-.2A6.718,6.718,0,0,0,406.7,27.03a1.176,1.176,0,0,0,.377-1.557,3.112,3.112,0,0,0-.947-1.093,11.428,11.428,0,0,0-1.378-.9.371.371,0,0,1,.265.038c.272.114.531.269.8.374a4.052,4.052,0,0,1,1.406.943,1.609,1.609,0,0,1,.466,1.631,2.231,2.231,0,0,1-.9,1.178,7.547,7.547,0,0,1-2.564,1.209c-.175.05-.232.1-.132.271a9.394,9.394,0,0,1,.823,2.025A3.447,3.447,0,0,1,405.059,33a1.258,1.258,0,0,1-1.048,1.014,2.7,2.7,0,0,1-1.389-.173,10.583,10.583,0,0,1-1.489-.685c-.022-.046-.061-.043-.1-.035l-.058-.051a2.093,2.093,0,0,1-.266-.178c-.138-.125-.183-.029-.214.082-.068.244-.128.49-.191.735l-.014.087-.456,1.187h0a3.02,3.02,0,0,0-.28.545h0a6.853,6.853,0,0,1-.77.918c-.03,0-.044.017-.05.044-.154.059-.306.125-.462.176-.116.037-.2.024-.2-.14-.008-.233-.006-.423.288-.487a.638.638,0,0,0,.362-.295.16.16,0,0,0-.208.067.16.16,0,0,1,.208-.067v0l.045-.051v0a.884.884,0,0,0,.253-.34h0a1.146,1.146,0,0,0,.236-.455.328.328,0,0,0-.075.033.325.325,0,0,1,.075-.033l.045-.075a.4.4,0,0,1,0-.06.4.4,0,0,0,0,.06.779.779,0,0,0,.18-.383,11.77,11.77,0,0,0,.6-1.885c.02-.075-.02-.112-.072-.15l-1.075-.8a.121.121,0,0,0-.1-.088l-.015-.009-.061-.049h0a.052.052,0,0,0-.053-.045,1.154,1.154,0,0,0-.318-.274.116.116,0,0,0-.1-.085.12.12,0,0,0-.086-.075l0-.013c.037-.149-.081-.325.082-.451a.136.136,0,0,0,.1.084h0l.073.064h0a2.429,2.429,0,0,0,.561.489.137.137,0,0,0,.1.083l.005.012h.013a1.016,1.016,0,0,0,.342.271.116.116,0,0,0,.1.085h0a1.09,1.09,0,0,0,.365.272c.053.043.105.087.159.128.071.055.1.033.119-.052a16.014,16.014,0,0,0,.275-1.849c.143-.533.143-.54-.4-.495q-.888.074-1.779.09C398.146,29.7,398.062,29.672,398.07,29.475Zm.3-12.651c-.054-.24.125-.264.272-.307.182-.052.165.1.189.207a5.217,5.217,0,0,0,.184.751.262.262,0,0,1-.039.317.588.588,0,0,1-.374.068c-.056,0-.073-.068-.1-.117a.717.717,0,0,1-.032-.332A2.063,2.063,0,0,0,398.372,16.823Zm.705,18.23a.279.279,0,0,1,.03-.057.241.241,0,0,1,.045-.049.241.241,0,0,0-.045.049A.283.283,0,0,0,399.077,35.053Zm-1.147-4.823h0l-.014,0,0,.014a.167.167,0,0,0-.1.108h0l-.056.05-.03.029-.065.062h0a.023.023,0,0,0-.028.023.115.115,0,0,0-.086.072.476.476,0,0,0-.23.183h0l-.046.045h0c-.569.444-1.131.9-1.733,1.3a9.506,9.506,0,0,1-2.5,1.26,3.631,3.631,0,0,1-.512.113c-.906.135-1.413-.344-1.362-1.261a6.093,6.093,0,0,1,.477-1.849,9.14,9.14,0,0,1,.571-1.218.157.157,0,0,1,.214-.094,23.634,23.634,0,0,0,5.248.65c.121,0,.291-.069.353.073A.4.4,0,0,1,397.931,30.23Zm.118-6.955c0,.442,0,.883,0,1.325,0,1.386,0,2.771.005,4.157,0,.2-.049.261-.252.257a24.439,24.439,0,0,1-4.917-.524c-.253-.058-.257-.071-.124-.284.144-.232.292-.463.423-.7.047-.087.094-.13.159-.138a1.481,1.481,0,0,0,1.761-2.314c-.018-.054,0-.1.052-.155.2-.231.383-.467.574-.7h0q.472-.493.943-.987a.278.278,0,0,1,.209-.117c.327,0,.655,0,.982-.018C398.023,23.063,398.05,23.139,398.048,23.275Zm-2.594,1.011h0Zm.089,0a.147.147,0,0,1-.048.007A.147.147,0,0,0,395.543,24.286Zm-4.625-.1c.431-.192.893-.29,1.335-.447l1.612-.36.124-.012c.625-.065,1.246-.171,1.874-.2.078,0,.164-.054.232.029l-.013.008,0,.014h0a5.751,5.751,0,0,0-.727.8.134.134,0,0,0-.087.1h0c-.142.157-.293.307-.424.473-.064.08-.12.129-.2.128a1.481,1.481,0,0,0-1.71,2.368.209.209,0,0,1-.04.112c-.214.332-.424.666-.623,1.007-.069.117-.141.1-.245.072a8.437,8.437,0,0,1-2.453-1.07h0a2,2,0,0,1-.791-1.089v-.084l-.02-.02a.229.229,0,0,1-.03-.039.229.229,0,0,0,.03.039l.02.02.089-.366A4.049,4.049,0,0,1,390.918,24.183Zm5.173-.931a.367.367,0,0,0,0-.039A.367.367,0,0,1,396.091,23.251Z" transform="translate(-388.234 -13.492)" fill="#0f5203"/><path d="M498.861,155.1a9.324,9.324,0,0,0,1.518.834,3.307,3.307,0,0,0,1.411.338.93.93,0,0,0,1.031-.831c.027-.134.032-.272.046-.4a8.467,8.467,0,0,0-1.071-3.31c-.048-.094-.118-.077-.194-.055a15.278,15.278,0,0,1-2.219.416c-.164.022-.215.077-.231.233a23.631,23.631,0,0,1-.388,2.549A.182.182,0,0,0,498.861,155.1Z" transform="translate(-486.317 -136.115)" fill="#0f5203"/><g transform="translate(9.833 1.299)"><path d="M475.731,41.206c.037-.149-.081-.326.082-.451h0a.137.137,0,0,0,.1.086h0l.074.066.008-.016-.009.015a2.428,2.428,0,0,0,.562.489h0a.136.136,0,0,0,.1.083l.005.012h.013a1.013,1.013,0,0,0,.342.271h0a.116.116,0,0,0,.1.086h0a1.09,1.09,0,0,0,.365.272c.053.043.105.086.159.128.071.055.1.033.119-.052a16,16,0,0,0,.275-1.848c.143-.532.143-.54-.4-.495q-.888.074-1.779.091c-.164,0-.247-.024-.239-.221.022-.514-.073-.43.432-.44.64-.013,1.277-.053,1.914-.116.082-.008.205.028.215-.109a.262.262,0,0,0-.163-.291,1.6,1.6,0,0,0-.533-.069.072.072,0,0,0-.094,0l-.18-.054h0a.294.294,0,0,0-.276-.037l-.205-.135a7.2,7.2,0,0,1,.957-.112.464.464,0,0,0,.47-.51c-.029-.473.029-.942.036-1.413a14.452,14.452,0,0,0,.04-1.777c-.046-.428-.139-.493-.566-.441a3.849,3.849,0,0,1-1.267-.115.509.509,0,0,1,.259-.073c.332-.043.664-.082,1-.129a.354.354,0,0,0,.345-.458,5.234,5.234,0,0,1-.053-.728,1.8,1.8,0,0,0-.117-.625,5.339,5.339,0,0,1-.312-1.652c-.021-.319-.052-.637-.077-.956-.011-.146-.078-.206-.225-.165a.906.906,0,0,1-.157.028,1.9,1.9,0,0,1-1.156-.186c.122-.014.179-.022.235-.027.3-.029.607-.048.908-.089.219-.029.255-.121.185-.332a6.156,6.156,0,0,1-.285-1.078,9.822,9.822,0,0,0-.639-1.94.6.6,0,0,0-.194-.3c-.049-.126-.173-.131-.276-.17a.291.291,0,0,0-.181-.017c-.089-.171.036-.176.144-.173a1.456,1.456,0,0,1,.675.277c.376.507.476,1.148.813,1.675a.236.236,0,0,1,.024.111,5.9,5.9,0,0,0,.366,1.549c.039.116.081.188.21.194.106,0,.221.006.25.146a.257.257,0,0,1-.125.294c-.136.077-.136.184-.111.311.048.246.086.495.14.74a13.811,13.811,0,0,0,.228,1.418,3.185,3.185,0,0,1,.136.691c.034.348.106.692.164,1.037.014.081.022.18.143.164s.182.017.21.124a.2.2,0,0,1-.1.253c-.1.049-.092.11-.064.2a4.075,4.075,0,0,1,.158,1.535c-.063.707-.056,1.414-.064,2.122,0,.084-.013.166.126.156.114-.008.14.1.152.193s.043.216-.059.244c-.212.058-.217.228-.265.385s-.014.236.179.209c.588-.084,1.173-.184,1.753-.312.134-.029.172-.081.089-.2-.043-.062-.08-.129-.12-.194-.432-.707-.882-1.4-1.379-2.066-.064-.085-.121-.154-.019-.269.2-.222.371-.462.549-.7a17.112,17.112,0,0,0,2.157-3.561,4.736,4.736,0,0,0,.494-1.978,1.064,1.064,0,0,0-.72-1.036,2.811,2.811,0,0,0-1.484-.108c-.363.053-.714.166-1.078.219a8.05,8.05,0,0,1,1.111-.464,3.461,3.461,0,0,1,.645-.144,2.135,2.135,0,0,1,1.17.089,1.632,1.632,0,0,1,.862,1.758,7.947,7.947,0,0,1-.977,2.83,19.587,19.587,0,0,1-2.156,3.214c-.1.116-.106.2-.007.312a6.845,6.845,0,0,1,.444.634c.312.442.577.912.856,1.374a.2.2,0,0,0,.275.1c.222-.077.456-.123.678-.2a6.713,6.713,0,0,0,2.119-1.087,1.175,1.175,0,0,0,.377-1.556,3.113,3.113,0,0,0-.947-1.093,11.417,11.417,0,0,0-1.377-.9.371.371,0,0,1,.265.038c.272.114.53.269.8.374a4.051,4.051,0,0,1,1.406.943,1.608,1.608,0,0,1,.466,1.63,2.23,2.23,0,0,1-.9,1.178,7.547,7.547,0,0,1-2.564,1.209c-.175.05-.232.1-.131.271a9.4,9.4,0,0,1,.823,2.025,3.445,3.445,0,0,1,.136,1.846,1.257,1.257,0,0,1-1.047,1.013,2.7,2.7,0,0,1-1.388-.173,10.558,10.558,0,0,1-1.488-.685c-.022-.046-.061-.042-.1-.035l-.057-.051a2.088,2.088,0,0,1-.265-.178c-.138-.125-.182-.029-.213.082-.068.244-.128.49-.191.735l-.014.087-.456,1.187h0a3.013,3.013,0,0,0-.28.545l.007.01-.005-.011a6.835,6.835,0,0,1-.772.92h0c-.032,0-.046.017-.052.046h0c-.154.059-.306.125-.462.176-.116.037-.2.024-.2-.14-.008-.233-.006-.423.288-.487a.637.637,0,0,0,.361-.295v0l.046-.051v0a.888.888,0,0,0,.253-.34h0a1.145,1.145,0,0,0,.236-.455l.045-.075a.779.779,0,0,0,.18-.383,11.754,11.754,0,0,0,.6-1.884c.02-.075-.02-.112-.072-.15l-1.075-.8a.121.121,0,0,0-.1-.088l-.015-.009-.066-.054.007,0a.052.052,0,0,0-.056-.045l0,0a1.158,1.158,0,0,0-.32-.276l-.011.009.012-.008a.116.116,0,0,0-.1-.085h0a.12.12,0,0,0-.086-.076Zm6.578,1.464a8.466,8.466,0,0,0-1.07-3.308c-.048-.094-.118-.077-.194-.055a15.3,15.3,0,0,1-2.218.416c-.163.022-.215.077-.231.233a23.617,23.617,0,0,1-.388,2.548.182.182,0,0,0,.1.22,9.307,9.307,0,0,0,1.517.834,3.305,3.305,0,0,0,1.41.338.93.93,0,0,0,1.03-.83C482.29,42.932,482.295,42.794,482.309,42.67Z" transform="translate(-475.598 -25.033)" fill="#fdfefd"/><path d="M483.674,114.575c-.146.017-.269-.019-.237-.2a4.842,4.842,0,0,0-.062-1.338c-.034-.356.01-.4.361-.375q.1.007.205.009c.3.007.331.037.3.348a2.074,2.074,0,0,0,.024.746,1.452,1.452,0,0,1-.034.611.187.187,0,0,1-.184.17C483.922,114.552,483.8,114.565,483.674,114.575Z" transform="translate(-482.492 -102.794)" fill="#fdfefd"/><path d="M482.024,69.917c-.287.028-.341-.013-.3-.289a5.306,5.306,0,0,0-.075-1.266c-.024-.334.026-.376.372-.346.42.036.423.037.378.471a1.654,1.654,0,0,0,.036.608,1.406,1.406,0,0,1-.039.653C482.357,69.959,482.16,69.884,482.024,69.917Z" transform="translate(-480.967 -63.172)" fill="#fdfefd"/><path d="M478.31,41.253a2.066,2.066,0,0,0-.106-.586c-.054-.24.125-.264.272-.307.182-.052.165.1.189.207a5.2,5.2,0,0,0,.184.751.261.261,0,0,1-.039.317.588.588,0,0,1-.373.068c-.056,0-.073-.068-.1-.117A.715.715,0,0,1,478.31,41.253Z" transform="translate(-477.902 -38.626)" fill="#fdfefd"/></g></g><g transform="translate(0 30.079)"><path d="M89.888,77.757a1.353,1.353,0,0,0,1.421-1.4c-.016-.849-.021-1.7,0-2.548.01-.322-.167-.263-.358-.281-.225-.022-.265.076-.264.273.006.807,0,1.615,0,2.422,0,.619-.232.847-.855.842-.3,0-.346.055-.238-.31A1.3,1.3,0,0,0,88.3,75.065c-.706.024-1.413,0-2.119,0-.468,0-.4-.079-.422.408-.009.23.071.278.287.274.774-.013,1.548-.009,2.321,0a.611.611,0,0,1,.642.681.637.637,0,0,1-.662.642c-.261,0-.521,0-.782,0-.967,0-1.934-.006-2.9.007-.228,0-.3-.071-.274-.29a3.306,3.306,0,0,0,0-.5A1.272,1.272,0,0,0,83.062,75c-.235,0-.471,0-.706,0a1.264,1.264,0,0,0-1.28,1.092,1.306,1.306,0,0,0,.891,1.53,3.128,3.128,0,0,0,1.593-.017c.054-.015.11-.073.162-.026s.023.125,0,.188a.6.6,0,0,1-.589.388c-.378,0-.757,0-1.135,0-.534,0-.435-.059-.456.454-.008.2.068.239.248.234.42-.013.841-.006,1.261-.005a1.165,1.165,0,0,0,1.255-.877.272.272,0,0,1,.309-.213c.9.007,1.8,0,2.7,0H88.6C89.031,77.751,89.462,77.723,89.888,77.757ZM83.19,77c-.158.012-.318,0-.478,0-.134,0-.268,0-.4,0a.658.658,0,0,1-.633-.625.645.645,0,0,1,.583-.7,8.653,8.653,0,0,1,.93,0,.642.642,0,0,1,.586.643A.673.673,0,0,1,83.19,77Z" transform="translate(-72.832 -73.484)" fill="#0f5203"/><path d="M210.29,83.583h-.807a.957.957,0,0,0-.345.06,1.34,1.34,0,0,0-.784,1.715c.055.182.029.237-.166.236-.849-.008-1.7,0-2.548-.008a.618.618,0,0,1-.664-.662.6.6,0,0,1,.659-.656c.437,0,.875,0,1.312,0,.453,0,.449,0,.447-.46,0-.15-.023-.228-.206-.223-.538.012-1.076,0-1.615,0a1.1,1.1,0,0,0-.6.166,1.351,1.351,0,0,0-.566,1.583c.065.226,0,.255-.2.251q-.769-.013-1.539,0c-.171,0-.215-.053-.211-.215.01-.336.015-.673,0-1.009a1.222,1.222,0,0,0-1.684-1.167A1.25,1.25,0,0,0,200,84.4c-.019.5-.007.992-.007,1.488,0,.392,0,.384.4.382.17,0,.219-.065.212-.225-.01-.218,0-.437,0-.656,0-.328-.008-.657.013-.984a.6.6,0,0,1,.955-.51.651.651,0,0,1,.246.579c0,.513.01,1.026,0,1.539,0,.2.043.259.25.257,1.387-.01,2.775-.005,4.163-.005v0c1.354,0,2.708-.017,4.062.007a1.346,1.346,0,0,0,1.332-1.355A1.293,1.293,0,0,0,210.29,83.583Zm.064,2.01q-.4.011-.806,0a.64.64,0,0,1-.636-.669.616.616,0,0,1,.633-.664c.142-.006.285,0,.428,0v0c.134,0,.269-.006.4,0a.639.639,0,0,1,.621.684A.667.667,0,0,1,210.354,85.592Z" transform="translate(-178.383 -81.975)" fill="#0f5203"/><path d="M15.409,88.665a1.261,1.261,0,0,0-1.236-1.32c-.244,0-.489.016-.731,0a1.325,1.325,0,0,0-1.3,1.79c.063.177.029.223-.149.222-.9,0-1.8,0-2.7,0a.652.652,0,0,1-.662-.678.625.625,0,0,1,.684-.644c.429,0,.858,0,1.286,0,.586,0,.449.03.477-.462.011-.189-.069-.224-.234-.221-.471.007-.942,0-1.412,0a1.689,1.689,0,0,0-.525.045,1.36,1.36,0,0,0-.9,1.469,1.3,1.3,0,0,0,1.274,1.167c.807.006,1.614,0,2.421,0v0c.832,0,1.665.011,2.5,0A1.27,1.27,0,0,0,15.409,88.665Zm-1.286.69c-.252,0-.5.006-.756,0a.663.663,0,0,1-.67-.67.631.631,0,0,1,.664-.667c.134,0,.269,0,.4,0,.118,0,.235,0,.353,0a.624.624,0,0,1,.665.662A.647.647,0,0,1,14.123,89.355Z" transform="translate(-8 -85.737)" fill="#0f5203"/><path d="M313.383,77.794a1.25,1.25,0,0,0,1.268-1.312,1.227,1.227,0,0,0-1.251-1.367c-.639-.007-1.278,0-1.917,0-.423,0-.41,0-.422.433-.006.214.079.251.266.248.664-.009,1.329-.005,1.993-.005a.628.628,0,0,1,.717.658.643.643,0,0,1-.716.665q-1.526,0-3.053,0a.669.669,0,0,1-.722-.7c-.008-.269,0-.538,0-.807,0-.547,0-1.093,0-1.64,0-.412.094-.378-.389-.389-.161,0-.222.043-.22.212.008.916,0,1.833.011,2.75a1.269,1.269,0,0,0,1.286,1.253c.521,0,1.043,0,1.564,0S312.853,77.8,313.383,77.794Z" transform="translate(-275.064 -73.528)" fill="#0f5203"/><path d="M340.681,144.13c0-.141-.044-.2-.189-.187a.978.978,0,0,1-.226,0c-.158-.02-.208.05-.2.2.008.226,0,.453,0,.68,0,.418-.24.7-.587.708a.64.64,0,0,1-.6-.719c0-.235,0-.47,0-.705,0-.116-.036-.158-.158-.165-.461-.028-.461-.033-.46.421,0,.126,0,.252,0,.378a1.216,1.216,0,0,0,1.674,1.307c.052-.014.118-.066.13.039.047.414-.07.863-.61.877a4.075,4.075,0,0,1-.554-.007c-.207-.023-.274.058-.249.252a.737.737,0,0,1,0,.176c-.017.156.052.207.2.2.21-.01.42,0,.63,0a1.19,1.19,0,0,0,1.191-1.208c.006-.361,0-.722,0-1.084h0C340.679,144.9,340.674,144.516,340.681,144.13Z" transform="translate(-301.088 -135.963)" fill="#0f5203"/><path d="M126.521,137.628a.651.651,0,0,1-.176,0c-.18-.025-.249.031-.245.231.013.621,0,1.243,0,1.864a.612.612,0,0,1-.595.693.619.619,0,0,1-.6-.693c0-.613-.012-1.227.005-1.839.006-.221-.065-.286-.267-.256a.694.694,0,0,1-.176,0c-.15-.017-.183.058-.182.193.006.68-.007,1.361.008,2.041a1.21,1.21,0,0,0,2.419-.02c.007-.327,0-.655,0-.983h0c0-.344-.007-.689,0-1.033C126.723,137.672,126.677,137.607,126.521,137.628Z" transform="translate(-111.198 -130.362)" fill="#0f5203"/><path d="M277.565,145.194a3,3,0,0,0-.387-.11,3.282,3.282,0,0,1-.765-.25c-.124-.065-.186-.162-.03-.264s.62-.1.717.053c.172.269.413.193.645.207.2.012.2-.069.136-.226a1.043,1.043,0,0,0-1.132-.618,1.326,1.326,0,0,0-.882.225.643.643,0,0,0,.029,1.08,2.71,2.71,0,0,0,.716.3c.171.043.341.09.507.148a.175.175,0,0,1,.136.164.208.208,0,0,1-.143.189.67.67,0,0,1-.865-.261c-.022-.036-.038-.071-.083-.086a2.213,2.213,0,0,0-.661.035,1,1,0,0,0,.251.563.431.431,0,0,0,.054.052,1.8,1.8,0,0,0,1.964-.022A.687.687,0,0,0,277.565,145.194Z" transform="translate(-245.398 -136.009)" fill="#0f5203"/><path d="M225.817,144.109a1.23,1.23,0,0,0-.765,1.194,1.245,1.245,0,0,0,.738,1.309,1.608,1.608,0,0,0,1.227-.043.919.919,0,0,0,.5-.542c.022-.058.06-.128-.036-.168a.834.834,0,0,0-.637.148.671.671,0,0,1-.7.161.581.581,0,0,1-.418-.46c-.036-.133-.005-.207.154-.2.252.008.5,0,.756,0s.521,0,.781,0c.109,0,.182-.022.173-.151a1.467,1.467,0,0,0-.306-.938A1.37,1.37,0,0,0,225.817,144.109Zm.92.972c-.151,0-.3,0-.453,0h0c-.109,0-.218.006-.327,0-.077-.006-.183.047-.223-.056-.032-.083.03-.162.075-.231a.6.6,0,0,1,.624-.227.456.456,0,0,1,.43.328C226.907,145.019,226.883,145.085,226.737,145.082Z" transform="translate(-200.622 -136.043)" fill="#0f5203"/><path d="M39.777,143.338a1.217,1.217,0,0,0-1.391.819,1.478,1.478,0,0,0,.6,1.8l.023.009a1.231,1.231,0,0,0,1.753-1.253A1.262,1.262,0,0,0,39.777,143.338Zm.14,2a.613.613,0,0,1-.979-.432c-.006-.117-.008-.235,0-.353a.615.615,0,0,1,.6-.622.59.59,0,0,1,.612.625c0,.05,0,.1,0,.121A.679.679,0,0,1,39.916,145.341Z" transform="translate(-34.891 -135.418)" fill="#0f5203"/><path d="M154.608,145.886h0c0-.2,0-.4,0-.6a1.232,1.232,0,0,0-1.2-1.241,1.256,1.256,0,0,0-1.25,1.227c-.01.42,0,.84,0,1.26,0,.151.041.221.2.2a.739.739,0,0,1,.176,0c.191.026.268-.038.259-.245-.017-.377-.008-.756-.006-1.133a.653.653,0,0,1,.6-.7.632.632,0,0,1,.6.7c0,.378.016.757,0,1.133-.01.21.067.27.257.246a.776.776,0,0,1,.176,0c.143.015.194-.045.188-.187C154.6,146.323,154.608,146.1,154.608,145.886Z" transform="translate(-135.935 -136.059)" fill="#0f5203"/><path d="M69.017,143.989a.808.808,0,0,1-.2,0c-.193-.031-.247.052-.242.238.013.4.009.807,0,1.211a.623.623,0,0,1-.6.625.6.6,0,0,1-.61-.629c0-.345,0-.69,0-1.035,0-.488.058-.4-.415-.411-.157-.005-.206.048-.2.2.01.235,0,.471,0,.706,0,.21-.005.421,0,.631a1.189,1.189,0,0,0,1.2,1.149,1.208,1.208,0,0,0,1.227-1.1c.022-.47.006-.942.012-1.413C69.2,144.026,69.146,143.977,69.017,143.989Z" transform="translate(-60.142 -136.008)" fill="#0f5203"/><path d="M195.68,143.957a.433.433,0,0,0-.527.356,5.264,5.264,0,0,1-.269.651,5.7,5.7,0,0,1-.4.885.427.427,0,0,1-.148-.251c-.161-.406-.317-.814-.484-1.217-.176-.426-.181-.414-.646-.422-.217,0-.244.059-.161.242.33.726.676,1.446.97,2.186.125.315.34.244.563.27.241.028.293-.135.365-.3.31-.7.619-1.4.934-2.092C196.012,143.959,196.017,143.986,195.68,143.957Z" transform="translate(-172.176 -135.982)" fill="#0f5203"/><path d="M12.691,138.023c0-.37,0-.359-.376-.371-.186-.006-.243.041-.24.235.01.638,0,1.277-.008,1.916a.588.588,0,0,1-.6.639.6.6,0,0,1-.586-.651c0-.2-.05-.282-.251-.255a1.094,1.094,0,0,1-.2,0c-.112-.006-.16.033-.171.156a1.23,1.23,0,0,0,1.146,1.361,1.19,1.19,0,0,0,1.283-1.216c0-.311,0-.622,0-.933Q12.691,138.464,12.691,138.023Z" transform="translate(-10.001 -130.389)" fill="#0f5203"/><path d="M96.529,137.757c0-.073-.042-.1-.11-.109a1.285,1.285,0,0,0-1.591,1.249c-.005.31,0,.621,0,.932q0,.2,0,.4c0,.134,0,.269,0,.4,0,.423,0,.416.419.411.163,0,.219-.053.213-.219-.012-.336.007-.672-.008-1.007-.009-.2.044-.295.264-.27a4.68,4.68,0,0,0,.5.005c.079,0,.14,0,.16-.11.076-.4,0-.5-.394-.5-.109,0-.219-.006-.327,0-.2.016-.226-.082-.175-.247a.608.608,0,0,1,.657-.435c.409-.011.408-.011.391-.429C96.529,137.807,96.529,137.782,96.529,137.757Z" transform="translate(-85.054 -130.372)" fill="#0f5203"/><path d="M318.881,140.459a.6.6,0,0,1-.684-.68c0-.076,0-.151,0-.227,0-.531,0-.53.527-.554.069,0,.149.027.182-.083.1-.351-.019-.531-.373-.531a.29.29,0,0,0-.05,0c-.228.041-.3-.05-.291-.282.009-.5.1-.421-.434-.437-.163,0-.2.057-.193.205.009.327,0,.655,0,.983h.007c0,.345-.008.689,0,1.033a1.228,1.228,0,0,0,1.449,1.176c.032-.006.084-.013.089-.03a1.064,1.064,0,0,0,.011-.52C319.1,140.395,318.965,140.46,318.881,140.459Z" transform="translate(-282.723 -130.402)" fill="#0f5203"/><path d="M179.518,77.532c-.008-.622,0-1.244,0-1.865s-.014-1.244.007-1.865c.008-.256-.125-.245-.295-.238s-.341-.057-.336.246c.019,1.193.006,2.386.009,3.58,0,.437-.066.375.385.394C179.49,77.792,179.52,77.706,179.518,77.532Z" transform="translate(-159.658 -73.512)" fill="#0f5203"/><path d="M256.949,143.991c0-.1-.046-.123-.138-.135a1.25,1.25,0,0,0-1.422,1.026,5.258,5.258,0,0,0-.007.8h-.017c0,.16,0,.319,0,.479.007.438-.068.381.412.393.168,0,.219-.052.214-.217-.011-.361.015-.724-.008-1.084a.681.681,0,0,1,.768-.793c.156.027.213-.045.2-.2A2.589,2.589,0,0,1,256.949,143.991Z" transform="translate(-227.525 -135.886)" fill="#0f5203"/><path d="M180.839,143.988a.443.443,0,0,1-.151,0c-.2-.037-.257.05-.254.247.011.672,0,1.345.006,2.018,0,.488-.08.409.43.418.151,0,.206-.036.2-.2-.012-.378,0-.756,0-1.135h0c0-.37-.009-.74,0-1.11C181.078,144.049,181.039,143.953,180.839,143.988Z" transform="translate(-161.027 -136.005)" fill="#0f5203"/><path d="M305.055,144.19c0-.145-.054-.2-.192-.182a.862.862,0,0,1-.2,0c-.175-.023-.234.044-.229.222.012.377,0,.754,0,1.132h0c0,.369.009.738,0,1.106-.006.179.056.245.228.225a1.034,1.034,0,0,1,.2-.006c.136.011.193-.034.191-.183Q305.046,145.347,305.055,144.19Z" transform="translate(-271.07 -136.026)" fill="#0f5203"/><path d="M57.771,73.916a.418.418,0,0,0,.384-.389.408.408,0,0,0-.366-.4.388.388,0,0,0-.367.4A.407.407,0,0,0,57.771,73.916Z" transform="translate(-51.86 -73.124)" fill="#0f5203"/><path d="M211.776,73.507a.409.409,0,0,0,.361.413.422.422,0,0,0,.366-.386.4.4,0,0,0-.364-.408A.387.387,0,0,0,211.776,73.507Z" transform="translate(-188.841 -73.126)" fill="#0f5203"/><path d="M202.753,73.531a.374.374,0,0,0,.337.4.385.385,0,0,0,.377-.386.373.373,0,0,0-.355-.4A.361.361,0,0,0,202.753,73.531Z" transform="translate(-180.834 -73.135)" fill="#0f5203"/><path d="M134.46,114.4a.364.364,0,1,0-.36.378A.379.379,0,0,0,134.46,114.4Z" transform="translate(-119.583 -109.398)" fill="#0f5203"/><path d="M337.448,114.4a.361.361,0,1,0-.719,0,.361.361,0,1,0,.719,0Z" transform="translate(-299.731 -109.405)" fill="#0f5203"/><path d="M180.321,134.3a.358.358,0,1,0,.025.715.358.358,0,0,0-.025-.715Z" transform="translate(-160.618 -127.419)" fill="#0f5203"/><path d="M304.3,134.287a.376.376,0,0,0-.357.354.368.368,0,0,0,.345.365.36.36,0,1,0,.011-.719Z" transform="translate(-270.635 -127.403)" fill="#0f5203"/></g></g></g></g></svg>