<svg xmlns="http://www.w3.org/2000/svg" width="29.25" height="26" viewBox="0 0 29.25 26"><path d="M-.034.428-8.988-22.343a.611.611,0,0,0-.576-.407,1.873,1.873,0,0,0-.583.168c-.328.115-.5.418-.318.933A15.73,15.73,0,0,1-14.3-20.307a.693.693,0,0,0-.325-.469v-.349A1.625,1.625,0,0,0-16.25-22.75h-4.875a1.582,1.582,0,0,0-.812.249,1.579,1.579,0,0,0-.812-.249h-4.875a1.625,1.625,0,0,0-1.625,1.625V1.625A1.625,1.625,0,0,0-27.625,3.25h4.875A1.582,1.582,0,0,0-21.937,3a1.577,1.577,0,0,0,.813.249h4.875a1.625,1.625,0,0,0,1.625-1.625V-16.713l7.69,19.556a.612.612,0,0,0,.576.407,1.881,1.881,0,0,0,.583-.168c.327-.114.5-.418.318-.933A15.731,15.731,0,0,1-1.623.807c.185.528.514.642.832.531L-.408,1.2A.611.611,0,0,0-.034.428Zm-22.716,1.2h-4.875v-3.25h4.875Zm0-4.875h-4.875v-13h4.875Zm0-14.625h-4.875v-3.25h4.875Zm6.5,19.5h-4.875v-3.25h4.875Zm0-4.875h-4.875v-13h4.875Zm0-14.625h-4.875v-3.25h4.875ZM-5.934.789l-7.889-19.737a18.446,18.446,0,0,0,3.834-1.342L-2.1-.553A18.43,18.43,0,0,0-5.934.789Z" transform="translate(29.25 22.75)" fill="#0f5203"/></svg>