<svg xmlns="http://www.w3.org/2000/svg" width="116.232" height="42.854" viewBox="0 0 116.232 42.854"><g transform="translate(-12937 6166.597)"><g transform="translate(13011.831 -6166.597)"><path d="M388.855,37.12l.043.058a.2.2,0,0,0,.122.152,2.127,2.127,0,0,0,.839.838v0a1.19,1.19,0,0,0,.112.112,12.917,12.917,0,0,0,4.253,2.047c.32.1.332.2.2.461a18.617,18.617,0,0,0-1.167,2.666,7.942,7.942,0,0,0-.544,3.678,2.348,2.348,0,0,0,1.124,1.8,3.413,3.413,0,0,0,2.791.161,20.189,20.189,0,0,0,6.885-3.919h0l.091-.069h0l.089-.072-.038-.039h0c.071-.086.143-.172.217-.254-.074.082-.145.168-.217.254l.038.039L404.7,44.2c.189-.059.28-.237.426-.349.06-.046.09-.152.184-.124.125.037.076.155.076.239,0,2.917,0,5.835.012,8.752,0,.289-.118.334-.365.287a2.655,2.655,0,0,1-1.384-.745,9.129,9.129,0,0,1-2.046-3.034c-.051-.123-.076-.276-.227-.347a.35.35,0,0,0,.011.326,12.235,12.235,0,0,0,1.518,3.271,3.107,3.107,0,0,0,2.33,1.627c.184.014.158.147.158.263,0,.506.031,1.015-.007,1.518-.029.383.1.463.465.462q11.63-.014,23.26-.008c.62,0,.522.039.522-.544q0-20.882,0-41.763c0-.531,0-.531-.52-.531l-8.233,0q-7.513,0-15.027-.009c-.355,0-.5.075-.469.461.038.5.006,1.012.01,1.518,0,.145-.007.26-.191.285-1.1.15-1.522.906-1.667,1.9a2.054,2.054,0,0,1-.6,1.314.977.977,0,0,0-.23.543c-.061.258-.124.517-.2.772a9.039,9.039,0,0,0-.466,2.018,2.824,2.824,0,0,0,.088,1.136c.183-.106.155-.27.187-.4a7.912,7.912,0,0,1,.637-2.461,16.217,16.217,0,0,0,1.384-3.673,1.045,1.045,0,0,1,.5-.634c.473-.265.559-.217.559.319q0,4.736,0,9.472c0,.24.005.48,0,.719,0,.179-.071.209-.216.088-.273-.228-.566-.431-.833-.666a24.928,24.928,0,0,0-5.711-3.832,7.744,7.744,0,0,0-3.477-.942,2.46,2.46,0,0,0-2.1,1.038,3.037,3.037,0,0,0-.523,1.692,11.371,11.371,0,0,0,1.166,4.71c.029.07.05.2.233.126a11.252,11.252,0,0,1-.485-1.577,10.735,10.735,0,0,1-.1-2.684,1.973,1.973,0,0,1,2.583-1.983,9.76,9.76,0,0,1,2.809,1,29.716,29.716,0,0,1,5.48,3.753c.388.329.782.65,1.236,1.027,0-.374,0-.664,0-.954,0-.085-.044-.2.072-.245s.165.067.23.124c.616.536,1.153,1.151,1.717,1.74l.032-.035h0l-.032.035c.209.27.421.538.628.81.136.178.219.31-.132.325-.669.029-1.322-.12-1.986-.141-.535-.016-.558-.028-.523-.544.026-.385-.1-.489-.483-.485a47.5,47.5,0,0,0-7.029.595,19.038,19.038,0,0,0-3.56.854l-.08.015a.82.82,0,0,0-.422.137.041.041,0,0,0-.058.011,2.177,2.177,0,0,0-.9.311.045.045,0,0,0-.064.02,9.475,9.475,0,0,0-3.359,1.9h0a2.561,2.561,0,0,0-.791.961l-.022.01V34A2.546,2.546,0,0,0,388.855,37.12Zm.214-1.922a.219.219,0,0,0,.005.035A.219.219,0,0,1,389.069,35.2Zm18.156,8.783a.427.427,0,0,0-.018-.054.427.427,0,0,1,.018.054Zm-1.417-.735a.844.844,0,0,0-.147-.164.358.358,0,0,0-.119-.065.358.358,0,0,1,.119.065.844.844,0,0,1,.147.164Zm3.337,7.569a.483.483,0,0,0-.051-.025.469.469,0,0,1,.051.025Zm-1.137-24.705a2.458,2.458,0,0,1-.068,1.142c-.076.369-.419.238-.659.3-.5.049-.6-.023-.517-.505a9.271,9.271,0,0,0-.131-2.215c-.042-.584.046-.658.65-.6.735.064.74.064.661.823A2.89,2.89,0,0,0,408.007,26.109Zm.521,8.828a2.542,2.542,0,0,1-.06,1.068.326.326,0,0,1-.323.3c-.212.011-.424.033-.645.051-.255.03-.471-.032-.414-.352a8.472,8.472,0,0,0-.108-2.341c-.06-.622.017-.7.631-.656.119.008.239.013.359.016.528.012.578.065.517.609A3.628,3.628,0,0,0,408.528,34.937Zm.214,4.733.085.042Zm-3.309,1.77c.038-.9-.128-.751.756-.769,1.119-.022,2.235-.093,3.348-.2.143-.014.359.048.375-.191a.458.458,0,0,0-.285-.509,2.794,2.794,0,0,0-.932-.12h0a.126.126,0,0,0-.164,0l-.315-.094a.514.514,0,0,0-.481-.063l-.359-.236a12.591,12.591,0,0,1,1.674-.2.812.812,0,0,0,.823-.892c-.051-.827.051-1.648.064-2.472a25.234,25.234,0,0,0,.07-3.109c-.08-.749-.243-.862-.991-.772a6.741,6.741,0,0,1-2.216-.2.89.89,0,0,1,.453-.128c.581-.075,1.162-.144,1.742-.226a.619.619,0,0,0,.6-.8,9.169,9.169,0,0,1-.094-1.273,3.134,3.134,0,0,0-.2-1.094,9.355,9.355,0,0,1-.545-2.889c-.038-.558-.091-1.114-.134-1.671-.02-.255-.137-.36-.394-.288a1.585,1.585,0,0,1-.275.05,3.315,3.315,0,0,1-2.022-.326c.214-.025.312-.038.411-.047.53-.05,1.061-.084,1.588-.155.383-.052.447-.212.323-.581a10.744,10.744,0,0,1-.5-1.886,17.206,17.206,0,0,0-1.118-3.394,1.044,1.044,0,0,0-.339-.528c-.085-.221-.3-.228-.482-.3a.509.509,0,0,0-.317-.03c-.156-.3.063-.309.252-.3a2.546,2.546,0,0,1,1.18.484c.658.887.833,2.008,1.422,2.929a.416.416,0,0,1,.042.194,10.312,10.312,0,0,0,.64,2.71c.068.2.141.328.367.339.185.009.386.01.438.255a.449.449,0,0,1-.219.515c-.237.135-.238.321-.194.544.085.431.151.865.244,1.294a24.123,24.123,0,0,0,.4,2.481,5.569,5.569,0,0,1,.238,1.209c.06.608.185,1.21.286,1.814.024.142.04.316.251.287.189-.026.318.03.367.216a.352.352,0,0,1-.176.443c-.174.086-.162.191-.112.355A7.126,7.126,0,0,1,411.2,34.5c-.11,1.237-.1,2.474-.112,3.712,0,.146-.023.29.221.273.2-.014.244.177.266.337s.076.379-.1.427c-.37.1-.38.4-.463.674-.089.294-.025.413.314.365,1.029-.147,2.052-.321,3.067-.545.234-.052.3-.142.156-.35-.076-.109-.14-.226-.209-.34-.756-1.237-1.543-2.453-2.412-3.614-.112-.149-.211-.269-.034-.471.342-.389.649-.809.961-1.223a29.932,29.932,0,0,0,3.774-6.229,8.281,8.281,0,0,0,.865-3.46,1.861,1.861,0,0,0-1.26-1.812,4.917,4.917,0,0,0-2.6-.189c-.636.093-1.249.291-1.885.384a14.066,14.066,0,0,1,1.944-.812,6.051,6.051,0,0,1,1.129-.252,3.733,3.733,0,0,1,2.046.156,2.854,2.854,0,0,1,1.508,3.074,13.908,13.908,0,0,1-1.709,4.951,34.254,34.254,0,0,1-3.772,5.621c-.167.2-.186.352-.013.546a12.057,12.057,0,0,1,.778,1.11c.546.772,1.01,1.6,1.5,2.4a.342.342,0,0,0,.482.179c.389-.135.8-.216,1.186-.352a11.748,11.748,0,0,0,3.706-1.9,2.056,2.056,0,0,0,.659-2.722,5.443,5.443,0,0,0-1.657-1.912,20,20,0,0,0-2.409-1.576.648.648,0,0,1,.463.067c.476.2.928.47,1.4.654a7.087,7.087,0,0,1,2.459,1.649,2.813,2.813,0,0,1,.815,2.852,3.9,3.9,0,0,1-1.566,2.06,13.2,13.2,0,0,1-4.484,2.115c-.306.087-.406.168-.23.474a16.421,16.421,0,0,1,1.439,3.542,6.028,6.028,0,0,1,.238,3.229,2.2,2.2,0,0,1-1.832,1.773,4.72,4.72,0,0,1-2.429-.3,18.5,18.5,0,0,1-2.6-1.2c-.038-.081-.106-.074-.176-.062l-.1-.09a3.659,3.659,0,0,1-.464-.311c-.241-.218-.319-.05-.374.144-.119.426-.223.856-.333,1.285l-.025.152-.8,2.076h0a5.285,5.285,0,0,0-.489.953h0a12,12,0,0,1-1.347,1.606c-.053,0-.078.03-.088.078-.269.1-.535.218-.809.307-.2.065-.344.042-.354-.246-.014-.407-.011-.74.5-.851a1.116,1.116,0,0,0,.632-.515.28.28,0,0,0-.363.116.28.28,0,0,1,.363-.116l0-.005.079-.088v.006a1.545,1.545,0,0,0,.442-.595l0,0a2,2,0,0,0,.413-.8.577.577,0,0,0-.131.058.573.573,0,0,1,.131-.058l.078-.13a.712.712,0,0,1-.006-.105.712.712,0,0,0,.006.105,1.362,1.362,0,0,0,.315-.67,20.575,20.575,0,0,0,1.053-3.3c.035-.131-.035-.2-.125-.262q-.941-.7-1.881-1.4a.211.211,0,0,0-.173-.154l-.027-.016-.106-.086h0a.091.091,0,0,0-.093-.079,2.017,2.017,0,0,0-.556-.479.2.2,0,0,0-.171-.148.209.209,0,0,0-.15-.131l-.008-.022c.065-.26-.142-.569.143-.789a.239.239,0,0,0,.168.147l0,0,.128.112h0a4.251,4.251,0,0,0,.981.854.239.239,0,0,0,.169.145l.009.021.023,0a1.776,1.776,0,0,0,.6.474.2.2,0,0,0,.17.149h0a1.906,1.906,0,0,0,.638.476c.093.075.184.151.278.225.124.1.179.057.208-.091a28,28,0,0,0,.481-3.233c.251-.931.25-.944-.7-.865q-1.554.13-3.111.158C405.565,41.831,405.419,41.784,405.434,41.44Zm.527-22.122c-.095-.42.218-.462.476-.537.319-.092.289.18.331.362a9.1,9.1,0,0,0,.321,1.314.457.457,0,0,1-.068.554,1.029,1.029,0,0,1-.653.119c-.1,0-.128-.119-.167-.205a1.255,1.255,0,0,1-.056-.58A3.609,3.609,0,0,0,405.961,19.317Zm1.233,31.877a.488.488,0,0,1,.052-.1.424.424,0,0,1,.078-.086.424.424,0,0,0-.078.086A.5.5,0,0,0,407.194,51.194Zm-2-8.434h0l-.024.008,0,.025a.292.292,0,0,0-.166.189h0l-.1.087-.052.051-.114.109h0a.04.04,0,0,0-.05.04.2.2,0,0,0-.15.126.833.833,0,0,0-.4.32h0l-.081.078v0c-1,.777-1.977,1.571-3.031,2.27a16.625,16.625,0,0,1-4.365,2.2,6.344,6.344,0,0,1-.9.2c-1.584.236-2.472-.6-2.381-2.206a10.652,10.652,0,0,1,.833-3.233,15.966,15.966,0,0,1,1-2.13.275.275,0,0,1,.373-.164,41.326,41.326,0,0,0,9.176,1.137c.211.006.508-.12.617.128A.694.694,0,0,1,405.19,42.76ZM405.4,30.6c-.009.772,0,1.544,0,2.316,0,2.423-.006,4.846.009,7.268,0,.347-.085.457-.44.449a42.733,42.733,0,0,1-8.6-.917c-.442-.1-.45-.124-.218-.5.253-.406.511-.809.739-1.229.082-.152.165-.228.278-.241a2.59,2.59,0,0,0,3.079-4.046c-.031-.094.007-.171.092-.271.341-.4.67-.817,1-1.227h0q.825-.863,1.649-1.726a.485.485,0,0,1,.365-.205c.572,0,1.145,0,1.717-.031C405.352,30.229,405.4,30.361,405.4,30.6Zm-4.536,1.768h0Zm.155,0a.258.258,0,0,1-.084.012A.258.258,0,0,0,401.014,32.367Zm-8.087-.181c.753-.335,1.562-.507,2.335-.782l2.819-.629.217-.021c1.093-.114,2.179-.3,3.278-.357.136-.007.287-.094.406.051l-.022.013,0,.025h0a10.059,10.059,0,0,0-1.271,1.393.235.235,0,0,0-.151.169h0c-.249.274-.512.538-.742.827-.111.14-.21.225-.35.224a2.59,2.59,0,0,0-2.989,4.141.366.366,0,0,1-.07.2c-.375.58-.741,1.165-1.09,1.761-.12.205-.247.175-.429.127a14.753,14.753,0,0,1-4.289-1.871h0l-.006,0h0a3.5,3.5,0,0,1-1.383-1.9l0-.147-.034-.034a.4.4,0,0,1-.052-.068.4.4,0,0,0,.052.068l.034.034.156-.641A7.081,7.081,0,0,1,392.928,32.186Zm9.046-1.629a.637.637,0,0,0-.009-.068A.637.637,0,0,1,401.973,30.557Z" transform="translate(-388.234 -13.492)" fill="#fff"/><path d="M498.94,157.675a16.3,16.3,0,0,0,2.654,1.459,5.782,5.782,0,0,0,2.467.591,1.627,1.627,0,0,0,1.8-1.453c.047-.234.056-.475.08-.692a14.807,14.807,0,0,0-1.872-5.787c-.083-.164-.206-.134-.339-.1a26.716,26.716,0,0,1-3.879.728c-.286.038-.376.134-.4.408a41.344,41.344,0,0,1-.679,4.457A.319.319,0,0,0,498.94,157.675Z" transform="translate(-477.005 -124.473)" fill="#fff"/></g><g transform="translate(12937 -6154.861)"><path d="M96.5,80.921a2.365,2.365,0,0,0,2.484-2.439c-.028-1.485-.037-2.971.007-4.455.017-.562-.292-.46-.626-.491-.393-.038-.464.133-.461.478.01,1.412,0,2.824-.006,4.235,0,1.082-.405,1.48-1.495,1.472-.523,0-.6.1-.416-.542a2.281,2.281,0,0,0-2.259-2.964c-1.234.042-2.47,0-3.706.006-.818,0-.706-.137-.738.713-.015.4.125.486.5.479,1.353-.023,2.706-.016,4.059-.005A1.069,1.069,0,0,1,94.97,78.6a1.115,1.115,0,0,1-1.158,1.123c-.456,0-.912,0-1.368,0-1.691,0-3.382-.01-5.074.012-.4.005-.521-.125-.478-.507a5.778,5.778,0,0,0,.008-.881A2.224,2.224,0,0,0,84.564,76.1c-.412,0-.824,0-1.235,0a2.21,2.21,0,0,0-2.239,1.91,2.285,2.285,0,0,0,1.558,2.675,5.47,5.47,0,0,0,2.786-.029c.095-.025.192-.128.284-.046s.041.218,0,.329a1.042,1.042,0,0,1-1.031.679c-.662,0-1.323,0-1.985,0-.934,0-.761-.1-.8.794-.014.343.118.418.435.409.735-.022,1.47-.01,2.206-.009a2.037,2.037,0,0,0,2.2-1.533.475.475,0,0,1,.54-.372c1.573.012,3.147.006,4.721.006h2.25C95,80.91,95.756,80.863,96.5,80.921ZM84.789,79.6c-.277.021-.557,0-.835,0-.235,0-.469,0-.7,0a1.151,1.151,0,0,1-1.108-1.092,1.128,1.128,0,0,1,1.02-1.215,15.142,15.142,0,0,1,1.626,0,1.123,1.123,0,0,1,1.025,1.125A1.176,1.176,0,0,1,84.789,79.6Z" transform="translate(-66.677 -73.45)" fill="#fff"/><path d="M218,83.946h-1.412a1.675,1.675,0,0,0-.6.1,2.344,2.344,0,0,0-1.372,3c.1.319.05.415-.29.412-1.485-.013-2.971,0-4.456-.013a1.08,1.08,0,0,1-1.16-1.158,1.048,1.048,0,0,1,1.151-1.148c.765-.008,1.529,0,2.294-.006.793,0,.785-.006.782-.8,0-.262-.04-.4-.361-.391-.941.022-1.882.007-2.823,0a1.932,1.932,0,0,0-1.048.29,2.362,2.362,0,0,0-.99,2.768c.114.4,0,.445-.349.439q-1.345-.024-2.691.006c-.3.007-.376-.093-.368-.376.017-.588.027-1.177,0-1.764a2.137,2.137,0,0,0-2.945-2.041,2.186,2.186,0,0,0-1.345,2.1c-.034.866-.012,1.735-.012,2.6,0,.686,0,.672.707.668.3,0,.383-.114.371-.393-.017-.381,0-.764,0-1.147,0-.573-.013-1.148.023-1.72a1.057,1.057,0,0,1,1.67-.891,1.139,1.139,0,0,1,.43,1.012c.006.9.018,1.794,0,2.691-.008.341.074.453.437.45,2.426-.017,4.853-.009,7.279-.009v0c2.368,0,4.735-.031,7.1.012a2.354,2.354,0,0,0,2.33-2.37A2.262,2.262,0,0,0,218,83.946Zm.112,3.514q-.7.019-1.409,0a1.119,1.119,0,0,1-1.112-1.171,1.078,1.078,0,0,1,1.107-1.161c.249-.01.5,0,.748,0v0c.235,0,.47-.011.7,0a1.118,1.118,0,0,1,1.087,1.2A1.166,1.166,0,0,1,218.112,87.46Z" transform="translate(-162.207 -81.135)" fill="#fff"/><path d="M20.955,89.659a2.2,2.2,0,0,0-2.162-2.307c-.426-.005-.855.029-1.279-.007a2.316,2.316,0,0,0-2.271,3.13c.111.309.052.39-.26.388-1.573-.006-3.146.007-4.719-.007a1.141,1.141,0,0,1-1.158-1.185,1.093,1.093,0,0,1,1.2-1.126c.75-.006,1.5,0,2.249,0,1.025,0,.784.053.834-.809.019-.331-.12-.391-.409-.386-.823.013-1.646,0-2.47,0a2.954,2.954,0,0,0-.918.078A2.378,2.378,0,0,0,8.021,90a2.282,2.282,0,0,0,2.228,2.04c1.411.01,2.823,0,4.234,0v0c1.456,0,2.911.02,4.366-.006A2.221,2.221,0,0,0,20.955,89.659Zm-2.248,1.207c-.441.008-.881.01-1.322,0A1.16,1.16,0,0,1,16.214,89.7a1.1,1.1,0,0,1,1.162-1.166c.235-.008.47,0,.705,0,.206,0,.411,0,.617,0a1.092,1.092,0,0,1,1.163,1.157A1.131,1.131,0,0,1,18.707,90.866Z" transform="translate(-8 -84.539)" fill="#fff"/><path d="M316.715,80.949a2.186,2.186,0,0,0,2.217-2.294,2.146,2.146,0,0,0-2.187-2.39c-1.117-.013-2.235-.006-3.353-.005-.739,0-.717,0-.739.757-.011.375.139.438.464.434,1.162-.016,2.323-.009,3.485-.009a1.1,1.1,0,0,1,1.255,1.151,1.124,1.124,0,0,1-1.251,1.163q-2.669,0-5.338,0a1.169,1.169,0,0,1-1.263-1.217c-.013-.47,0-.941,0-1.411,0-.956.007-1.912,0-2.867-.007-.72.165-.661-.681-.68-.282-.006-.388.075-.385.371.014,1.6-.008,3.206.02,4.808A2.218,2.218,0,0,0,311.2,80.95c.912,0,1.823,0,2.735,0S315.788,80.955,316.715,80.949Z" transform="translate(-249.708 -73.49)" fill="#fff"/><path d="M342.495,144.278c0-.246-.078-.355-.33-.327a1.708,1.708,0,0,1-.4,0c-.277-.036-.364.087-.355.349.013.4.006.793,0,1.189,0,.731-.42,1.233-1.026,1.237a1.119,1.119,0,0,1-1.058-1.257c0-.411,0-.823.005-1.234.005-.2-.063-.277-.276-.289-.806-.048-.806-.057-.8.736,0,.22,0,.441,0,.661a2.127,2.127,0,0,0,2.928,2.285c.091-.024.206-.115.227.069.081.724-.122,1.508-1.067,1.533a7.127,7.127,0,0,1-.968-.012c-.362-.04-.48.1-.435.44a1.29,1.29,0,0,1,0,.308c-.03.273.091.362.356.349.366-.018.734,0,1.1-.008a2.08,2.08,0,0,0,2.083-2.112c.011-.631,0-1.263,0-1.895h0C342.491,145.629,342.484,144.954,342.495,144.278Z" transform="translate(-273.262 -129.997)" fill="#fff"/><path d="M128.194,137.633a1.144,1.144,0,0,1-.308,0c-.315-.044-.435.055-.428.4.022,1.086,0,2.173,0,3.26a1.071,1.071,0,0,1-1.04,1.212,1.082,1.082,0,0,1-1.049-1.211c0-1.072-.022-2.145.009-3.216.011-.386-.113-.5-.467-.448a1.211,1.211,0,0,1-.308,0c-.262-.029-.32.1-.318.337.01,1.189-.013,2.38.014,3.569a2.115,2.115,0,0,0,4.229-.036c.012-.572,0-1.145,0-1.718h0c0-.6-.012-1.2.006-1.806C128.547,137.711,128.468,137.6,128.194,137.633Z" transform="translate(-101.4 -124.927)" fill="#fff"/><path d="M279.107,146.1a5.251,5.251,0,0,0-.677-.193,5.744,5.744,0,0,1-1.337-.437c-.216-.114-.326-.284-.053-.461s1.084-.174,1.255.094c.3.471.722.338,1.128.361.347.02.35-.121.239-.4a1.825,1.825,0,0,0-1.98-1.08,2.319,2.319,0,0,0-1.542.394,1.124,1.124,0,0,0,.051,1.888,4.739,4.739,0,0,0,1.252.527c.3.074.6.158.887.259a.306.306,0,0,1,.238.287.364.364,0,0,1-.25.331,1.173,1.173,0,0,1-1.512-.457c-.039-.064-.066-.123-.145-.15a3.868,3.868,0,0,0-1.155.062,1.751,1.751,0,0,0,.44.984.756.756,0,0,0,.1.091,3.147,3.147,0,0,0,3.434-.038A1.2,1.2,0,0,0,279.107,146.1Z" transform="translate(-222.859 -130.039)" fill="#fff"/><path d="M226.39,144.174a2.15,2.15,0,0,0-1.338,2.088,2.177,2.177,0,0,0,1.291,2.289,2.813,2.813,0,0,0,2.146-.074,1.608,1.608,0,0,0,.867-.947c.038-.1.105-.223-.063-.293a1.459,1.459,0,0,0-1.114.259,1.173,1.173,0,0,1-1.222.282,1.016,1.016,0,0,1-.732-.8c-.064-.232-.009-.361.268-.353.44.013.881,0,1.322,0s.911,0,1.366,0c.191,0,.318-.038.3-.263a2.566,2.566,0,0,0-.534-1.64A2.4,2.4,0,0,0,226.39,144.174Zm1.609,1.7c-.264-.006-.528,0-.791,0v0c-.19,0-.382.011-.571,0-.134-.01-.32.082-.389-.1-.056-.145.053-.283.131-.4a1.052,1.052,0,0,1,1.09-.4.8.8,0,0,1,.752.574C228.3,145.765,228.255,145.88,228,145.874Z" transform="translate(-182.334 -130.07)" fill="#fff"/><path d="M40.882,143.353a2.128,2.128,0,0,0-2.432,1.432,2.585,2.585,0,0,0,1.057,3.15l.041.016a2.153,2.153,0,0,0,3.066-2.191A2.207,2.207,0,0,0,40.882,143.353Zm.244,3.5a1.072,1.072,0,0,1-1.711-.755c-.01-.205-.014-.412-.006-.617a1.075,1.075,0,0,1,1.046-1.087,1.031,1.031,0,0,1,1.07,1.092c0,.088,0,.176,0,.212A1.187,1.187,0,0,1,41.126,146.856Z" transform="translate(-32.338 -129.504)" fill="#fff"/><path d="M156.44,147.268h0c0-.352,0-.7,0-1.057a2.154,2.154,0,0,0-2.092-2.171,2.2,2.2,0,0,0-2.186,2.145c-.017.734.008,1.469-.006,2.2-.005.264.072.387.346.357a1.29,1.29,0,0,1,.308,0c.335.046.468-.066.452-.429-.03-.659-.013-1.321-.01-1.982a1.142,1.142,0,0,1,1.057-1.224,1.105,1.105,0,0,1,1.051,1.223c.008.661.027,1.323-.005,1.982-.018.367.117.473.449.431a1.354,1.354,0,0,1,.308,0c.25.026.339-.078.329-.328C156.429,148.032,156.44,147.65,156.44,147.268Z" transform="translate(-123.789 -130.084)" fill="#fff"/><path d="M70.711,143.994a1.417,1.417,0,0,1-.352,0c-.338-.053-.432.09-.422.416.022.705.016,1.412.008,2.117A1.089,1.089,0,0,1,68.9,147.62a1.043,1.043,0,0,1-1.067-1.1c-.008-.6,0-1.206,0-1.809-.006-.853.1-.691-.725-.719-.275-.009-.36.084-.349.35.017.411,0,.823,0,1.235,0,.368-.009.736,0,1.1a2.079,2.079,0,0,0,2.1,2.009,2.112,2.112,0,0,0,2.145-1.927c.038-.822.01-1.647.021-2.47C71.031,144.059,70.935,143.972,70.711,143.994Z" transform="translate(-55.192 -130.037)" fill="#fff"/><path d="M197.688,143.96a.756.756,0,0,0-.921.623,9.2,9.2,0,0,1-.471,1.138,9.959,9.959,0,0,1-.707,1.547.746.746,0,0,1-.258-.438c-.281-.71-.554-1.423-.846-2.128-.309-.745-.317-.724-1.13-.738-.379-.007-.427.1-.281.423.577,1.269,1.182,2.528,1.7,3.823.218.551.594.427.985.473.421.049.512-.236.638-.519.542-1.221,1.082-2.442,1.633-3.659C198.27,143.963,198.277,144.011,197.688,143.96Z" transform="translate(-156.589 -130.014)" fill="#fff"/><path d="M14.514,138.3c0-.646,0-.628-.657-.648-.325-.01-.425.071-.419.411.018,1.116.007,2.234-.014,3.35a1.029,1.029,0,0,1-1.043,1.118,1.053,1.053,0,0,1-1.025-1.139c.006-.341-.087-.494-.439-.447a1.916,1.916,0,0,1-.352,0c-.2-.01-.279.058-.3.273a2.15,2.15,0,0,0,2,2.38,2.081,2.081,0,0,0,2.244-2.126c.006-.544,0-1.088,0-1.631Q14.514,139.072,14.514,138.3Z" transform="translate(-9.811 -124.952)" fill="#fff"/><path d="M97.8,137.851c0-.128-.073-.176-.192-.191a2.247,2.247,0,0,0-2.781,2.185c-.009.543,0,1.086,0,1.63q0,.352,0,.7c0,.235,0,.47,0,.7,0,.739,0,.727.733.719.286,0,.382-.094.372-.383-.021-.587.012-1.175-.013-1.761-.015-.354.078-.515.461-.472a8.2,8.2,0,0,0,.88.009c.138,0,.244-.005.279-.192.134-.708.005-.882-.688-.882-.191,0-.383-.011-.572,0-.356.029-.395-.143-.306-.431a1.064,1.064,0,0,1,1.15-.761c.714-.02.714-.02.683-.75C97.8,137.939,97.8,137.895,97.8,137.851Z" transform="translate(-77.738 -124.937)" fill="#fff"/><path d="M319.867,142.55a1.056,1.056,0,0,1-1.2-1.189c0-.132,0-.264,0-.4,0-.928,0-.927.921-.968.12-.005.261.048.318-.145.181-.614-.033-.929-.652-.929a.507.507,0,0,0-.088,0c-.4.072-.517-.087-.509-.492.017-.866.182-.736-.759-.764-.286-.008-.346.1-.338.359.016.572.005,1.146.005,1.718h.012c0,.6-.013,1.205,0,1.807a2.146,2.146,0,0,0,2.534,2.056c.055-.011.147-.023.156-.053a1.86,1.86,0,0,0,.02-.909C320.248,142.438,320.013,142.553,319.867,142.55Z" transform="translate(-256.641 -124.964)" fill="#fff"/><path d="M179.988,80.505c-.014-1.087-.005-2.175-.005-3.262s-.024-2.176.012-3.262c.015-.448-.218-.429-.515-.415s-.6-.1-.588.43c.032,2.086.011,4.173.016,6.26,0,.765-.115.656.674.689C179.938,80.96,179.991,80.809,179.988,80.505Z" transform="translate(-145.259 -73.475)" fill="#fff"/><path d="M258.134,144.1c0-.167-.08-.216-.241-.236a2.186,2.186,0,0,0-2.486,1.793,9.192,9.192,0,0,0-.012,1.407h-.03c0,.279,0,.558,0,.838.011.767-.118.666.721.687.293.007.382-.09.374-.379-.019-.631.027-1.266-.015-1.895a1.19,1.19,0,0,1,1.343-1.387c.272.048.373-.079.349-.344A4.515,4.515,0,0,1,258.134,144.1Z" transform="translate(-206.683 -129.927)" fill="#fff"/><path d="M181.142,143.994a.776.776,0,0,1-.264,0c-.356-.064-.45.087-.444.433.019,1.176,0,2.352.01,3.528.007.853-.139.714.752.73.264,0,.36-.063.352-.343-.02-.661-.007-1.323-.007-1.984h0c0-.647-.015-1.294.007-1.94C181.56,144.1,181.492,143.934,181.142,143.994Z" transform="translate(-146.498 -130.035)" fill="#fff"/><path d="M305.522,144.33c0-.254-.094-.344-.337-.319a1.508,1.508,0,0,1-.351,0c-.306-.041-.41.077-.4.389.021.659.007,1.319.007,1.979h0c0,.645.016,1.29-.007,1.935-.011.312.1.429.4.393a1.809,1.809,0,0,1,.351-.011c.237.018.337-.059.335-.32Q305.505,146.353,305.522,144.33Z" transform="translate(-246.094 -130.054)" fill="#fff"/><path d="M58.032,74.509a.73.73,0,0,0,.672-.68.713.713,0,0,0-.641-.705.678.678,0,0,0-.641.7A.712.712,0,0,0,58.032,74.509Z" transform="translate(-47.696 -73.124)" fill="#fff"/><path d="M211.777,73.792a.715.715,0,0,0,.631.722.738.738,0,0,0,.641-.676.694.694,0,0,0-.637-.713A.678.678,0,0,0,211.777,73.792Z" transform="translate(-171.672 -73.126)" fill="#fff"/><path d="M202.753,73.826a.655.655,0,0,0,.589.692.673.673,0,0,0,.659-.676.652.652,0,0,0-.621-.706A.631.631,0,0,0,202.753,73.826Z" transform="translate(-164.425 -73.134)" fill="#fff"/><path d="M135,114.7a.636.636,0,1,0-.629.661A.663.663,0,0,0,135,114.7Z" transform="translate(-108.989 -105.955)" fill="#fff"/><path d="M337.986,114.691a.631.631,0,1,0-1.257,0,.631.631,0,1,0,1.257,0Z" transform="translate(-272.034 -105.961)" fill="#fff"/><path d="M180.58,134.3a.626.626,0,1,0,.044,1.251.626.626,0,0,0-.044-1.251Z" transform="translate(-146.129 -122.264)" fill="#fff"/><path d="M304.567,134.287a.657.657,0,0,0-.624.619.644.644,0,0,0,.6.639.629.629,0,1,0,.02-1.258Z" transform="translate(-245.701 -122.25)" fill="#fff"/></g></g></svg>