<svg xmlns="http://www.w3.org/2000/svg" width="29.25" height="26.003" viewBox="0 0 29.25 26.003"><path d="M-8.125-11.375V-19.5a3.253,3.253,0,0,0-3.25-3.25H-26a3.253,3.253,0,0,0-3.25,3.25v8.125A3.253,3.253,0,0,0-26-8.125v2.752a.492.492,0,0,0,.787.4l4.2-3.153h9.633A3.245,3.245,0,0,0-8.125-11.375Zm4.875-3.25H-6.5v3.25A4.883,4.883,0,0,1-11.375-6.5H-19.5v3.25A3.253,3.253,0,0,0-16.25,0h6.383l4.2,3.153a.492.492,0,0,0,.787-.4V0H-3.25A3.253,3.253,0,0,0,0-3.25v-8.125A3.253,3.253,0,0,0-3.25-14.625Z" transform="translate(29.25 22.75)" fill="#0f5203"/></svg>