<svg xmlns="http://www.w3.org/2000/svg" width="13.644" height="15" viewBox="0 0 13.644 15"><path d="M-6.822,1.875A7.488,7.488,0,0,0-1-.9,1.407,1.407,0,0,0-2.352-3.169,3.9,3.9,0,0,1-6.989-7a3.9,3.9,0,0,1,1.976-3.394A1.407,1.407,0,0,0-5.453-13a9.1,9.1,0,0,0-1.369-.125,7.5,7.5,0,0,0-7.5,7.5A7.5,7.5,0,0,0-6.822,1.875Zm0-13.594a6.129,6.129,0,0,1,1.114.1A5.305,5.305,0,0,0-8.395-7,5.309,5.309,0,0,0-2.089-1.788,6.082,6.082,0,0,1-6.822.469a6.094,6.094,0,0,1-6.094-6.094A6.094,6.094,0,0,1-6.822-11.719Z" transform="translate(14.322 13.125)" fill="#677071"/></svg>