<svg width="26" height="26" xmlns="http://www.w3.org/2000/svg">
 <!-- Created with UXWing SVG Editor - https://uxwing.com/svg-icon-editor/ -->

 <g>
  <title>background</title>
  <rect fill="none" id="canvas_background" height="28" width="28" y="-1" x="-1"/>
  <g display="none" overflow="visible" y="0" x="0" height="100%" width="100%" id="canvasGrid">
   <rect fill="url(#gridpattern)" stroke-width="0" y="0" x="0" height="100%" width="100%"/>
  </g>
 </g>
 <g>
  <title>Layer 1</title>
  <g stroke="null" id="svg_7">
   <g stroke="null" transform="matrix(0.22320804557534615,0,0,0.2007762298511098,44.09753664030154,-37.63462896898679) " id="svg_5">
    <path fill="#0f5203" stroke="null" id="svg_6" d="m-167.526389,195.856902l0,96.769l19.792,0l0,-96.769l-10.289,0l-9.503,0l0,0zm-6.055,99.554l0,-102.338c0,-1.538 1.356,-2.785 3.028,-2.785l12.53,0l13.316,0c1.671,0 3.028,1.247 3.028,2.785l0,102.338c0,1.537 -1.356,2.783 -3.028,2.783l-25.846,0c-1.672,0 -3.028,-1.246 -3.028,-2.783l0,0zm-8.578,-87.419c1.671,0 3.027,1.247 3.027,2.785s-1.355,2.784 -3.027,2.784l-5.968,0c-0.161,0 -0.292,0.022 -0.39,0.064c-0.129,0.056 -0.276,0.166 -0.429,0.325c-0.161,0.167 -0.281,0.346 -0.353,0.528c-0.083,0.208 -0.125,0.465 -0.125,0.759l0,90.803c0,0.287 0.043,0.537 0.125,0.74l0.034,0.092c0.068,0.135 0.165,0.264 0.284,0.383c0.126,0.125 0.258,0.217 0.39,0.27c0.123,0.051 0.279,0.074 0.466,0.074l97.052,0c0.188,0 0.346,-0.025 0.467,-0.074c0.133,-0.053 0.264,-0.145 0.389,-0.27c3.035,-3.035 0.441,1.799 0.441,-1.215l0,-90.803c0,-3.667 3.039,2.357 -0.477,-1.288c-0.143,-0.146 -0.287,-0.254 -0.43,-0.314c-0.113,-0.048 -0.246,-0.075 -0.391,-0.075l-41.842,0c-1.672,0 -3.027,-1.247 -3.027,-2.784s1.355,-2.785 3.027,-2.785l41.842,0c1.041,0 2.029,0.204 2.943,0.597c0.895,0.385 1.699,0.945 2.393,1.663c0.664,0.686 1.17,1.468 1.514,2.334c0.332,0.839 0.502,1.726 0.502,2.652l0,90.803c0,0.938 -0.168,1.826 -0.502,2.654c-0.344,0.859 -0.865,1.639 -1.549,2.324c-0.701,0.703 -1.506,1.234 -2.398,1.598c-0.906,0.367 -1.879,0.551 -2.902,0.551l-97.054,0c-1.022,0 -1.995,-0.184 -2.901,-0.551c-0.894,-0.363 -1.698,-0.896 -2.399,-1.598c-0.621,-0.623 -1.107,-1.33 -1.45,-2.107c-0.036,-0.07 -0.069,-0.143 -0.099,-0.217c-0.335,-0.832 -0.503,-1.722 -0.503,-2.654l0,-90.803c0,-0.921 0.17,-1.811 0.504,-2.652c0.342,-0.863 0.849,-1.648 1.512,-2.334c0.683,-0.707 1.488,-1.263 2.393,-1.652c0.929,-0.401 1.917,-0.607 2.943,-0.607l5.968,0l0,0zm52.582,11.326l27.049,0c0.803,0 1.566,0.145 2.291,0.431c0.076,0.03 0.15,0.063 0.223,0.099c0.607,0.269 1.166,0.635 1.666,1.096c0.584,0.533 1.027,1.128 1.326,1.782c0.047,0.104 0.088,0.21 0.119,0.317c0.225,0.584 0.34,1.189 0.34,1.812l0,12.611c0,0.744 -0.156,1.45 -0.459,2.118l-0.004,0.009l0.004,0.002c-0.291,0.64 -0.725,1.224 -1.291,1.75c-0.58,0.546 -1.227,0.956 -1.932,1.231c-0.736,0.287 -1.5,0.426 -2.283,0.426l-27.049,0c-0.777,0 -1.535,-0.14 -2.27,-0.426c-0.693,-0.269 -1.33,-0.668 -1.912,-1.198c-0.588,-0.539 -1.031,-1.144 -1.326,-1.81c-0.033,-0.078 -0.063,-0.157 -0.09,-0.235c-0.234,-0.605 -0.35,-1.228 -0.35,-1.867l0,-12.611c0,-0.723 0.146,-1.424 0.445,-2.099l-0.006,-0.002c0.295,-0.666 0.738,-1.271 1.326,-1.81l0.037,-0.032l-0.002,-0.001c0.877,-0.78 2.039,-1.219 2.119,-1.244c0.664,-0.232 1.342,-0.349 2.029,-0.349l0,0zm27.573,5.569l-28.08,0l0,12.547l28.08,0l0,-12.547l0,0zm-14.598,28.821c1.072,0 2.01,0.41 2.807,1.207s1.188,1.734 1.188,2.785c0,1.148 -0.389,2.104 -1.188,2.865c-0.799,0.758 -1.734,1.129 -2.807,1.129c-1.129,0 -2.084,-0.371 -2.844,-1.129c-0.76,-0.762 -1.148,-1.717 -1.148,-2.865c0,-1.051 0.391,-1.988 1.148,-2.785s1.715,-1.207 2.844,-1.207l0,0zm12.1,0c1.072,0 2.008,0.41 2.805,1.207s1.189,1.734 1.189,2.785c0,1.148 -0.391,2.104 -1.189,2.865c-0.799,0.758 -1.732,1.129 -2.805,1.129c-1.131,0 -2.086,-0.371 -2.846,-1.129c-0.76,-0.762 -1.148,-1.717 -1.148,-2.865c0,-1.051 0.391,-1.988 1.148,-2.785s1.715,-1.207 2.846,-1.207l0,0zm-24.315,12.098c1.15,0 2.105,0.389 2.865,1.148s1.129,1.715 1.129,2.865c0,1.051 -0.371,1.988 -1.129,2.785s-1.715,1.209 -2.865,1.209c-1.053,0 -1.988,-0.412 -2.785,-1.209s-1.209,-1.734 -1.209,-2.785c0,-1.15 0.41,-2.105 1.209,-2.865s1.732,-1.148 2.785,-1.148l0,0zm12.215,0c1.072,0 2.008,0.389 2.807,1.148s1.188,1.715 1.188,2.865c0,1.051 -0.391,1.988 -1.188,2.785s-1.734,1.209 -2.807,1.209c-1.129,0 -2.086,-0.412 -2.844,-1.209s-1.148,-1.734 -1.148,-2.785c0,-1.15 0.389,-2.105 1.148,-2.865s1.715,-1.148 2.844,-1.148l0,0zm12.1,0c1.072,0 2.006,0.389 2.805,1.148s1.189,1.715 1.189,2.865c0,1.051 -0.393,1.988 -1.189,2.785s-1.732,1.209 -2.805,1.209c-1.131,0 -2.088,-0.412 -2.846,-1.209s-1.148,-1.734 -1.148,-2.785c0,-1.15 0.389,-2.105 1.148,-2.865s1.715,-1.148 2.846,-1.148l0,0zm-24.315,12c1.15,0 2.107,0.393 2.865,1.189s1.129,1.773 1.129,2.922c0,1.053 -0.369,1.988 -1.129,2.787s-1.715,1.207 -2.865,1.207c-1.053,0 -1.986,-0.408 -2.785,-1.207s-1.209,-1.734 -1.209,-2.787c0,-1.148 0.412,-2.125 1.209,-2.922s1.732,-1.189 2.785,-1.189l0,0zm12.215,0c1.072,0 2.01,0.393 2.807,1.189s1.188,1.773 1.188,2.922c0,1.053 -0.389,1.988 -1.188,2.787s-1.734,1.207 -2.807,1.207c-1.129,0 -2.084,-0.408 -2.844,-1.207s-1.148,-1.734 -1.148,-2.787c0,-1.148 0.391,-2.125 1.148,-2.922s1.715,-1.189 2.844,-1.189l0,0zm12.1,0c1.072,0 2.008,0.393 2.805,1.189s1.189,1.773 1.189,2.922c0,1.053 -0.391,1.988 -1.189,2.787s-1.732,1.207 -2.805,1.207c-1.131,0 -2.086,-0.408 -2.846,-1.207s-1.148,-1.734 -1.148,-2.787c0,-1.148 0.391,-2.125 1.148,-2.922s1.715,-1.189 2.846,-1.189l0,0zm-12.1,12.099c1.072,0 2.008,0.389 2.807,1.188s1.188,1.734 1.188,2.807c0,1.129 -0.389,2.084 -1.188,2.844s-1.734,1.148 -2.807,1.148c-1.129,0 -2.084,-0.389 -2.844,-1.148s-1.148,-1.715 -1.148,-2.844c0,-1.072 0.389,-2.008 1.148,-2.807s1.715,-1.188 2.844,-1.188l0,0zm-12.215,-36.197c1.15,0 2.107,0.41 2.865,1.207s1.129,1.734 1.129,2.785c0,1.148 -0.369,2.104 -1.129,2.865c-0.76,0.758 -1.715,1.129 -2.865,1.129c-1.053,0 -1.986,-0.371 -2.785,-1.129c-0.799,-0.762 -1.209,-1.717 -1.209,-2.865c0,-1.051 0.412,-1.988 1.209,-2.785s1.732,-1.207 2.785,-1.207l0,0z"/>
   </g>
  </g>
 </g>
</svg>