<svg xmlns="http://www.w3.org/2000/svg" width="26" height="26" viewBox="0 0 26 26"><path d="M-2.645-13l-.1,0c-2.529.144-7.135.66-10.25,2.416-3.114-1.755-7.721-2.271-10.25-2.416-.034,0-.069,0-.1,0A2.58,2.58,0,0,0-26-10.45v9.042a2.568,2.568,0,0,0,2.455,2.545c1.747.092,6.122.461,8.988,1.9a1.92,1.92,0,0,0,.744.195v.014h.115l.013,0h1.368l.013,0h.115V3.235a1.93,1.93,0,0,0,.744-.195C-8.577,1.6-4.2,1.229-2.455,1.137A2.569,2.569,0,0,0,0-1.408V-10.45A2.58,2.58,0,0,0-2.645-13ZM-13.812,1.592s-.009,0-.014,0C-16.853.067-21.161-.364-23.46-.485a.944.944,0,0,1-.915-.923V-10.45a.76.76,0,0,1,.3-.67,1.3,1.3,0,0,1,.731-.254c1.879.107,6.564.537,9.53,2.2Zm12.188-3a.944.944,0,0,1-.916.923c-2.3.121-6.607.551-9.636,2.075,0,0-.007,0-.011,0V-9.173c2.965-1.665,7.651-2.095,9.522-2.2h.02c.01,0,1.02.025,1.02.925v9.042ZM-13-13a4.875,4.875,0,0,0,4.875-4.875A4.875,4.875,0,0,0-13-22.75a4.875,4.875,0,0,0-4.875,4.875A4.875,4.875,0,0,0-13-13Zm0-8.125a3.254,3.254,0,0,1,3.25,3.25A3.254,3.254,0,0,1-13-14.625a3.254,3.254,0,0,1-3.25-3.25A3.254,3.254,0,0,1-13-21.125Z" transform="translate(26 22.75)" fill="#0f5203"/></svg>