<svg xmlns="http://www.w3.org/2000/svg" xmlns:xlink="http://www.w3.org/1999/xlink" width="91.498" height="91.498" viewBox="0 0 91.498 91.498"><defs><filter id="a" x="0" y="0" width="91.498" height="91.498" filterUnits="userSpaceOnUse"><feOffset dy="3" input="SourceAlpha"/><feGaussianBlur stdDeviation="3" result="b"/><feFlood flood-color="#4e5a68" flood-opacity="0.051"/><feComposite operator="in" in2="b"/><feComposite in="SourceGraphic"/></filter><clipPath id="c"><path d="M0,0H1.088V1.025H0Z" fill="none"/></clipPath><clipPath id="d"><path d="M0,29.384H44.159V0H0Z" fill="none"/></clipPath></defs><g transform="translate(9 6)"><g transform="matrix(1, 0, 0, 1, -9, -6)" filter="url(#a)"><g transform="translate(9 6)" fill="#fff"><path d="M 36.74921035766602 72.99842071533203 C 31.85538101196289 72.99842071533203 27.10820007324219 72.04006958007813 22.63953971862793 70.14997863769531 C 18.32307052612305 68.32427215576172 14.44638061523438 65.71050262451172 11.11715030670166 62.38127136230469 C 7.787920475006104 59.05205154418945 5.174150466918945 55.17536163330078 3.348440408706665 50.85889053344727 C 1.458350300788879 46.39022064208984 0.5000003576278687 41.64303970336914 0.5000003576278687 36.74921035766602 C 0.5000003576278687 31.85538101196289 1.458350300788879 27.10820007324219 3.348440408706665 22.63953971862793 C 5.174150466918945 18.32307052612305 7.787920475006104 14.44638061523438 11.11715030670166 11.11715030670166 C 14.44638061523438 7.787920475006104 18.32307052612305 5.174150466918945 22.63953971862793 3.348440408706665 C 27.10820007324219 1.458350300788879 31.85538101196289 0.5000003576278687 36.74921035766602 0.5000003576278687 C 41.64303970336914 0.5000003576278687 46.39022064208984 1.458350300788879 50.85889053344727 3.348440408706665 C 55.17536163330078 5.174150466918945 59.05205154418945 7.787920475006104 62.38127136230469 11.11715030670166 C 65.71050262451172 14.44638061523438 68.32427215576172 18.32307052612305 70.14997863769531 22.63953971862793 C 72.04006958007813 27.10820007324219 72.99842071533203 31.85538101196289 72.99842071533203 36.74921035766602 C 72.99842071533203 41.64303970336914 72.04006958007813 46.39022064208984 70.14997863769531 50.85889053344727 C 68.32427215576172 55.17536163330078 65.71050262451172 59.05205154418945 62.38127136230469 62.38127136230469 C 59.05205154418945 65.71050262451172 55.17536163330078 68.32427215576172 50.85889053344727 70.14997863769531 C 46.39022064208984 72.04006958007813 41.64303970336914 72.99842071533203 36.74921035766602 72.99842071533203 Z" stroke="none"/><path d="M 36.74921035766602 1 C 31.92266082763672 1 27.24100875854492 1.945060729980469 22.83430862426758 3.808937072753906 C 18.57744216918945 5.609451293945313 14.75416946411133 8.187240600585938 11.47069931030273 11.47069931030273 C 8.187240600585938 14.75416946411133 5.609451293945313 18.57744216918945 3.808937072753906 22.83430862426758 C 1.945060729980469 27.24100875854492 1 31.92266082763672 1 36.74921035766602 C 1 41.57575988769531 1.945060729980469 46.25740814208984 3.808937072753906 50.66410827636719 C 5.609451293945313 54.92098236083984 8.187240600585938 58.7442512512207 11.47069931030273 62.0277214050293 C 14.75416946411133 65.31118774414063 18.57744216918945 67.88897705078125 22.83430862426758 69.68948364257813 C 27.24100875854492 71.55335998535156 31.92266082763672 72.49842071533203 36.74921035766602 72.49842071533203 C 41.57575988769531 72.49842071533203 46.25740814208984 71.55335998535156 50.66410827636719 69.68948364257813 C 54.92098236083984 67.88897705078125 58.7442512512207 65.31118774414063 62.0277214050293 62.0277214050293 C 65.31118774414063 58.7442512512207 67.88897705078125 54.92098236083984 69.68948364257813 50.66410827636719 C 71.55335998535156 46.25740814208984 72.49842071533203 41.57575988769531 72.49842071533203 36.74921035766602 C 72.49842071533203 31.92266082763672 71.55335998535156 27.24100875854492 69.68948364257813 22.83430862426758 C 67.88897705078125 18.57744216918945 65.31118774414063 14.75416946411133 62.0277214050293 11.47069931030273 C 58.7442512512207 8.187240600585938 54.92098236083984 5.609451293945313 50.66410827636719 3.808937072753906 C 46.25740814208984 1.945060729980469 41.57575988769531 1 36.74921035766602 1 M 36.74921035766602 0 C 57.04524230957031 0 73.49842071533203 16.45318984985352 73.49842071533203 36.74921035766602 C 73.49842071533203 57.04524230957031 57.04524230957031 73.49842071533203 36.74921035766602 73.49842071533203 C 16.45318984985352 73.49842071533203 0 57.04524230957031 0 36.74921035766602 C 0 16.45318984985352 16.45318984985352 0 36.74921035766602 0 Z" stroke="none" fill="#f2f3f7"/></g></g><g transform="translate(14.7 23.519)"><path d="M0,.59H.59V0H0Z" transform="translate(26.242 0.783)" fill="#708187"/><path d="M0,.59H.59V0H0Z" transform="translate(27.127 0.783)" fill="#708187"/><path d="M0,.59H.59V0H0Z" transform="translate(36.563 6.68)" fill="#708187"/><path d="M0,.59H.59V0H0Z" transform="translate(35.383 6.68)" fill="#708187"/><path d="M.853,4.615a.726.726,0,0,0,.295-.249,1.064,1.064,0,0,0,.158-.394,2.654,2.654,0,0,0,.047-.522V0h-.5V3.45A2.443,2.443,0,0,1,.833,3.8a.659.659,0,0,1-.074.234.313.313,0,0,1-.143.129.578.578,0,0,1-.233.04A.973.973,0,0,1,.265,4.2a.973.973,0,0,1-.137-.029L0,4.646A1.531,1.531,0,0,0,.4,4.7a1.051,1.051,0,0,0,.45-.086" transform="translate(41.524 1.518)" fill="#708187"/><g transform="translate(39.582)"><path d="M0,0H1.088V1.025H0Z" transform="translate(0)" fill="none"/><g transform="translate(0)" clip-path="url(#c)"><path d="M1.082.642H.4V.527A.227.227,0,0,1,.44.383.2.2,0,0,1,.593.34H.934V0H.584A.6.6,0,0,0,.146.144.643.643,0,0,0-.006.619v.4H1.082Z" transform="translate(0.006 0.003)" fill="#708187"/></g></g><path d="M0,29.384H44.159V0H0Z" fill="none"/><g clip-path="url(#d)"><path d="M1.463,4.7a1.913,1.913,0,0,1-.442-.052,4.59,4.59,0,0,1-.506-.157L.67,4.017a2.42,2.42,0,0,0,.419.147,1.818,1.818,0,0,0,.413.043,1.038,1.038,0,0,0,.627-.166.649.649,0,0,0,.224-.555V3l-.167.348H2.053a3.159,3.159,0,0,1-.788-.1A1.976,1.976,0,0,1,.61,2.955a1.452,1.452,0,0,1-.447-.512A1.592,1.592,0,0,1,0,1.694,1.55,1.55,0,0,1,.146,1.02,1.588,1.588,0,0,1,.567.484,2.035,2.035,0,0,1,1.215.13,2.587,2.587,0,0,1,2.053,0h.794V3.438a1.279,1.279,0,0,1-.329.921A1.418,1.418,0,0,1,1.463,4.7ZM1.832.5a1.519,1.519,0,0,0-.487.086A1.415,1.415,0,0,0,.914.828a1.22,1.22,0,0,0-.3.38A1.046,1.046,0,0,0,.5,1.7,1.11,1.11,0,0,0,.6,2.188a1.049,1.049,0,0,0,.292.364,1.32,1.32,0,0,0,.431.225,1.733,1.733,0,0,0,.524.078h.5V.639L2.635.5Z" transform="translate(37.822 1.518)" fill="#708187"/><path d="M13.156,4.651H4.1a1.049,1.049,0,0,1-.45-.086.726.726,0,0,1-.295-.249c-.009-.012-.016-.026-.024-.04l-.007-.012v.369H2.295A2.267,2.267,0,0,1,.633,3.944,2.323,2.323,0,0,1,0,2.329V2.316A2.334,2.334,0,0,1,.639.694,2.278,2.278,0,0,1,2.307,0H3.649V3.4a2.474,2.474,0,0,0,.022.354.667.667,0,0,0,.074.234.315.315,0,0,0,.143.129.58.58,0,0,0,.233.04h8.539V0h.5V4.65ZM2.294.467A1.763,1.763,0,0,0,.528,2.3v.013A1.8,1.8,0,0,0,2.308,4.165h.969A1.189,1.189,0,0,1,3.2,3.92,2.657,2.657,0,0,1,3.153,3.4V.619l.3-.151Z" transform="translate(23.855 1.519)" fill="#708187"/><path d="M3.43,3.414l.216.568L.493,0H0V4.629H.513V1.14L.221.465l3.3,4.163h.42V0H3.43Z" transform="translate(17.94 1.513)" fill="#708187"/><path d="M5.45,4.576,8.313,1.863V0H.663V2.119H4.585l1.457-.93L2.41,4.817,2.8,6.39H3.833c1.391,0,2.216.514,2.216,1.429v.032a1.416,1.416,0,0,1-1.6,1.365A3.462,3.462,0,0,1,1.715,7.867L0,9.489a5.51,5.51,0,0,0,4.416,1.943c2.523,0,4.076-1.557,4.076-3.677V7.723c0-2.088-1.5-2.89-3.041-3.147" transform="translate(22.992 8.961)" fill="#708187"/><path d="M2.371,4.787A2.342,2.342,0,0,1,.653,4.075,2.4,2.4,0,0,1,0,2.406V2.393A2.411,2.411,0,0,1,.66.718,2.354,2.354,0,0,1,2.384,0,2.342,2.342,0,0,1,4.1.711a2.4,2.4,0,0,1,.653,1.669v.014A2.411,2.411,0,0,1,4.1,4.068,2.354,2.354,0,0,1,2.371,4.787Zm0-4.3a1.821,1.821,0,0,0-1.825,1.9v.014A1.856,1.856,0,0,0,2.384,4.3a1.821,1.821,0,0,0,1.825-1.9V2.393A1.856,1.856,0,0,0,2.371.482Z" transform="translate(12.324 1.434)" fill="#708187"/><path d="M6,11.623A6.084,6.084,0,0,1,1.69,9.931,5.68,5.68,0,0,1,0,5.843V5.81a5.707,5.707,0,0,1,1.706-4.1A6.109,6.109,0,0,1,6.032,0a6.084,6.084,0,0,1,4.31,1.692,5.68,5.68,0,0,1,1.69,4.087v.032a5.708,5.708,0,0,1-1.706,4.1A6.109,6.109,0,0,1,6,11.623ZM6,2.278a3.373,3.373,0,0,0-3.4,3.5V5.81A3.445,3.445,0,0,0,6.032,9.343a3.373,3.373,0,0,0,3.4-3.5V5.81A3.445,3.445,0,0,0,6,2.278Z" transform="translate(32.126 8.77)" fill="#708187"/><path d="M0,4.629H.526V0H0Z" transform="translate(10.89 1.513)" fill="#708187"/><path d="M2.334,10.116l.481-.368,2.474-1.9C7.294,6.31,8.265,5.379,8.265,3.5V3.468C8.265,1.365,6.712,0,4.367,0A4.733,4.733,0,0,0,.145,2.329l1.747,1.4c.841-1.029,1.44-1.51,2.313-1.51A1.384,1.384,0,0,1,5.726,3.677c0,.931-.55,1.541-1.957,2.7L0,9.441V11.4H8.378V9.264H4.061Z" transform="translate(0.103 8.8)" fill="#708187"/><path d="M2.471,4.662,4.476,0H3.91L2.325,3.794l.051.509-.132-.316L.873.689.586,0H0L2.005,4.662Z" transform="translate(0 1.513)" fill="#708187"/><path d="M0,4.629H.526V0H0Z" transform="translate(5.191 1.513)" fill="#708187"/><path d="M1.978,2.127C.952,1.909.713,1.664.713,1.227V1.214C.713.8,1.1.467,1.705.467a2.057,2.057,0,0,1,1.345.5l.306-.4A2.443,2.443,0,0,0,1.718,0,1.376,1.376,0,0,0,.185,1.261v.013c0,.761.493,1.1,1.565,1.336.979.206,1.212.45,1.212.88V3.5c0,.456-.413.787-1.039.787a2.229,2.229,0,0,1-1.6-.654L0,4.018a2.738,2.738,0,0,0,1.9.741c.926,0,1.592-.516,1.592-1.309V3.437c0-.708-.479-1.084-1.519-1.309" transform="translate(6.525 1.449)" fill="#708187"/><path d="M0,.29H.292V0H0Z" transform="translate(2.3 25.815)" fill="#708187"/><path d="M4.39,1.915H1.172a1.736,1.736,0,0,1-.448-.057,1.1,1.1,0,0,1-.373-.173A.865.865,0,0,1,.1,1.39.907.907,0,0,1,0,.959.881.881,0,0,1,.083.578.9.9,0,0,1,.319.273a1.123,1.123,0,0,1,.369-.2A1.535,1.535,0,0,1,1.172,0h.448V1.632h1.13V0h.284V1.632H4.107V0h.284V1.914ZM1.054.282A.877.877,0,0,0,.77.329.793.793,0,0,0,.523.467.7.7,0,0,0,.349.682.59.59,0,0,0,.283.959a.647.647,0,0,0,.06.284.623.623,0,0,0,.165.212.749.749,0,0,0,.245.132.968.968,0,0,0,.3.045h.281V.282Z" transform="translate(17.549 23.565)" fill="#708187"/><path d="M0,2.531H.284V0H0Z" transform="translate(15.86 22.949)" fill="#708187"/><path d="M0,.29H.292V0H0Z" transform="translate(18.875 22.949)" fill="#708187"/><path d="M0,.29H.292V0H0Z" transform="translate(21.651 25.812)" fill="#708187"/><path d="M0,.29H.292V0H0Z" transform="translate(2.798 25.815)" fill="#708187"/><path d="M.838,3.308a1.1,1.1,0,0,1-.254-.029,2.568,2.568,0,0,1-.29-.088l.088-.272A1.409,1.409,0,0,0,.622,3a1.054,1.054,0,0,0,.236.024.591.591,0,0,0,.359-.1.371.371,0,0,0,.129-.32V2.531h-.17a1.816,1.816,0,0,1-.451-.055,1.128,1.128,0,0,1-.375-.169.827.827,0,0,1-.256-.293A.908.908,0,0,1,0,1.586.885.885,0,0,1,.085,1.2.906.906,0,0,1,.323.893,1.166,1.166,0,0,1,.695.69a1.485,1.485,0,0,1,.48-.074H1.63V2.249h.984l-.5-1.182A2.454,2.454,0,0,1,2.349.881,1.746,1.746,0,0,1,2.612.729a1.692,1.692,0,0,1,.277-.1,1.045,1.045,0,0,1,.551,0,1.569,1.569,0,0,1,.274.1,2.152,2.152,0,0,1,.263.152,2.481,2.481,0,0,1,.242.185l-.5,1.181H5.211V.793H5.5V2.249h.551a.606.606,0,0,0,.181-.027.425.425,0,0,0,.153-.084.409.409,0,0,0,.106-.148.557.557,0,0,0,.04-.221V.793H6.81v1a.482.482,0,0,0,.046.193.5.5,0,0,0,.118.157.56.56,0,0,0,.177.106.644.644,0,0,0,.227.039.511.511,0,0,0,.4-.147.564.564,0,0,0,.132-.39V.793h.284V1.7a1.206,1.206,0,0,1-.025.265.524.524,0,0,0,.224.211.892.892,0,0,0,.391.07h.465V0h.284V2.531H8.711v0a1.083,1.083,0,0,1-.2-.025.794.794,0,0,1-.2-.074.5.5,0,0,1-.133-.1.775.775,0,0,1-.088-.118.608.608,0,0,1-.275.272.986.986,0,0,1-.435.088.891.891,0,0,1-.423-.095.724.724,0,0,1-.281-.265.732.732,0,0,1-.261.236.758.758,0,0,1-.368.088H1.63v.053a.732.732,0,0,1-.188.527.812.812,0,0,1-.6.2ZM3.165.9A1.032,1.032,0,0,0,2.8.965a1.13,1.13,0,0,0-.336.2l.444,1.083H3.42l.444-1.083a1.137,1.137,0,0,0-.32-.189A1.013,1.013,0,0,0,3.165.9ZM1.058.9A.86.86,0,0,0,.77.951a.81.81,0,0,0-.247.139.691.691,0,0,0-.174.217.6.6,0,0,0-.065.279.635.635,0,0,0,.059.282.6.6,0,0,0,.167.208.763.763,0,0,0,.247.129,1,1,0,0,0,.3.044h.288V.9Z" transform="translate(5.501 22.949)" fill="#708187"/><path d="M0,.29H.292V0H0Z" transform="translate(1.327 22.949)" fill="#708187"/><path d="M0,.29H.292V0H0Z" transform="translate(30.074 22.949)" fill="#708187"/><path d="M0,2.531H.284V0H0Z" transform="translate(27.556 22.949)" fill="#708187"/><path d="M0,.29H.292V0H0Z" transform="translate(18.377 22.949)" fill="#708187"/><path d="M1.616.8a1.048,1.048,0,0,0-.045-.31A.649.649,0,0,0,1.435.246.764.764,0,0,0,1.181.06.85.85,0,0,0,.839,0H.629V.281H.878a.449.449,0,0,1,.2.044A.46.46,0,0,1,1.226.44.428.428,0,0,1,1.309.6a.843.843,0,0,1,.023.212v.818H0v.282H1.616Z" transform="translate(3.432 23.566)" fill="#708187"/><path d="M0,2.531H.284V0H0Z" transform="translate(42.592 22.949)" fill="#708187"/><path d="M0,.29H.292V0H0Z" transform="translate(30.571 22.949)" fill="#708187"/><path d="M10.31,2.852A.994.994,0,0,1,9.9,2.766a1.028,1.028,0,0,1-.329-.236H8.316a1.01,1.01,0,0,1-.339.236,1.07,1.07,0,0,1-.425.085,1,1,0,0,1-.413-.086,1.032,1.032,0,0,1-.329-.236H1.172a1.734,1.734,0,0,1-.447-.057A1.1,1.1,0,0,1,.351,2.3.865.865,0,0,1,.1,2.005a.9.9,0,0,1-.1-.43A.881.881,0,0,1,.083,1.2.9.9,0,0,1,.319.89a1.12,1.12,0,0,1,.369-.2A1.533,1.533,0,0,1,1.171.617H1.62V2.249H4.249V1.817a.912.912,0,0,0-.021-.2.383.383,0,0,0-.082-.163.4.4,0,0,0-.158-.111A.6.6,0,0,0,3.755,1.3H2.305a.5.5,0,0,1-.083-.127.607.607,0,0,1-.045-.159L2.723,0h.309L2.5,1.017H3.755a.9.9,0,0,1,.352.059.721.721,0,0,1,.249.184.629.629,0,0,1,.135.248,1.106,1.106,0,0,1,.043.309v.433h.906V0h.285V2.249h.9a1.2,1.2,0,0,1-.062-.2.986.986,0,0,1-.023-.217A1.021,1.021,0,0,1,7.155.885.988.988,0,0,1,7.552.8a1.061,1.061,0,0,1,.41.079,1.017,1.017,0,0,1,.328.217,1.006,1.006,0,0,1,.219.326,1.044,1.044,0,0,1,.08.407.994.994,0,0,1-.088.416h.881a1.225,1.225,0,0,1-.062-.2A1,1,0,0,1,9.3,1.833,1.02,1.02,0,0,1,9.912.885.988.988,0,0,1,10.31.8a1.06,1.06,0,0,1,.41.079,1.021,1.021,0,0,1,.329.217,1.01,1.01,0,0,1,.218.326,1.04,1.04,0,0,1,.08.407.994.994,0,0,1-.088.416h.977V0h.284V2.531H11.075a1.012,1.012,0,0,1-.339.236A1.069,1.069,0,0,1,10.31,2.852Zm0-1.767a.715.715,0,0,0-.293.059.723.723,0,0,0-.229.161.747.747,0,0,0-.151.236.759.759,0,0,0-.055.288.746.746,0,0,0,.206.52.729.729,0,0,0,.231.158.721.721,0,0,0,.29.059.8.8,0,0,0,.3-.054.716.716,0,0,0,.4-.39.732.732,0,0,0,.059-.295.767.767,0,0,0-.057-.3.714.714,0,0,0-.158-.236.754.754,0,0,0-.238-.155.792.792,0,0,0-.3-.053Zm-2.757,0a.708.708,0,0,0-.522.22.749.749,0,0,0-.152.236.772.772,0,0,0-.055.288.756.756,0,0,0,.055.285.748.748,0,0,0,.153.236.729.729,0,0,0,.231.158.72.72,0,0,0,.289.059.8.8,0,0,0,.3-.054.726.726,0,0,0,.456-.683.767.767,0,0,0-.057-.3A.7.7,0,0,0,8.091,1.3a.754.754,0,0,0-.238-.155A.793.793,0,0,0,7.552,1.086ZM1.054.9A.874.874,0,0,0,.77.946a.8.8,0,0,0-.247.137A.711.711,0,0,0,.349,1.3a.585.585,0,0,0-.066.277.65.65,0,0,0,.06.284.623.623,0,0,0,.165.211A.746.746,0,0,0,.754,2.2a.968.968,0,0,0,.3.046h.28V.9Z" transform="translate(29.245 22.949)" fill="#708187"/><path d="M3.034,1.915H1.172a1.74,1.74,0,0,1-.448-.057,1.1,1.1,0,0,1-.373-.173A.865.865,0,0,1,.1,1.39.907.907,0,0,1,0,.959.881.881,0,0,1,.083.578.9.9,0,0,1,.319.273a1.127,1.127,0,0,1,.37-.2A1.537,1.537,0,0,1,1.172,0h.448V1.632h1.13V0h.284V1.914ZM1.055.282A.877.877,0,0,0,.77.329.793.793,0,0,0,.523.467.708.708,0,0,0,.349.682.59.59,0,0,0,.284.959a.647.647,0,0,0,.06.284.626.626,0,0,0,.165.212.755.755,0,0,0,.245.132.967.967,0,0,0,.3.045h.28V.282Z" transform="translate(0.001 23.566)" fill="#708187"/><path d="M0,.29H.292V0H0Z" transform="translate(20.612 25.815)" fill="#708187"/><path d="M0,.29H.292V0H0Z" transform="translate(20.114 25.815)" fill="#708187"/><path d="M.231,3.308A.88.88,0,0,1,0,3.276L.075,3a.558.558,0,0,0,.078.018.56.56,0,0,0,.068,0A.329.329,0,0,0,.353,3a.177.177,0,0,0,.082-.074.374.374,0,0,0,.043-.134,1.418,1.418,0,0,0,.012-.2V.616H.774V2.249H1.833l-.5-1.182A2.528,2.528,0,0,1,1.567.881,1.752,1.752,0,0,1,1.831.729a1.677,1.677,0,0,1,.275-.1A1.078,1.078,0,0,1,2.383.591a1.049,1.049,0,0,1,.274.037,1.557,1.557,0,0,1,.273.1,2.14,2.14,0,0,1,.263.152,2.56,2.56,0,0,1,.241.185l-.5,1.182H4.147V0h.285V2.531H.774V2.59a1.506,1.506,0,0,1-.027.3.609.609,0,0,1-.091.226.415.415,0,0,1-.169.143.6.6,0,0,1-.257.05ZM2.383.9a1.032,1.032,0,0,0-.36.063,1.138,1.138,0,0,0-.336.2l.444,1.083h.508l.444-1.083a1.145,1.145,0,0,0-.32-.189A1.013,1.013,0,0,0,2.384.9Z" transform="translate(22.298 22.949)" fill="#708187"/><path d="M0,.29H.292V0H0Z" transform="translate(0.829 22.949)" fill="#708187"/><path d="M1.76,0H1.322L.357,1.013V0H0V2.015H.357V1.431l.316-.323.693.907H1.8L.917.865Z" transform="translate(0.278 27.334)" fill="#708187"/><path d="M0,2.015H.357V0H0Z" transform="translate(2.402 27.334)" fill="#708187"/><path d="M1.418,1.394.331,0H0V2.015H.351V.581l1.12,1.434h.3V0H1.418Z" transform="translate(3.308 27.334)" fill="#708187"/><path d="M1.034,1.229h.519v.377a.833.833,0,0,1-.49.152.675.675,0,0,1-.69-.719V1.033A.683.683,0,0,1,1.031.321.8.8,0,0,1,1.6.537L1.827.271A1.1,1.1,0,0,0,1.046,0,1.032,1.032,0,0,0,0,1.039v.006A1,1,0,0,0,1.051,2.082,1.3,1.3,0,0,0,1.9,1.766V.921H1.034Z" transform="translate(5.52 27.303)" fill="#708187"/><path d="M.757,2.009H0V-.006H.757A1.008,1.008,0,0,1,1.836,1V1A1.011,1.011,0,0,1,.757,2.009ZM.357.317v1.37h.4a.662.662,0,0,0,.7-.678V1a.665.665,0,0,0-.7-.685Z" transform="translate(7.911 27.34)" fill="#708187"/><path d="M1.058,2.083A1.024,1.024,0,0,1,0,1.047V1.041A1.034,1.034,0,0,1,.3.307,1.067,1.067,0,0,1,1.064,0,1.025,1.025,0,0,1,2.123,1.035v.006a1.032,1.032,0,0,1-.3.734A1.067,1.067,0,0,1,1.058,2.083Zm0-1.759a.683.683,0,0,0-.684.711v.006a.7.7,0,0,0,.69.717.683.683,0,0,0,.685-.711V1.041A.688.688,0,0,0,1.058.323Z" transform="translate(10.081 27.301)" fill="#708187"/><path d="M1,.953.38,0H0V2.015H.351V.576l.635.944H1L1.638.57V2.015H2V0h-.38Z" transform="translate(12.647 27.334)" fill="#708187"/><path d="M1.058,2.083A1.024,1.024,0,0,1,0,1.047V1.041A1.034,1.034,0,0,1,.3.307,1.067,1.067,0,0,1,1.064,0,1.025,1.025,0,0,1,2.123,1.035v.006a1.032,1.032,0,0,1-.3.734A1.067,1.067,0,0,1,1.058,2.083Zm0-1.759a.683.683,0,0,0-.684.711v.006a.7.7,0,0,0,.69.717.683.683,0,0,0,.685-.711V1.041A.688.688,0,0,0,1.058.323Z" transform="translate(15.945 27.301)" fill="#708187"/><path d="M0,2.015H.357V1.195H1.381V.872H.357V.323H1.511V0H0Z" transform="translate(18.511 27.334)" fill="#708187"/><path d="M.919.864C.531.772.438.7.438.548V.542C.438.409.56.3.768.3a.926.926,0,0,1,.551.206L1.511.242A1.13,1.13,0,0,0,.774-.011.619.619,0,0,0,.081.573V.579c0,.372.244.5.676.6.377.086.458.164.458.308v.006c0,.153-.139.254-.359.254a.937.937,0,0,1-.641-.262L0,1.739a1.257,1.257,0,0,0,.847.323c.426,0,.725-.225.725-.6V1.454c0-.334-.224-.486-.653-.59" transform="translate(21.148 27.317)" fill="#708187"/><path d="M.366,2.03H0L.893,0h.331l.893,2.029H1.74l-.206-.487H.574L.366,2.03ZM1.053.423.7,1.23h.7Z" transform="translate(22.92 27.32)" fill="#708187"/><path d="M1.367,1.161c0,.371-.194.56-.51.56s-.513-.2-.513-.575V0H-.013V1.161a.8.8,0,0,0,.864.887.808.808,0,0,0,.873-.9V0H1.367Z" transform="translate(25.26 27.334)" fill="#708187"/><path d="M.757,2.009H0V-.006H.757A1.008,1.008,0,0,1,1.835,1V1A1.011,1.011,0,0,1,.757,2.009ZM.357.317v1.37h.4a.662.662,0,0,0,.7-.678V1a.665.665,0,0,0-.7-.685Z" transform="translate(27.506 27.34)" fill="#708187"/><path d="M0,2.015H.357V0H0Z" transform="translate(29.793 27.334)" fill="#708187"/><path d="M.366,2.03H0L.893,0h.331l.893,2.029H1.74l-.206-.487H.574L.366,2.03ZM1.053.423.7,1.23h.7Z" transform="translate(31.389 27.32)" fill="#708187"/><path d="M.357,2.013H0V0H.9a.823.823,0,0,1,.586.2.607.607,0,0,1,.168.435V.639a.605.605,0,0,1-.484.611l.548.762H1.3l-.5-.7H.357v.7ZM.357.32V1H.879C1.133,1,1.3.864,1.3.659V.653C1.3.441,1.143.32.876.32Z" transform="translate(33.843 27.337)" fill="#708187"/><path d="M.366,2.03H0L.893,0h.331l.893,2.029H1.74l-.206-.487H.574L.366,2.03ZM1.053.423.7,1.23h.7Z" transform="translate(35.828 27.32)" fill="#708187"/><path d="M.94,2.012H0V0H.911a.737.737,0,0,1,.531.179.449.449,0,0,1,.136.334V.515a.476.476,0,0,1-.29.449.494.494,0,0,1,.4.49v.006C1.691,1.8,1.41,2.012.94,2.012ZM.351,1.146V1.7H.944c.249,0,.392-.1.392-.277V1.415c0-.177-.144-.271-.418-.271Zm0-.835V.845H.838c.243,0,.383-.1.383-.273V.566C1.221.406,1.088.31.864.31Z" transform="translate(38.282 27.338)" fill="#708187"/><path d="M0,2.015H.357V0H0Z" transform="translate(40.414 27.334)" fill="#708187"/><path d="M.366,2.03H0L.893,0h.331l.893,2.029H1.74l-.206-.487H.574L.366,2.03ZM1.053.423.7,1.23h.7Z" transform="translate(41.112 27.32)" fill="#708187"/><path d="M.55,0l.574.546-.551.569L0,.569Z" transform="translate(14.698 8.029)" fill="#273777"/><path d="M0,.569l.573.546.55-.569L.55,0Z" transform="translate(16.561 8.029)" fill="#a9aaac"/><path d="M0,.442.447.868.875.426.428,0Z" transform="translate(15.753 8.873)" fill="#ccd433"/><path d="M0,.442.446.869.875.426.428,0Z" transform="translate(17.39 9.116)" fill="#71b545"/><path d="M0,.442.446.869.875.426.429,0Z" transform="translate(15.023 9.55)" fill="#ccd433"/><path d="M0,.442.446.869.875.426.428,0Z" transform="translate(16.521 9.602)" fill="#26b3ba"/><path d="M0,.312l.314.3L.615.3.3,0Z" transform="translate(15.935 10.243)" fill="#71b545"/><path d="M0,.312l.314.3L.616.3.3,0Z" transform="translate(17.12 10.478)" fill="#59b15a"/><path d="M0,.177l.177.967L1.15.967.973,0Z" transform="translate(19.707 8.241)" fill="#2785c6"/><path d="M0,.142.143.918.925.776.782,0Z" transform="translate(18.436 8.681)" fill="#1d3a6c"/><path d="M0,.142.143.918.924.776.782,0Z" transform="translate(19.946 9.763)" fill="#26b3ba"/><path d="M0,.111l.111.6L.72.6.608,0Z" transform="translate(18.869 9.907)" fill="#ccd433"/><path d="M0,.111l.111.6L.72.6.608,0Z" transform="translate(20.053 11.055)" fill="#a9aaac"/><path d="M0,.111l.111.6L.72.6.609,0Z" transform="translate(17.957 10.153)" fill="#26b3ba"/><path d="M0,.111l.111.6L.72.6.608,0Z" transform="translate(19.062 10.944)" fill="#71b545"/><path d="M0,.078.078.5.507.425.428,0Z" transform="translate(18.286 11.05)" fill="#a9aaac"/><path d="M0,.078.078.5.506.425.428,0Z" transform="translate(19.109 11.929)" fill="#59b15a"/><path d="M.426,0,0,.888l.895.422L1.32.423Z" transform="translate(22.179 11.586)" fill="#273777"/><path d="M.341,0,0,.712l.717.339L1.059.339Z" transform="translate(20.993 11.176)" fill="#26b3ba"/><path d="M.341,0,0,.713l.718.338L1.059.339Z" transform="translate(21.58 12.931)" fill="#71b545"/><path d="M.265,0,0,.555.56.819.826.264Z" transform="translate(20.716 12.397)" fill="#ccd433"/><path d="M.265,0,0,.555.559.819.826.264Z" transform="translate(20.999 14.015)" fill="#ccd433"/><path d="M.265,0,0,.555.56.819.826.264Z" transform="translate(19.831 12.066)" fill="#2785c6"/><path d="M.265,0,0,.555.559.819.826.264Z" transform="translate(20.261 13.35)" fill="#a9aaac"/><path d="M.187,0,0,.39.393.576.58.186Z" transform="translate(19.668 12.959)" fill="#71b545"/><path d="M.187,0,0,.39.393.576.58.186Z" transform="translate(19.817 14.149)" fill="#26b3ba"/><path d="M.868,0,0,.472l.476.863L1.345.863Z" transform="translate(22.218 15.839)" fill="#2785c6"/><path d="M.7,0,0,.379l.383.691.7-.379Z" transform="translate(21.602 14.768)" fill="#26b3ba"/><path d="M.7,0,0,.379l.383.692.7-.379Z" transform="translate(21.044 16.532)" fill="#26b3ba"/><path d="M.542,0,0,.295.3.834.84.539Z" transform="translate(20.75 15.553)" fill="#273777"/><path d="M.543,0,0,.295.3.834.84.539Z" transform="translate(20.027 17.03)" fill="#59b15a"/><path d="M.543,0,0,.295.3.834.84.539Z" transform="translate(20.228 14.772)" fill="#1d3a6c"/><path d="M.543,0,0,.295.3.834.84.539Z" transform="translate(19.82 16.062)" fill="#ccd433"/><path d="M.382,0,0,.206l.209.38L.59.379Z" transform="translate(19.666 15.355)" fill="#a9aaac"/><path d="M.382,0,0,.208.209.587.59.379Z" transform="translate(19.086 16.406)" fill="#26b3ba"/><path d="M1.1.121.121,0,0,.976.983,1.1Z" transform="translate(19.866 19.446)" fill="#71b545"/><path d="M.886.1.1,0,0,.783l.788.1Z" transform="translate(20.077 18.144)" fill="#1d3a6c"/><path d="M.886.1.1,0,0,.783l.789.1Z" transform="translate(18.584 19.251)" fill="#26b3ba"/><path d="M.69.075.076,0,0,.61.614.685Z" transform="translate(18.995 18.218)" fill="#71b545"/><path d="M.69.075.076,0,0,.61.614.685Z" transform="translate(17.537 18.996)" fill="#a9aaac"/><path d="M.69.076.076,0,0,.61.614.685Z" transform="translate(19.032 17.281)" fill="#a9aaac"/><path d="M.69.076.076,0,0,.61.614.685Z" transform="translate(17.94 18.09)" fill="#71b545"/><path d="M.485.053.053,0,0,.429.432.482Z" transform="translate(18.307 17.356)" fill="#a9aaac"/><path d="M.485.053.053,0,0,.429.432.482Z" transform="translate(17.217 17.872)" fill="#a9aaac"/><path d="M1.4.669.674,0,0,.721l.726.669Z" transform="translate(15.659 20.693)" fill="#ccd433"/><path d="M1.4.669.674,0,0,.721l.726.669Z" transform="translate(15.525 6.919)" fill="#71b545"/><path d="M1.123.537.54,0,0,.578l.582.536Z" transform="translate(16.71 19.745)" fill="#26b3ba"/><path d="M1.123.537.54,0,0,.578l.582.536Z" transform="translate(14.848 19.776)" fill="#71b545"/><path d="M.874.418.421,0,0,.45.453.868Z" transform="translate(15.891 19.164)" fill="#2785c6"/><path d="M.874.418.421,0,0,.45.454.868Z" transform="translate(14.251 18.948)" fill="#ccd433"/><path d="M.874.418.421,0,0,.45.453.868Z" transform="translate(16.474 18.425)" fill="#ccd433"/><path d="M.874.418.421,0,0,.45.453.868Z" transform="translate(15.112 18.448)" fill="#a9aaac"/><path d="M.615.295.295,0,0,.317.319.612Z" transform="translate(15.948 18.052)" fill="#1d3a6c"/><path d="M.615.295.295,0,0,.316.319.611Z" transform="translate(14.76 17.837)" fill="#a9aaac"/><path d="M1.166.964.972,0,0,.193l.195.964Z" transform="translate(11.662 19.58)" fill="#2785c6"/><path d="M.935.774.779,0,0,.155.156.929Z" transform="translate(13.157 19.345)" fill="#26b3ba"/><path d="M.935.774.779,0,0,.155.156.929Z" transform="translate(11.629 18.288)" fill="#71b545"/><path d="M.728.6.607,0,0,.12l.122.6Z" transform="translate(12.911 18.329)" fill="#ccd433"/><path d="M.728.6.607,0,0,.12l.122.6Z" transform="translate(13.819 18.068)" fill="#273777"/><path d="M.728.6.607,0,0,.121l.121.6Z" transform="translate(12.701 17.295)" fill="#2785c6"/><path d="M.512.424.427,0,0,.085.085.508Z" transform="translate(13.691 17.388)" fill="#71b545"/><path d="M.512.424.427,0,0,.085.085.508Z" transform="translate(12.854 16.523)" fill="#a9aaac"/><path d="M.9,1.3l.41-.895L.41,0,0,.895Z" transform="translate(8.977 16.122)" fill="#26b3ba"/><path d="M.723,1.045,1.053.327.33,0,0,.718Z" transform="translate(10.431 16.769)" fill="#ccd433"/><path d="M.723,1.045l.33-.718L.329,0,0,.718Z" transform="translate(9.815 15.024)" fill="#2785c6"/><path d="M.563.814.819.254.257,0,0,.56Z" transform="translate(10.924 15.774)" fill="#26b3ba"/><path d="M.563.814.82.253.257,0,0,.56Z" transform="translate(11.677 17.172)" fill="#a9aaac"/><path d="M.563.814.819.254.257,0,0,.56Z" transform="translate(10.613 14.16)" fill="#273777"/><path d="M.563.814.819.254.257,0,0,.56Z" transform="translate(11.814 16.09)" fill="#59b15a"/><path d="M.563.814.819.254.257,0,0,.56Z" transform="translate(11.363 14.813)" fill="#ccd433"/><path d="M.4.573.577.179.18,0,0,.393Z" transform="translate(12.208 15.435)" fill="#1d3a6c"/><path d="M.4.573.577.179.18,0,0,.393Z" transform="translate(12.04 14.247)" fill="#71b545"/><path d="M.491,1.341,1.351.855.86,0,0,.487Z" transform="translate(8.834 11.839)" fill="#26b3ba"/><path d="M.394,1.076l.69-.391L.69,0,0,.391Z" transform="translate(9.737 13.162)" fill="#71b545"/><path d="M.394,1.076l.69-.391L.69,0,0,.391Z" transform="translate(10.266 11.389)" fill="#1d3a6c"/><path d="M.307.838l.537-.3L.538,0,0,.3Z" transform="translate(10.817 12.599)" fill="#2785c6"/><path d="M.307.838l.537-.3L.538,0,0,.3Z" transform="translate(11.516 11.11)" fill="#71b545"/><path d="M.306.838l.538-.3L.538,0,0,.3Z" transform="translate(11.352 13.372)" fill="#26b3ba"/><path d="M.306.838l.538-.3L.538,0,0,.3Z" transform="translate(11.739 12.075)" fill="#ccd433"/><path d="M.216.59.594.376.378,0,0,.214Z" transform="translate(12.156 13.026)" fill="#a9aaac"/><path d="M.216.59.594.376.378,0,0,.214Z" transform="translate(12.719 11.965)" fill="#71b545"/><path d="M0,.978l.985.1L1.091.1.106,0Z" transform="translate(11.378 8.441)" fill="#71b545"/><path d="M0,.784.79.868.875.084.084,0Z" transform="translate(11.408 9.959)" fill="#a9aaac"/><path d="M0,.784.79.868.875.084.084,0Z" transform="translate(12.882 8.828)" fill="#26b3ba"/><path d="M0,.611.615.676.681.065.066,0Z" transform="translate(12.685 10.059)" fill="#ccd433"/><path d="M0,.611.615.676.681.066.066,0Z" transform="translate(14.13 9.258)" fill="#2785c6"/><path d="M0,.611.615.676.681.065.066,0Z" transform="translate(12.664 10.997)" fill="#26b3ba"/><path d="M0,.611.615.676.681.065.066,0Z" transform="translate(13.742 10.17)" fill="#71b545"/><path d="M0,.43.433.476.479.046.046,0Z" transform="translate(13.592 11.11)" fill="#1d3a6c"/><path d="M0,.43.433.475.479.046.046,0Z" transform="translate(14.674 10.577)" fill="#a9aaac"/><path d="M6.305,3.736a2.042,2.042,0,0,0-.393-.169,2.352,2.352,0,0,0-1.08-.078,2.624,2.624,0,0,0-.468.12l-.047.017a2.591,2.591,0,0,0-.248.11q-.106.054-.211.116a5.014,5.014,0,0,0-.472.321,9.98,9.98,0,0,1-.048-2.5,0,0,0,0,1,0,0h0c.373.234.269.886.19,1.073,0,0,0,.006.007,0a1.146,1.146,0,0,0,.143-1.3s0-.007.006,0a1.062,1.062,0,0,1,.168.171,1.011,1.011,0,0,1,.211.554,1.646,1.646,0,0,1,0,.251c0,.019,0,.038,0,.055s0,0,0,0h0a1.064,1.064,0,0,0,0-.978A1.222,1.222,0,0,0,3.86,1.21c-.026-.027-.054-.054-.084-.08a0,0,0,0,1,0-.006.816.816,0,0,1,.081.024.792.792,0,0,1,.211.11.873.873,0,0,1,.295.395.991.991,0,0,1,.068.36,0,0,0,1,0,.007,0,.894.894,0,0,0-.075-.737A.869.869,0,0,0,4.071.993.936.936,0,0,0,3.86.9a.605.605,0,0,0-.1-.022s0-.006,0-.007q.052,0,.1-.005A1.04,1.04,0,0,1,4.07.881.772.772,0,0,1,4.365,1a.613.613,0,0,1,.2.21s.007,0,.007,0a.59.59,0,0,0-.2-.395A.76.76,0,0,0,4.071.656.848.848,0,0,0,3.86.627.67.67,0,0,0,3.6.674s-.006,0,0-.006A.5.5,0,0,1,3.86.48.609.609,0,0,1,4.071.454a.474.474,0,0,1,.173.04,0,0,0,0,0,0-.006A.66.66,0,0,0,4.071.346.57.57,0,0,0,3.86.278a.531.531,0,0,0-.508.251l0,0,0,0C3.321.485,3.3.437,3.275.386A1.681,1.681,0,0,1,3.16,0a0,0,0,0,0-.006,0,1.692,1.692,0,0,1-.116.383,1.546,1.546,0,0,1-.07.141l0,0,0,0a.546.546,0,0,0-.9-.04,0,0,0,0,0,0,.006.557.557,0,0,1,.652.173,0,0,0,0,1,0,.006A.779.779,0,0,0,1.88.879a.586.586,0,0,0-.139.326s.005.006.007,0a.577.577,0,0,1,.13-.158A.858.858,0,0,1,2.552.87a0,0,0,0,1,0,.007.891.891,0,0,0-.674.537.956.956,0,0,0-.008.6,0,0,0,0,0,.007,0V2a.888.888,0,0,1,.657-.873,0,0,0,0,1,0,.006,1.083,1.083,0,0,0-.3,1.342,0,0,0,0,0,.007,0,1.1,1.1,0,0,1,.375-1.032s.008,0,.006,0a1.147,1.147,0,0,0,.142,1.3s.008,0,.007,0c-.078-.187-.183-.839.19-1.073h0a0,0,0,0,1,0,0,9.963,9.963,0,0,1-.048,2.5,3.829,3.829,0,0,0-.93-.548c-.039-.014-.077-.027-.114-.04A2.472,2.472,0,0,0,1,3.46a2.279,2.279,0,0,0-.907.228c-.035.017-.065.034-.088.047a.009.009,0,0,0,.007.016l.08-.023A2.521,2.521,0,0,1,1,3.639a2.715,2.715,0,0,1,.878.236,4.646,4.646,0,0,1,1.046.678,11.437,11.437,0,0,1-1.045.888l-.033.018a.245.245,0,0,0-.436.086.234.234,0,0,0,.047.21.354.354,0,0,0,.422.061,5.793,5.793,0,0,0,1.157-.959l.118-.107.118.106c.213.193.407.382.585.542.073.066.144.127.211.182a1.861,1.861,0,0,0,.295.2.383.383,0,0,0,.468-.01l.022-.019a.27.27,0,0,0,.048-.21.236.236,0,0,0-.069-.118.242.242,0,0,0-.111-.062.246.246,0,0,0-.253.094.871.871,0,0,1-.1-.063,3.433,3.433,0,0,1-.295-.236C4,5.1,3.934,5.04,3.86,4.973c-.145-.131-.3-.275-.472-.422A5.79,5.79,0,0,1,3.86,4.2q.1-.069.211-.134.143-.085.295-.157a3,3,0,0,1,.468-.177,2.48,2.48,0,0,1,1.08-.067,2.729,2.729,0,0,1,.385.09.009.009,0,0,0,.008-.016" transform="translate(13.043 11.368)" fill="#6f777e"/></g></g></g></svg>