<svg xmlns="http://www.w3.org/2000/svg" width="119.486" height="70.024" viewBox="0 0 119.486 70.024"><path d="M1521.417,668.4l-.194.057a5.78,5.78,0,0,0-.888.035,51.119,51.119,0,0,1-7.748.689,11.685,11.685,0,0,0-1.692.265l-.265.034a1.35,1.35,0,0,0-1.151.127l-.264.029a.759.759,0,0,0-.27-.089,13.132,13.132,0,0,0-4.021.6l-.172.01c-.978.185-1.976.145-2.965.3-1.282.206-2.432.773-3.671,1.071a.3.3,0,0,0-.226.251l-.019.024-.027-.013c-.474.161-1.054.066-1.379.581l-.034.018a1.531,1.531,0,0,0-1.17.243,17.269,17.269,0,0,0-1.483.894c-.351.228-.805.031-1.072.386-.688.913-1.8,1.252-2.645,1.958-.336.282-.789.452-.876.959l-.115.093a1.567,1.567,0,0,0-.533.178c-.737.363-1.189,1.091-1.946,1.437a.723.723,0,0,0-.481.921l0,0c-.344.04-.843-.2-.794.513a.441.441,0,0,1-.461.384.28.28,0,0,0-.343.241c-.153.736-1.05.9-1.193,1.659-.1-.2-.069-.422-.326-.425h0c.02-.133,0-.3.066-.395a3.106,3.106,0,0,0,.613-1.318l-.008-.007c.305,0,.211.386.457.494.072-.153.243-.278.107-.433-.236-.268-.042-.4.113-.588.324-.388.913-.584.9-1.226,0-.057.091-.126.153-.172a.875.875,0,0,0,.345-.882l.018-.026.031.007a1.537,1.537,0,0,0,1.006-.747,18.1,18.1,0,0,1,3.8-4.081c.306-.276.915-.3.883-.906l.091-.076c.4-.113.645-.532,1.108-.539.115,0,.092-.19.1-.3l.008,0a1.208,1.208,0,0,0,1.072-.422,2.678,2.678,0,0,1,1.056-.761,3.771,3.771,0,0,0,1.574-1l.116-.066c.168-.053.413.061.475-.221l.011-.028.03.007a7.468,7.468,0,0,0,1.8-.657c.457-.17,1.026-.195,1.362-.649l.122-.028a.208.208,0,0,0,.254.1,19.9,19.9,0,0,1,2.175-.514c1.364-.367,2.769-.549,4.109-1.037a10.763,10.763,0,0,0,3.536-1.635c.162-.139.286-.154.28.119a.084.084,0,0,1-.034.1c-.361.194-.365.636-.637.905s-.115.432.219.413c.313-.018.625-.072.936-.118a4.1,4.1,0,0,0,2.169-.922l.032-.013c.419-.005.631-.445,1.031-.492h0a.739.739,0,0,1-.1.82c-.16.184-.239.534.131.52a5.018,5.018,0,0,0,2.651-.428c.364-.229.673-.345.942.114.075.128.209.214.346.1a.23.23,0,0,0,0-.367c-.592-.443-.088-.695.208-.78a1.982,1.982,0,0,0,1.024-.877c.145-.187.1-.686.577-.555l-.052.3a12.964,12.964,0,0,0-.824,2.073c-.123.33-.037.488.319.512a6.005,6.005,0,0,0,1.7-.188c.8-.175,1.614-.21,2.418-.342a1.334,1.334,0,0,0,1.036-.55c.12-.122.282-.1.43-.128a7.783,7.783,0,0,0,2.893-.992c.463-.259,1.089-.3,1.324-.9l0,0c.261-.055.512-.124.606-.419a.075.075,0,0,1,.072-.064l-.02-.006.2-.1c.3.053.435-.16.619-.346.47-.477.834-1.2,1.72-.869l-.08.127a.569.569,0,0,0-.24.537.047.047,0,0,1-.021.069,1.457,1.457,0,0,0-.605.991.057.057,0,0,1-.059.068c-.655.022-.594.586-.748.987l.006-.011a6.136,6.136,0,0,0-1.151.983c-.649.6-1.452.987-2.132,1.511-.85.657-1.836.991-2.709,1.55-.421.269-1.02.164-1.314.662a.068.068,0,0,1-.062.043h.006l-.262.055c-.124-.207-.261-.143-.44-.056C1522.4,667.98,1521.906,668.186,1521.417,668.4Z" transform="translate(-1445.5 -656.936)" fill="#0f6fb6"/><path d="M1270.016,1007.853h1.868c1.646,0,2.386.746,2.264,2.417-.044.594.125.713.658.694.893-.032,1.788,0,2.681,0,.427,0,.808-.061.821-.62.014-.6-.194-.829-.805-.841-.695-.014-1.391-.032-2.085-.007-.574.021-.722-.344-.767-.784-.047-.468.141-.87.652-.892a25.738,25.738,0,0,1,2.858.011c.725.05,1.285.918,1.362,1.945a6.07,6.07,0,0,1,0,.715c-.011.273.045.465.378.47s.4-.183.4-.454c0-.715.008-1.43.009-2.145q0-1.788,0-3.575a1.443,1.443,0,0,1,.185-.8c.144-.235.359-.224.571-.228s.3.16.37.334a2,2,0,0,1,.11.761c0,2.046,0,4.092-.007,6.138,0,1.327-.294,1.612-1.609,1.612-4.43,0-8.859.012-13.288-.007-.477,0-.725.133-.859.588a8.473,8.473,0,0,1-.48,1.216.561.561,0,0,1-.672.371c-.3-.086-.318-.369-.33-.636a2.241,2.241,0,0,1,.305-1.076.373.373,0,0,0-.137-.551,2.709,2.709,0,0,1-1.03-2.713c.053-.231.112-.463.184-.689.185-.581.862-1.22,1.35-1.2a1.638,1.638,0,0,1,1.435,1,2.5,2.5,0,0,1,.3,1.436c-.053.472.157.622.619.616,1.608-.02,3.218-.006,4.827-.01.569,0,.8-.244.8-.776s-.27-.678-.76-.666c-.933.024-1.867.009-2.8.007a1.3,1.3,0,0,1-1.2-1.969,1.894,1.894,0,0,1,.45-.624c.563-.5,1.115-1.014,1.686-1.5.254-.218.565-.473.9-.22a.871.871,0,0,1,.2,1.085,1.549,1.549,0,0,1-.537.622c-.311.263-.62.529-.93.794Zm-4.413,2.364c-.215-.176-.049-.677-.537-.671-.439.006-.508.367-.53.71-.022.361.074.733.485.747S1265.479,1010.6,1265.6,1010.216Z" transform="translate(-1252.073 -959.584)" fill="#eba634"/><path d="M1568.236,1014.06l-.038-.111-.073-.176q0-.207,0-.414l.145-.531c.369-.09.479-.324.473-.7-.021-1.271-.01-2.542-.009-3.814a2.192,2.192,0,0,1,.069-.647c.087-.288.212-.554.536-.545a.6.6,0,0,1,.581.64c.028.654.036,1.31.03,1.965,0,.476.186.69.681.653s.992-.038,1.488-.033c.344,0,.445-.162.437-.478-.012-.456,0-.914,0-1.37,0-.477-.017-.937.484-1.252.288-.181-.038-.262-.158-.351a1.2,1.2,0,0,1-.186-1.446.535.535,0,0,1,.975.154,1.053,1.053,0,0,1-.281,1.248c-.17.152-.3.263-.036.453a1.1,1.1,0,0,1,.394,1.007c-.011.5.011.994-.005,1.49-.014.414.162.549.571.544,1.35-.017,2.7.006,4.052,0,.68,0,.87-.253.815-.934-.024-.3-.156-.433-.445-.433-.893,0-1.784-.093-2.679-.03-.592.041-1.237.117-1.552-.567a2.063,2.063,0,0,1,.5-2.19c.59-.5,1.182-1,1.762-1.505.182-.16.332-.371.608-.214a.751.751,0,0,1,.414.677,1.5,1.5,0,0,1-.677,1.2,3.487,3.487,0,0,0-.333.249c-.144.146-.426.255-.328.5.087.219.352.115.539.118.616.01,1.232.015,1.847,0a1.071,1.071,0,0,1,.959.493,2.781,2.781,0,0,1,.6,2c-.035.274-.111.594.324.616s.412-.325.416-.583c.019-1.132.011-2.264.013-3.4,0-.735-.008-1.47,0-2.2.011-.772.115-.888.849-1.019l.191.133.152.447a19.561,19.561,0,0,0,.032,2.647v1.386c-.018.213-.045.425-.052.639a27.694,27.694,0,0,1-.071,2.936,1.81,1.81,0,0,1-.678.7c-2.384,0-4.768.011-7.152,0-.289,0-.684.206-.828-.322-.034-.125-.156.133-.255.192a3.084,3.084,0,0,1-1.034.142c-.642,0-1.284.02-1.926.033-.3-.074-.461.008-.39.349a1.218,1.218,0,0,0-.041.6C1569.753,1014.283,1569.155,1014.654,1568.236,1014.06Z" transform="translate(-1520.479 -959.022)" fill="#eba634"/><path d="M1884.487,1007.753c0-1.113-.006-2.225,0-3.338a2.642,2.642,0,0,1,.105-.7.426.426,0,0,1,.493-.338.5.5,0,0,1,.474.384,4.245,4.245,0,0,1,.108,1.064c0,1.708.018,3.417-.006,5.126-.007.517.146.73.681.669a8.224,8.224,0,0,1,1.131-.01c.313.008.427-.1.365-.429a3.517,3.517,0,0,1,.028-1.421,1.869,1.869,0,0,1,.83-1.319,1.174,1.174,0,0,1,1.751.35,1.9,1.9,0,0,1,.44,1.609.636.636,0,0,1-.55.554c-.357.033-.4-.258-.475-.5a2.568,2.568,0,0,0-.129-.4.383.383,0,0,0-.729-.02,1.325,1.325,0,0,0-.007,1.2c.172.4.5.38.848.378.854-.005,1.708-.009,2.563.006.352.006.508-.121.5-.484-.013-.6-.009-1.192.008-1.788.011-.376.113-.791.553-.784s.592.393.588.817c0,.576.012,1.153,0,1.728-.009.34.084.506.466.507s.462-.165.462-.505c0-1.808.02-3.615.032-5.422,0-.119,0-.239,0-.358.008-.434.032-.916.607-.906s.566.52.568.926q.016,3.248,0,6.5c-.008,1.133-.919,1.857-1.933,1.361-.5-.246-.724.072-1.074.069-2.563-.02-5.125,0-7.688-.014a.927.927,0,0,1-1.018-1.053c-.016-1.152,0-2.3,0-3.457Z" transform="translate(-1799.109 -959.242)" fill="#eba634"/><path d="M1812.5,1009.189c.031-1.329-.052-2.661.066-3.989a1.979,1.979,0,0,1,.1-.521.507.507,0,0,1,.971.062,6.128,6.128,0,0,1,.115.941c.013,1.728.026,3.455,0,5.183-.008.485.168.651.618.6a.458.458,0,0,1,.059,0c1.1.017,1.1.017,1.138-1.068a2.341,2.341,0,0,1,.911-1.8,1.224,1.224,0,0,1,1.848.353,3.294,3.294,0,0,1-.1,3.592,1.751,1.751,0,0,1-1.424.612q-1.25.016-2.5,0c-.35,0-.531.095-.577.49a2.524,2.524,0,0,1-.407,1.4,1.584,1.584,0,0,1-1.742.6,1.4,1.4,0,0,1-1.029-1.323c-.073-.567-.276-1.19.259-1.674.108-.1.062-.171-.017-.24a1.3,1.3,0,0,1-.311-1.1c0-1.966,0-3.932,0-5.9,0-.452-.048-.972.568-1.085.382-.07.641.386.643,1.088q.006,3.038,0,6.076c0,.08.03.181-.007.235-.422.608-.028,1.211,0,1.816.01.243.074.445.348.469s.375-.2.419-.415a3.255,3.255,0,0,0,.053-.651C1812.5,1011.691,1812.5,1010.44,1812.5,1009.189Zm5.161,1.479c-.048-.288-.031-.679-.46-.688-.483-.01-.54.427-.552.765-.011.3.082.671.5.668C1817.623,1011.409,1817.626,1011.029,1817.66,1010.668Z" transform="translate(-1733.907 -960.076)" fill="#eba634"/><path d="M1171.752,1031.865c0,.456.01.913,0,1.369-.01.341.1.515.474.506,2.123-.052,1.713.343,1.777-1.667a6.6,6.6,0,0,1,.04-.829c.045-.28.155-.55.51-.562.383-.013.543.257.565.567.046.652.057,1.308.05,1.961,0,.423.184.563.582.535.266-.019.4-.137.415-.4s.04-.554.056-.831a2.266,2.266,0,0,1,.55-1.356,1.33,1.33,0,0,1,2.335.26,3.215,3.215,0,0,1-.262,3.411,1.522,1.522,0,0,1-1.254.553c-.879-.056-1.78-.09-2.637-.088-.923,0-1.882.027-2.823.093a1.259,1.259,0,0,1-1.246-.38.227.227,0,0,0-.321-.034,1.073,1.073,0,0,1-1.308-.229,2.611,2.611,0,0,1,.363-3.968c.018-.01.033-.029.051-.03.572-.042,1.016-.214,1.114-.886.027-.189.275-.269.5-.207a.54.54,0,0,1,.452.491c.022.572.007,1.146.007,1.718Zm6.579,1.1c-.1-.292-.025-.734-.508-.723-.433.009-.522.346-.516.719s.1.714.529.71C1178.245,1033.672,1178.272,1033.3,1178.331,1032.97Zm-7.746-.058c-.03-.3-.058-.653-.477-.659-.36-.005-.49.273-.482.606s.034.72.495.713C1170.494,1033.566,1170.565,1033.25,1170.585,1032.911Z" transform="translate(-1168.498 -982.375)" fill="#eba634"/><path d="M1449.653,1031.407c0,.457.016.915-.005,1.37-.017.354.1.484.473.5,1.886.06,1.886.069,1.9-1.834.005-.8.263-1.328.643-1.218.6.176.529.74.547,1.234.02.571-.238,1.289.128,1.672s1.089.113,1.655.132c.789.028.792.008.8-.781,0-.516-.016-1.034.013-1.549.02-.355.146-.687.589-.68.424.007.523.354.53.669.023,1.032.042,2.067-.01,3.1-.035.672-.389.965-1.065.939-.986-.039-1.994-.107-2.953-.063-1.042.048-2.086-.028-3.125.06a.91.91,0,0,1-.863-.289c-.146-.182-.329-.139-.54-.094a1.274,1.274,0,0,1-1.512-.662,2.742,2.742,0,0,1-.007-2.987,1.149,1.149,0,0,1,.452-.458c.576-.27,1.275-.346,1.446-1.148.033-.156.3-.177.479-.106a.566.566,0,0,1,.407.535c.009.556,0,1.111,0,1.667Zm-1.145.967c-.031-.318-.159-.607-.516-.6-.429.011-.453.384-.448.7s.1.65.483.613S1448.488,1032.717,1448.508,1032.374Z" transform="translate(-1413.275 -981.963)" fill="#eba634"/><path d="M2015.7,1043.107h.5l.493.268q.029.14.058.281c-.125,1.1-.125,1.1-1.253,1.1-.567,0-1.134-.02-1.7-.031l-.363-.262-.116-.106-.014-.012c-.005-.073-.009-.148-.106-.16l-.091-.087a8.739,8.739,0,0,1-.285-1.654l.007-.252a.375.375,0,0,0,.065-.353l.077-.217a.548.548,0,0,0,.189-.379.085.085,0,0,0,.05-.089l.09-.144c.483-.569,1.148-.483,1.771-.444.578.036.8-.227.809-.744.011-.543-.21-.734-.818-.736-.437,0-.874.012-1.31,0-.563-.017-.757-.257-.757-.9,0-.559.222-.794.783-.81.377-.01.756.02,1.131-.011,1.59-.133,2.012.891,2.158,2.029a3.146,3.146,0,0,1,0,.654c-.025.3.026.493.4.5.353,0,.448-.141.417-.468a3.154,3.154,0,0,1,.256-1.683,1.588,1.588,0,0,1,1.371-1,1.35,1.35,0,0,1,1.261.935,3.341,3.341,0,0,1,.05,2.766c-.1.066-.19.133-.137.274l-.2.276a.557.557,0,0,0-.34.333l-.02.011a22.784,22.784,0,0,1-4,.209.563.563,0,0,1-.525-.283c-.291-.384-.675-.286-.851.174l0-.005a3.5,3.5,0,0,0-.514.13c-.309.129-.437.422-.256.669.261.356.756.365,1.138.548C2015.328,1043.522,2015.561,1043.316,2015.7,1043.107Zm4.273-3.352c-.048-.346-.075-.75-.529-.724-.473.028-.487.451-.492.811,0,.328.144.639.487.63C2019.845,1040.463,2019.963,1040.117,2019.975,1039.755Z" transform="translate(-1912.161 -989.171)" fill="#eba634"/><path d="M2118.216,1154.721c1.369-1.155,1.846-1.132,2.719-.009.068-.073.136-.141.2-.213a1.365,1.365,0,0,1,1.568-.554,1.428,1.428,0,0,1,.911,1.414c.06,1.288.019,2.581.029,3.872,0,.348-.165.447-.485.42-.3-.025-.62.023-.617-.435.007-.894,0-1.788,0-2.681,0-.1,0-.2,0-.3-.026-.461-.033-.966-.627-1.053-.376-.056-.831.6-.834,1.138-.006.894-.021,1.788,0,2.681.012.432-.065.648-.573.661-.555.014-.555-.29-.554-.676,0-.914,0-1.827-.014-2.741-.009-.459-.028-.967-.619-1.063-.356-.058-.848.633-.851,1.139-.005.933-.017,1.867.013,2.8.014.448-.185.54-.572.529-.365-.01-.594-.065-.587-.525.024-1.509.01-3.019.01-4.528,0-.3-.053-.622.414-.623C2118.149,1153.972,2118.47,1154.02,2118.216,1154.721Z" transform="translate(-2004.206 -1091.792)" fill="#1570b3"/><path d="M1971.289,1159.162a1.513,1.513,0,0,1-2.049.106,2.047,2.047,0,0,1-.677-1.352,5.316,5.316,0,0,1,.2-2.812,1.594,1.594,0,0,1,2.243-.992c.408.152.829-.095,1.254-.032.234.034.422.023.415.346-.042,1.783.119,3.573-.077,5.348a2.34,2.34,0,0,1-3.454,1.867c-.415-.19-.21-.556-.222-.839-.029-.673-.008-.674.619-.455C1970.689,1160.748,1971.311,1160.364,1971.289,1159.162Zm.063-2.488h0c0-.218.013-.437,0-.655-.02-.269.161-.623-.293-.724a.8.8,0,0,0-.973.379,2.694,2.694,0,0,0-.057,2.193.623.623,0,0,0,.8.352c.309-.078.589-.227.538-.653A7.6,7.6,0,0,1,1971.352,1156.674Z" transform="translate(-1873.094 -1091.879)" fill="#1570b3"/><path d="M1264.8,1142.8a8.468,8.468,0,0,0,.007,1.071c.082.65-.215.964-.8,1.171a2.858,2.858,0,0,1-3.874-1.9,5.853,5.853,0,0,1,.191-4.018,2.832,2.832,0,0,1,3.88-1.457,1.2,1.2,0,0,1,.588,1.458c-.09.242-.21.161-.364.075a6.326,6.326,0,0,0-.792-.4,1.616,1.616,0,0,0-2.155.817,3.813,3.813,0,0,0-.058,3.335,1.553,1.553,0,0,0,1.74.948c.31-.057.51-.2.477-.557-.016-.178-.006-.357-.006-.536,0-.8,0-.825-.809-.829-.463,0-.447-.275-.458-.583s-.018-.619.425-.619h.119C1265.207,1140.8,1264.741,1140.383,1264.8,1142.8Z" transform="translate(-1248.97 -1077.272)" fill="#1570b3"/><path d="M1751.927,1042.958c-.635,0-1.27,0-1.905,0a1.594,1.594,0,0,1-1.646-1.2,3.806,3.806,0,0,1,.1-2.509,1.548,1.548,0,0,1,1.471-1.013c.693-.031,1.389-.016,2.083-.013a.786.786,0,0,1,.836.818c.045.506-.286.834-.842.852-.654.02-1.31.012-1.964.016-.445,0-.729.2-.73.669a.654.654,0,0,0,.731.738c1.092,0,2.183,0,3.274,0,.339,0,.525-.132.535-.481.014-.5.035-.99.042-1.486a2.246,2.246,0,0,1,.112-.76.45.45,0,0,1,.424-.35.41.41,0,0,1,.457.309,9.99,9.99,0,0,1-.058,3.995.663.663,0,0,1-.722.415C1753.4,1042.948,1752.662,1042.959,1751.927,1042.958Z" transform="translate(-1679.098 -989.937)" fill="#eba634"/><path d="M1577.26,1154.711a.059.059,0,0,0,.028.078,10.9,10.9,0,0,1,.126,1.464c-.01,1.061,0,2.123.008,3.185a.09.09,0,0,0-.039.088l-.47.113-.479-.062-.121-.117-.009-.018c0-.457.022-.914,0-1.37a11.417,11.417,0,0,0-.092-2.362c-.066-.342-.234-.653-.613-.56a.982.982,0,0,0-.753.959c-.034.951-.03,1.9-.007,2.855.012.493-.167.677-.663.645-.355-.023-.49-.146-.483-.5.017-.853.007-1.706.007-2.558a2.681,2.681,0,0,0-.006-.416c-.067-.421-.042-.929-.631-.994-.343-.038-.838.618-.842,1.085-.01.952-.021,1.9.008,2.855.014.447-.2.536-.575.538-.348,0-.575-.071-.573-.485.009-1.606,0-3.213.01-4.819a1.186,1.186,0,0,1,.1-.331c.5-.09.972-.128.87.649.262-.1.323-.288.429-.438l0-.006.133-.1,0,0a1.923,1.923,0,0,1,1.063-.266.082.082,0,0,0,.1.029l.265.1.01.006.116.093.023.016c.275.586.591.675.984.1a1.134,1.134,0,0,1,.272-.213l.018-.011a1.675,1.675,0,0,1,1.2.025l.02.028.034-.006.307.325.151.251Z" transform="translate(-1523.088 -1091.751)" fill="#1570b3"/><path d="M2086.457,1007.791c0-1.051,0-2.1,0-3.154a1.511,1.511,0,0,1,.04-.529c.1-.256.109-.61.524-.623s.552.247.638.57a2.018,2.018,0,0,1,.073.524c-.012,1.844-.019,3.688-.058,5.532-.01.476.152.634.616.6.514-.034,1.031-.016,1.547-.006.383.008.537-.179.535-.544,0-.575-.009-1.15.006-1.725.01-.405.133-.808.615-.782.445.024.517.43.52.8.007.952.017,1.9,0,2.856-.014.78-.312,1.043-1.1,1.049q-1.338.01-2.677.034c-.969.016-1.247-.228-1.265-1.215-.021-1.13-.005-2.261-.005-3.392Z" transform="translate(-1977.014 -959.343)" fill="#eba634"/><path d="M1820.836,1142.457c0-1.052.005-2.1,0-3.156,0-.465.168-.709.674-.664.315.028.635,0,.953,0a2.028,2.028,0,0,1,2.332,2.331c0,1.552-.742,2.68-2.387,2.6-.342-.017-.394.132-.385.418.016.555-.008,1.112.015,1.667.016.393-.1.6-.533.585-.391-.012-.7-.03-.683-.566.029-1.071.009-2.144.009-3.216Zm1.183-1.382c0,.3.017.6,0,.892-.026.353.13.425.456.421a.938.938,0,0,0,1.008-.736,1.557,1.557,0,0,0-.322-1.651,1.107,1.107,0,0,0-.971-.146c-.318.117-.129.448-.162.684A3.947,3.947,0,0,0,1822.019,1141.075Z" transform="translate(-1743.047 -1078.377)" fill="#1570b3"/><path d="M2133.841,1040.388c0-.675,0-1.349,0-2.024a1.368,1.368,0,0,1,.181-.741.466.466,0,0,1,.847,0,1.261,1.261,0,0,1,.181.681c-.01.456-.005.912,0,1.369,0,.808.51,1.138,1.28.85.23-.086.2-.27.207-.44.01-.6-.006-1.191.017-1.785.015-.378.049-.833.563-.816.475.016.568.438.573.832.011.932.015,1.866,0,2.8-.016.776-.328,1.052-1.1,1.082-.47.019-1.042-.192-1.383.111-.326.29-.107.865-.176,1.309a.952.952,0,0,1-.786.92c-.394.065-.781.042-.92-.427-.133-.452-.2-.916.334-1.18.219-.109.184-.283.185-.453C2133.842,1041.777,2133.84,1041.082,2133.841,1040.388Z" transform="translate(-2018.209 -989.17)" fill="#eba634"/><path d="M1919.222,1156.708a11.281,11.281,0,0,1-.135,1.14,2.075,2.075,0,0,1-2,1.861,1.91,1.91,0,0,1-2.048-1.823,4.927,4.927,0,0,1,.143-2.644,2.013,2.013,0,0,1,2.093-1.428,1.872,1.872,0,0,1,1.809,1.668C1919.162,1155.889,1919.177,1156.309,1919.222,1156.708Zm-1.174.2a3.724,3.724,0,0,0-.148-1.284.836.836,0,0,0-.777-.63.791.791,0,0,0-.82.564,3.4,3.4,0,0,0-.027,2.381.786.786,0,0,0,.811.578.876.876,0,0,0,.8-.611A2.455,2.455,0,0,0,1918.047,1156.911Z" transform="translate(-1825.93 -1091.747)" fill="#1570b3"/><path d="M1695.539,1004.885q-.014,4.018-.03,8.036a3.166,3.166,0,0,1-.224,1.392,1.47,1.47,0,0,1-1.337.917,1.362,1.362,0,0,1-1.394-.809c-.046-.086-.108-.163-.162-.244l-.1-.828a5.022,5.022,0,0,0,.065-.589c0-.411.326-.47.6-.517.315-.055.444.2.494.472.028.154.018.316.031.474.02.248.128.426.405.4a.4.4,0,0,0,.412-.411c.017-.395.077-.788.078-1.183q.013-3.385,0-6.769a3.4,3.4,0,0,1,.159-1.165l-.008,0,.145-.123.447-.018.12.029.159.228.077.111q.03.125.059.25a.069.069,0,0,0,0,.094Q1695.54,1004.76,1695.539,1004.885Z" transform="translate(-1629.845 -959.729)" fill="#eba634"/><path d="M1326.744,1156.615a3.83,3.83,0,0,1-.465,2.116,1.884,1.884,0,0,1-1.974.928,1.778,1.778,0,0,1-1.6-1.319,4.938,4.938,0,0,1,.058-3.213,1.965,1.965,0,0,1,2.086-1.342,1.869,1.869,0,0,1,1.766,1.646A3.805,3.805,0,0,1,1326.744,1156.615Zm-1.141.15a3.538,3.538,0,0,0-.144-1.113c-.134-.377-.339-.675-.792-.679a.838.838,0,0,0-.864.672,3.829,3.829,0,0,0-.027,2.166.825.825,0,0,0,.8.67.842.842,0,0,0,.854-.609A2.637,2.637,0,0,0,1325.6,1156.765Z" transform="translate(-1304.113 -1091.717)" fill="#1570b3"/><path d="M1520.652,1154.5a2.851,2.851,0,0,0,.288-.194,1.377,1.377,0,0,1,1.537-.5,1.549,1.549,0,0,1,.971,1.51c.047,1.248.031,2.5.041,3.747,0,.423-.322.428-.607.456-.323.032-.526-.076-.519-.462.016-.892.005-1.785.006-2.677,0-.1,0-.2,0-.3-.022-.648-.282-1.054-.665-1.04a1.215,1.215,0,0,0-.883,1.125c-.006.932-.011,1.864.007,2.8.007.393-.1.585-.538.57-.408-.015-.614-.117-.607-.581.023-1.487,0-2.974.012-4.461,0-.254-.118-.6.319-.638C1520.393,1153.825,1520.782,1153.816,1520.652,1154.5Z" transform="translate(-1477.811 -1091.672)" fill="#1570b3"/><path d="M1172.737,1156.347c0,.756-.018.779-.757.788-.516.007-1.033.039-1.548.019-.412-.016-.463.171-.394.511.146.725.64,1.017,1.485.853a2.433,2.433,0,0,1,.342-.1c.224-.008.437-.4.666-.041a.884.884,0,0,1-.308,1.042c-1.294.565-3.009.379-3.3-1.567a5.042,5.042,0,0,1,.25-2.864,1.785,1.785,0,0,1,3.436.234A3.794,3.794,0,0,1,1172.737,1156.347Zm-1.966-.158c.884,0,.884,0,.9-.311a.962.962,0,0,0-.8-1,.908.908,0,0,0-.862,1C1170.029,1156.537,1170.578,1156,1170.771,1156.189Z" transform="translate(-1168.789 -1091.739)" fill="#1570b3"/><path d="M2069.41,1157.165c0,.7,0,1.3,0,1.894,0,.2.04.438-.23.476-.241.034-.569.137-.685-.172-.142-.381-.255-.14-.4-.033a1.4,1.4,0,0,1-2.3-.909,1.75,1.75,0,0,1,1.843-2.248c.272-.015.689.172.662-.4s-.272-.873-.756-.874a1.985,1.985,0,0,0-.849.243c-.193.091-.423.419-.607.149a.774.774,0,0,1,.039-.95,2.175,2.175,0,0,1,1.987-.546,1.383,1.383,0,0,1,1.2,1.157A14.289,14.289,0,0,1,2069.41,1157.165Zm-1.522-.04c-.688,0-1.016.252-1.025.758-.008.416.165.694.605.717s.824-.486.85-1.022C2068.335,1157.211,2068.222,1157.051,2067.887,1157.125Z" transform="translate(-1958.778 -1091.698)" fill="#1570b3"/><path d="M1426.889,1157.17a3.079,3.079,0,0,0-.535.006c-.278.049-.742-.2-.782.264a.951.951,0,0,0,.655,1.079,1.843,1.843,0,0,0,1.221-.076c.189-.07.491-.348.6-.027a.81.81,0,0,1-.18.983,2.205,2.205,0,0,1-3.192-.837,4.639,4.639,0,0,1,.134-3.7,1.714,1.714,0,0,1,1.795-1.016,1.682,1.682,0,0,1,1.5,1.254,4.374,4.374,0,0,1,.19,1.645c0,.3-.17.425-.456.424-.318,0-.635,0-.953,0Zm-.589-.944c.91,0,.91,0,.9-.353a.906.906,0,0,0-.814-.985.994.994,0,0,0-.836,1.056C1425.613,1156.5,1426.1,1156.072,1426.3,1156.226Z" transform="translate(-1393.855 -1091.77)" fill="#1570b3"/><path d="M1423.948,1009.872c0,1.409.005,2.818,0,4.226a4.622,4.622,0,0,1-.1.942c-.045.206-.145.45-.419.43a.638.638,0,0,1-.646-.43,2.45,2.45,0,0,1-.088-.644q-.007-4.256,0-8.512c0-.217.042-.434.048-.652.011-.41.185-.742.61-.726.383.015.546.342.551.724.014,1.071.034,2.142.047,3.213C1423.953,1008.92,1423.948,1009.4,1423.948,1009.872Z" transform="translate(-1392.382 -960.243)" fill="#eba634"/><path d="M1643.209,1153.828a.073.073,0,0,0,.08-.047.228.228,0,0,0,.242-.093l.365-.034.83.127.258.146a.227.227,0,0,0,.211.133h0l.117.128-.006-.007.12.151a.071.071,0,0,0,.039.081l.086.132-.006-.005.338,1.315.018.659-.13.39.013-.016-.155.129-.187.012c-.533-.014-1.067-.041-1.6-.036-.225,0-.533-.126-.659.114a.9.9,0,0,0,.124.85,1.021,1.021,0,0,0,1.125.482,3.667,3.667,0,0,0,.851-.25c.309-.13.377-.01.406.273a.763.763,0,0,1-.6.937,2.946,2.946,0,0,1-2.25-.165l-.1-.068-.147-.17a.049.049,0,0,0-.044-.055l-.1-.1-.015-.015-.093-.135,0,0a.239.239,0,0,0-.113-.237l-.128-.353a7.887,7.887,0,0,1-.017-2.743.058.058,0,0,0,.025-.082l.238-.623-.006.005.091-.137a.231.231,0,0,0,.153-.193l.119-.154-.007.007.127-.125-.008.006.149-.12a.079.079,0,0,0,.085-.034Zm.741,2.277c.248-.218.787.3.821-.359a.874.874,0,0,0-.789-1,.938.938,0,0,0-.84.972C1643.157,1156.386,1643.7,1155.9,1643.95,1156.105Z" transform="translate(-1585.528 -1091.609)" fill="#1570b3"/><path d="M1541.258,1044.118c-.134.329-.266.659-.4.988a.458.458,0,0,1-.566.316.532.532,0,0,1-.4-.527,2.222,2.222,0,0,1,.224-1.035c.159-.34.207-.643-.25-.814a.9.9,0,0,1-.346-.312,3.36,3.36,0,0,1-.014-3.485,1.357,1.357,0,0,1,2.453.265,3.4,3.4,0,0,1,.046,2.7c-.119.356-.252.707-.379,1.061A1.94,1.94,0,0,0,1541.258,1044.118Zm-.105-3.2c-.075-.294-.1-.682-.538-.7-.414-.016-.517.335-.514.659,0,.359.087.775.541.776C1541.034,1041.658,1541.077,1041.267,1541.152,1040.92Z" transform="translate(-1494.845 -990.26)" fill="#eba634"/><path d="M1989.809,1009.883q0,2.144,0,4.287a1.648,1.648,0,0,1-.019.474c-.1.323-.218.681-.658.636-.4-.04-.508-.375-.52-.695-.03-.793-.019-1.588-.02-2.382q0-3.245.005-6.491a6.545,6.545,0,0,1,.076-.886.534.534,0,0,1,.5-.508c.313-.026.441.213.555.455a1.6,1.6,0,0,1,.082.7Q1989.812,1007.68,1989.809,1009.883Z" transform="translate(-1890.815 -960.076)" fill="#eba634"/><path d="M1375.7,1158.33c.277-1.176.526-2.252.785-3.325.064-.266.109-.534.5-.546.633-.02.751.078.6.7-.361,1.483-.757,2.958-1.1,4.445-.123.533-.455.55-.881.55s-.76-.036-.883-.563c-.341-1.466-.734-2.919-1.087-4.383-.059-.244-.34-.59.161-.724.556-.148.87.012.993.521.2.848.387,1.7.587,2.55A1.48,1.48,0,0,0,1375.7,1158.33Z" transform="translate(-1349.06 -1092.295)" fill="#1570b3"/><path d="M1694.76,1154.034a.261.261,0,0,1,.017-.07l.6-.018.217.156c.04.158-.069.343.076.49,1.216-1.037,1.773-1.011,2.563.106l.111.348a39.24,39.24,0,0,1-.017,4.52l.013-.017-.463.094-.473-.067-.118-.125a.2.2,0,0,0-.012-.112c.011-.61.047-1.22.027-1.828a5,5,0,0,0-.118-1.808c-.034-.385-.282-.631-.625-.529a1.066,1.066,0,0,0-.807,1.052q-.017,1.427,0,2.853c0,.292-.04.513-.374.562-.194-.1-.437.039-.618-.125.011-.149.051-.3-.1-.415l-.049-.25.045.011c.13-.1.121-.239.12-.378Q1694.769,1156.259,1694.76,1154.034Z" transform="translate(-1631.888 -1091.769)" fill="#0f6fb6"/><path d="M1438.972,824.429c.257,0,.229.226.326.425.143-.758,1.04-.922,1.193-1.659a.28.28,0,0,1,.343-.241.441.441,0,0,0,.461-.384c-.049-.71.449-.473.793-.513-.924,1.134-1.988,2.148-2.869,3.32a55.868,55.868,0,0,0-5.507,9.35c-.2.422-.4.847-.64,1.344-.154-.33.024-.527.1-.724a58.778,58.778,0,0,1,4.578-9.841,22.75,22.75,0,0,1,1.9-2.791,3.1,3.1,0,0,1-.613,1.318c-.07.1-.046.261-.066.395-.12.018-.236.047-.211.2.006.037.085.1.107.09C1439.008,824.669,1438.957,824.535,1438.972,824.429Z" transform="translate(-1401.476 -799.54)" fill="#1570b3"/><path d="M1724.846,1014.662a8.346,8.346,0,0,1-.049-1.662c-.008-2.641,0-5.281-.006-7.922a1.166,1.166,0,0,1,.491-1.137l.238.01.237.125.042.118.075.122-.005,0c.077.27-.014.568.139.824q0,4.474-.006,8.947a.4.4,0,0,0-.068.357.123.123,0,0,0-.063.093.117.117,0,0,0-.093.142C1725.458,1015.35,1725.153,1014.9,1724.846,1014.662Z" transform="translate(-1658.458 -959.744)" fill="#eba634"/><path d="M1743.105,1143.091l.242.108a2.685,2.685,0,0,1,.024.294c-.01.548-.19,1.147.781,1.06.439-.04.206.5.252.773.043.261-.089.434-.371.386-.64-.109-.713.246-.664.749.027.273-.019.554.007.827.045.477-.153.985.166,1.43l-.005.005.088.134.027.031c.085.1.176.169.3.058a.1.1,0,0,0,.108-.021l.352.011-.005-.008c.017,1.308-.328,1.561-1.553,1.141a.441.441,0,0,0-.057-.012l-.013.053.017-.052a2.235,2.235,0,0,1-.525-1.585c.019-.711-.035-1.425.014-2.133.033-.489-.126-.69-.6-.662a.109.109,0,0,0-.055-.092l.077-1.056-.006.015c.483.044.659-.179.58-.648a5.165,5.165,0,0,1-.033-.58.132.132,0,0,0,.031-.1A2.5,2.5,0,0,1,1743.105,1143.091Z" transform="translate(-1673.303 -1082.305)" fill="#1570b3"/><path d="M1479.7,1154.339a1.424,1.424,0,0,0,.179-.161c.285-.4.653-.756,1.133-.423.407.283.151.8.162,1.218,0,.155-.14.153-.267.152a.972.972,0,0,0-1.106,1.1c-.016.874-.029,1.749,0,2.622.015.452-.164.586-.587.6-.454.018-.589-.172-.585-.6.016-1.43,0-2.861.019-4.291,0-.278-.193-.682.284-.791C1479.355,1153.674,1479.671,1153.8,1479.7,1154.339Z" transform="translate(-1441.637 -1091.581)" fill="#1570b3"/><path d="M1693.987,1004.082a1.568,1.568,0,0,1,.335,1.107c-.011,1.327,0,2.654-.007,3.981a1.605,1.605,0,0,1-.29,1.234c-.207.219.065.347.139.508.06.13.13.266.051.393-.12.192-.226.031-.336-.037-.066-.041-.16-.076-.191.031a.278.278,0,0,0,.034.216c.14.188.71.056.477.476-.2.36-.64.129-.98.1a.07.07,0,0,0-.063-.068c.017-.106.034-.212.051-.317.166-.142.086-.317.065-.484l.069-.235c.108-.2.509-.385.022-.6l-.246-.494q-.021-2.255-.043-4.509.025-.412.05-.823A.741.741,0,0,1,1693.987,1004.082Z" transform="translate(-1630.533 -959.863)" fill="#eba634"/><path d="M1876.548,1154.526c.029-.051.056-.1.087-.151.259-.412.589-.779,1.107-.512.474.244.175.749.223,1.135.021.172-.078.273-.3.266a.985.985,0,0,0-1.095,1.043c-.013.892-.02,1.785,0,2.676.012.443-.161.579-.591.592-.469.013-.569-.189-.565-.6.014-1.447-.005-2.9.005-4.342,0-.283-.157-.678.348-.742.453-.057.684.134.6.688Z" transform="translate(-1791.125 -1091.712)" fill="#1570b3"/><path d="M2026.182,1154.431a2.453,2.453,0,0,0,.279-.228c.277-.366.618-.733,1.089-.469s.168.794.216,1.2c.017.141-.09.2-.229.21-.87.083-1.171.413-1.176,1.288,0,.814-.015,1.629,0,2.443.009.375-.046.6-.506.593s-.625-.133-.615-.622c.033-1.47,0-2.94.017-4.41,0-.26-.158-.64.343-.67C2025.991,1153.747,2026.309,1153.79,2026.182,1154.431Z" transform="translate(-1923.097 -1091.6)" fill="#1570b3"/><path d="M1596.388,639.582c.34.3.231.641.274.936.032.219.052.48.327.491s.226-.277.274-.451c.127-.465,0-.986.28-1.424.061.022.123.03.126.048a4.685,4.685,0,0,1-.347,3.167c-.163.292-.432.563-.761.406-.391-.185-.454.049-.61.278-.183.268-.353.639-.766.526-.368-.1-.463-.457-.533-.793a4.24,4.24,0,0,1,.121-2.287c.052-.151.1-.4.342-.314.177.067.088.273.069.427a4.453,4.453,0,0,0-.034.533c0,.234-.035.528.27.582.282.05.4-.215.5-.425A7.038,7.038,0,0,0,1596.388,639.582Z" transform="translate(-1543.755 -638.43)" fill="#1570b3"/><path d="M1853.383,723.667a2.427,2.427,0,0,1-.511,1.542.681.681,0,0,1-1.153-.03,3.059,3.059,0,0,1-.045-3.149.726.726,0,0,1,1.305.042A2.821,2.821,0,0,1,1853.383,723.667Z" transform="translate(-1769.859 -711.103)" fill="#1570b3"/><path d="M1877.017,703.781a2.391,2.391,0,0,1,.43-1.578.685.685,0,0,1,1.193-.055,2.882,2.882,0,0,1-.028,3.28.667.667,0,0,1-1.116-.031A2.288,2.288,0,0,1,1877.017,703.781Z" transform="translate(-1792.543 -693.65)" fill="#1570b3"/><path d="M1598,675.865c.047.688-.063,1.141-.7,1.416-.886.381-1.735.851-2.59,1.3-.306.162-.378.076-.371-.232a.921.921,0,0,1,.509-.922C1595.871,676.931,1596.89,676.416,1598,675.865Z" transform="translate(-1543.566 -670.783)" fill="#1570b3"/><path d="M1206.7,1085.574a.874.874,0,0,1,.413-.8c.32-.194.515.056.706.25s.284.1.425-.06a.5.5,0,0,1,.816-.011,1.045,1.045,0,0,1,.026,1.313.48.48,0,0,1-.808.01c-.158-.167-.3-.253-.482-.038a.561.561,0,0,1-.739.174A1.018,1.018,0,0,1,1206.7,1085.574Z" transform="translate(-1202.149 -1030.875)" fill="#eba634"/><path d="M1739.383,672.1c-.4.047-.612.486-1.031.492.517-.442,1.163-.759,1.413-1.483a3.211,3.211,0,0,1-.261,1.739c-.144.4-.094.533.355.5a6.8,6.8,0,0,0,4.854-2.652,7.586,7.586,0,0,0,.584-1.017,1.519,1.519,0,0,1-.138.972c-.475-.131-.432.368-.577.555a1.983,1.983,0,0,1-1.024.877c-.3.086-.8.338-.208.781a.23.23,0,0,1,0,.367c-.136.111-.271.026-.346-.1-.269-.459-.578-.343-.942-.114a5.019,5.019,0,0,1-2.651.428c-.37.014-.291-.336-.131-.52a.739.739,0,0,0,.1-.82l.027-.049Z" transform="translate(-1670.413 -665.335)" fill="#1570b3"/><path d="M1639.328,683.409c.006-.273-.117-.257-.28-.119a10.762,10.762,0,0,1-3.536,1.635c-1.34.489-2.745.67-4.109,1.037a19.891,19.891,0,0,0-2.175.514.208.208,0,0,1-.254-.1,23.847,23.847,0,0,1,4.423-1.079,18.026,18.026,0,0,0,4.957-1.739,5.794,5.794,0,0,0,1.354-1.185C1639.446,682.671,1639.587,683.111,1639.328,683.409Z" transform="translate(-1574.075 -676.514)" fill="#1570b3"/><path d="M1221.3,1173.758a2.489,2.489,0,0,0,.414,0c.6-.1.752.2.721.733-.018.311-.107.492-.44.488-.494-.005-.987-.007-1.48-.015-.45-.008-.338-.356-.343-.608s-.087-.594.358-.594Z" transform="translate(-1213.999 -1109.295)" fill="#1570b3"/><path d="M1717,730.891a11.712,11.712,0,0,1,1.692-.265,51.118,51.118,0,0,0,7.749-.689,5.775,5.775,0,0,1,.888-.035,16.774,16.774,0,0,1-3.861.634c-2.016.162-4.037.265-6.056.388A2.863,2.863,0,0,1,1717,730.891Z" transform="translate(-1651.605 -718.378)" fill="#1570b3"/><path d="M1534.9,766.986c.087-.508.541-.678.877-.959.842-.706,1.957-1.045,2.645-1.958.267-.354.721-.157,1.072-.386a17.281,17.281,0,0,1,1.483-.894,1.53,1.53,0,0,1,1.17-.242A36.931,36.931,0,0,0,1534.9,766.986Z" transform="translate(-1491.216 -747.092)" fill="#1570b3"/><path d="M1882.547,636.533c-.886-.334-1.25.392-1.72.869-.183.186-.316.4-.619.346a9.414,9.414,0,0,0,3.157-4.508A6.092,6.092,0,0,1,1882.547,636.533Zm.269-1.436c-.062.221-.374.292-.292.548.01.031.154.059.2.031C1882.982,635.536,1882.937,635.32,1882.816,635.1Zm-.44.824a.143.143,0,0,0-.015.05c0,.006.027.01.042.016a.158.158,0,0,0,.015-.05C1882.417,635.931,1882.39,635.926,1882.375,635.921Z" transform="translate(-1795.356 -633.241)" fill="#1570b3"/><path d="M1793.193,681.839a1.334,1.334,0,0,1-1.036.55c-.8.132-1.621.167-2.418.342a6.008,6.008,0,0,1-1.7.188c-.356-.024-.442-.182-.319-.512a12.942,12.942,0,0,1,.824-2.073,4.944,4.944,0,0,1-.468,1.754c-.193.6-.1.753.544.654a32.935,32.935,0,0,0,4.286-.87A1.638,1.638,0,0,1,1793.193,681.839Z" transform="translate(-1713.847 -674.719)" fill="#1570b3"/><path d="M1512.094,755.77c.032.61-.578.63-.883.906a18.1,18.1,0,0,0-3.8,4.081,1.537,1.537,0,0,1-1.006.747A25.765,25.765,0,0,1,1512.094,755.77Z" transform="translate(-1466.119 -741.162)" fill="#1570b3"/><path d="M1823.892,688.782c.295-.5.894-.392,1.314-.662.874-.56,1.86-.894,2.709-1.55.679-.525,1.483-.91,2.131-1.511a6.135,6.135,0,0,1,1.151-.983,9.183,9.183,0,0,1-2.42,2.229A18.2,18.2,0,0,1,1823.892,688.782Z" transform="translate(-1745.754 -678.014)" fill="#1570b3"/><path d="M1524.1,1004.46c-.043.427-.143.871-.628.874s-.647-.445-.626-.859c.019-.379.064-.851.614-.852S1524.015,1004.081,1524.1,1004.46Z" transform="translate(-1480.595 -959.464)" fill="#eba634"/><path d="M1956.094,1004.586c-.034.281-.117.695-.586.7-.488,0-.669-.4-.652-.825.016-.389.093-.821.61-.874C1955.861,1003.546,1956.1,1003.912,1956.094,1004.586Z" transform="translate(-1861.103 -959.43)" fill="#eba634"/><path d="M1955.973,1022.242a.731.731,0,0,1-.611.684c-.286.081-.66-.466-.662-.911,0-.466.3-.837.683-.79C1955.9,1021.287,1955.953,1021.686,1955.973,1022.242Z" transform="translate(-1860.967 -974.965)" fill="#eba634"/><path d="M2117.093,1004.737c.085-.375.073-.841.608-.86s.606.412.623.817c.021.5-.306.95-.652.894C2117.207,1005.514,2117.163,1005.114,2117.093,1004.737Z" transform="translate(-2003.999 -959.688)" fill="#eba634"/><path d="M1605.228,1004.1c.018-.259.024-.684.593-.683.608,0,.591.489.617.882.028.411-.162.792-.612.785C1605.343,1005.071,1605.2,1004.681,1605.228,1004.1Z" transform="translate(-1553.157 -959.279)" fill="#eba634"/><path d="M1786.614,1021.656c-.029.4-.081.855-.574.889-.519.035-.609-.443-.648-.831-.047-.467.312-.941.647-.891C1786.5,1020.891,1786.622,1021.236,1786.614,1021.656Z" transform="translate(-1711.84 -974.611)" fill="#eba634"/><path d="M1448.521,1004.968c.081-.284.065-.762.621-.746s.565.483.59.866c.027.425-.114.848-.621.833S1448.515,1005.486,1448.521,1004.968Z" transform="translate(-1415.135 -959.992)" fill="#eba634"/><path d="M1462.414,1005.089c-.051.391-.113.775-.6.827-.367.04-.667-.417-.635-.963.022-.368.112-.746.575-.74C1462.32,1004.221,1462.359,1004.675,1462.414,1005.089Z" transform="translate(-1426.287 -959.985)" fill="#eba634"/><path d="M2156.582,1086.042c-.032-.4.1-.8.614-.762.5.034.58.487.573.9s-.167.81-.617.8C2156.65,1086.958,2156.566,1086.524,2156.582,1086.042Z" transform="translate(-2038.776 -1031.385)" fill="#eba634"/><path d="M1786.91,1004.388c-.073.373-.033.815-.578.82s-.612-.439-.624-.827.074-.846.605-.843C1786.868,1003.54,1786.823,1004.03,1786.91,1004.388Z" transform="translate(-1712.122 -959.39)" fill="#eba634"/><path d="M1607.921,745.752a.3.3,0,0,1,.226-.251c1.239-.3,2.389-.865,3.671-1.071.989-.159,1.987-.119,2.965-.3a9.815,9.815,0,0,1-2.2.387A36.089,36.089,0,0,0,1607.921,745.752Z" transform="translate(-1555.532 -730.907)" fill="#1570b3"/><path d="M1497.514,1084.77c.294-.307.591-.463.934-.054a1.079,1.079,0,0,1-.009,1.255c-.323.424-.6.279-.9-.011A2.959,2.959,0,0,1,1497.514,1084.77Z" transform="translate(-1458.246 -1030.672)" fill="#eba634"/><path d="M1171.074,1006a.926.926,0,0,1-.483-1.194c.063-.252.152-.49.449-.57s.421.146.582.31a1.758,1.758,0,0,1,.049,1.08v0l-.284.339-.2.053A.1.1,0,0,0,1171.074,1006Z" transform="translate(-1170.296 -959.988)" fill="#eba634"/><path d="M1487.134,1086.291c-.234.171-.49.43-.755.111a1.068,1.068,0,0,1-.15-1.254.51.51,0,0,1,.827-.172c-.011.077.027.106.1.1l.013.007A3.568,3.568,0,0,1,1487.134,1086.291Z" transform="translate(-1448.225 -1030.994)" fill="#eba634"/><path d="M1184.238,1005.766a.739.739,0,0,1-.88-.465,2.2,2.2,0,0,1,.213-1.151.1.1,0,0,0,.092-.045l.232-.123h.127c.518.3.539.794.515,1.306l-.036.146-.109.1-.01.007C1184.248,1005.562,1184.262,1005.676,1184.238,1005.766Z" transform="translate(-1181.577 -959.78)" fill="#eba634"/><path d="M1490.7,804.021a.874.874,0,0,1-.345.882c-.062.046-.154.115-.153.172.015.642-.574.838-.9,1.226-.155.186-.349.321-.112.589.137.155-.035.28-.106.433-.246-.108-.151-.491-.457-.494A24.717,24.717,0,0,1,1490.7,804.021Z" transform="translate(-1450.459 -783.66)" fill="#1570b3"/><path d="M1508.763,803.415a.723.723,0,0,1,.48-.921c.757-.346,1.209-1.074,1.946-1.437a1.568,1.568,0,0,1,.533-.178Z" transform="translate(-1468.154 -780.893)" fill="#1570b3"/><path d="M1568.795,729.712a3.776,3.776,0,0,1-1.574,1,2.678,2.678,0,0,0-1.056.761,1.208,1.208,0,0,1-1.072.422A17.582,17.582,0,0,1,1568.795,729.712Z" transform="translate(-1517.81 -718.21)" fill="#1570b3"/><path d="M1712.5,692.178a4.1,4.1,0,0,1-2.169.922c-.311.046-.623.1-.936.118-.335.019-.49-.145-.219-.413s.276-.711.637-.905c-.3,1.132-.3,1.12.922.935A10.175,10.175,0,0,0,1712.5,692.178Z" transform="translate(-1644.589 -684.906)" fill="#1570b3"/><path d="M1841.859,676.029c-.235.6-.862.639-1.324.9a7.784,7.784,0,0,1-2.893.992A29.5,29.5,0,0,0,1841.859,676.029Z" transform="translate(-1757.865 -670.928)" fill="#1570b3"/><path d="M1666.927,739.635a13.13,13.13,0,0,1,4.021-.6.76.76,0,0,1,.269.089C1669.793,739.339,1668.366,739.535,1666.927,739.635Z" transform="translate(-1607.503 -726.425)" fill="#1570b3"/><path d="M1604.594,716.183c-.336.454-.905.478-1.362.648a7.464,7.464,0,0,1-1.8.657A14.747,14.747,0,0,1,1604.594,716.183Z" transform="translate(-1549.816 -706.294)" fill="#1570b3"/><path d="M1694.767,1155.5q.01,2.225.018,4.451c0,.138.01.28-.12.377l-.044-4.18q.017-.308.034-.616A.769.769,0,0,1,1694.767,1155.5Z" transform="translate(-1631.896 -1093.232)" fill="#1570b3"/><path d="M1805.261,723.957c.489-.217.982-.424,1.462-.658.179-.087.317-.152.44.056A6.181,6.181,0,0,1,1805.261,723.957Z" transform="translate(-1729.344 -712.489)" fill="#1570b3"/><path d="M1885.122,676.871c.154-.4.093-.966.748-.987A2.251,2.251,0,0,1,1885.122,676.871Z" transform="translate(-1799.684 -670.8)" fill="#1570b3"/><path d="M1556.093,748.08c-.01.112.013.3-.1.3-.462.007-.708.426-1.107.539A3.953,3.953,0,0,1,1556.093,748.08Z" transform="translate(-1508.817 -734.388)" fill="#1570b3"/><path d="M1595.969,758.426c.325-.514.905-.42,1.379-.581A8.6,8.6,0,0,1,1595.969,758.426Z" transform="translate(-1545.005 -742.989)" fill="#1570b3"/><path d="M1705.128,738.1a1.351,1.351,0,0,1,1.151-.127A2.426,2.426,0,0,1,1705.128,738.1Z" transform="translate(-1641.15 -725.425)" fill="#1570b3"/><path d="M1891.89,667.994a1.457,1.457,0,0,1,.605-.991A2.373,2.373,0,0,1,1891.89,667.994Z" transform="translate(-1805.645 -662.978)" fill="#1570b3"/><path d="M1873.638,672.5c-.094.3-.345.365-.606.419A1.246,1.246,0,0,1,1873.638,672.5Z" transform="translate(-1789.036 -667.818)" fill="#1570b3"/><path d="M1897.127,662.452a.569.569,0,0,1,.24-.537A.608.608,0,0,1,1897.127,662.452Z" transform="translate(-1810.256 -658.496)" fill="#1570b3"/><path d="M1597.584,727.312c-.062.282-.307.167-.475.221A.635.635,0,0,1,1597.584,727.312Z" transform="translate(-1546.009 -716.097)" fill="#1570b3"/><path d="M1823.365,723.917h-.006C1823.358,723.952,1823.355,724.009,1823.365,723.917Z" transform="translate(-1745.284 -713.105)" fill="#1570b3"/><path d="M1878.554,671.907l.019.006Z" transform="translate(-1793.899 -667.297)" fill="#1570b3"/><path d="M1694.97,1198.414c-.163-.108-.116-.265-.1-.415C1695.021,1198.11,1694.981,1198.266,1694.97,1198.414Z" transform="translate(-1632.098 -1130.667)" fill="#1570b3"/><path d="M1481.413,842c-.016.106.035.24-.1.293-.022.009-.1-.053-.107-.09-.026-.158.091-.186.211-.2Z" transform="translate(-1443.916 -817.107)" fill="#0f6fb6"/><path d="M1747,689.635l.027-.049-.027.05Z" transform="translate(-1678.03 -682.868)" fill="#0f6fb6"/><path d="M1899.823,648.807c.121.223.166.439-.088.579-.05.028-.194,0-.2-.031C1899.449,649.1,1899.761,649.027,1899.823,648.807Z" transform="translate(-1812.364 -646.951)" fill="#0f6fb6"/><path d="M1898.274,655.722c.015.005.041.01.042.015a.162.162,0,0,1-.016.05c-.015-.005-.041-.01-.042-.016A.149.149,0,0,1,1898.274,655.722Z" transform="translate(-1811.255 -653.042)" fill="#0f6fb6"/><path d="M2028.444,1075.251c.151-.16.293-.344.548-.171a.749.749,0,0,1,.3.731.523.523,0,0,1-.313.528.4.4,0,0,1-.575-.329,1.429,1.429,0,0,1,.045-.765Z" transform="translate(-1925.854 -1022.341)" fill="#eba634"/></svg>