<svg xmlns="http://www.w3.org/2000/svg" width="136.592" height="69.78" viewBox="0 0 136.592 69.78"><path d="M1820.641-188a3.139,3.139,0,0,1,2.39,2.389,3,3,0,0,1-2.12,3.59,3.048,3.048,0,0,1-3.713-1.828,3.05,3.05,0,0,1,1.5-3.81c.226-.12.5-.136.686-.341Z" transform="translate(-1686.538 188)" fill="#0ab0a2"/><path d="M1076.147-188c.055.131.189.1.289.143a2.666,2.666,0,0,1,1.6,3.857,4.646,4.646,0,0,1-.494.826,2.543,2.543,0,0,1-3.614.871,2.985,2.985,0,0,1-1.218-3.847,3.646,3.646,0,0,1,2.179-1.85Z" transform="translate(-1026.874 188)" fill="#0ab0a2"/><path d="M945.34,366.543c0-.225-.042-.465.284-.521.66-.115.8-.617.857-1.176,0-.038,0-.076,0-.114.038-.982.041-.938-.907-.868a1.749,1.749,0,0,1-2.092-1.641c-.075-.913.059-1.817-.029-2.722-.029-.3.142-.348.384-.352.269,0,.482,0,.473.377-.02.778-.011,1.557,0,2.336a2.677,2.677,0,0,0,.071.618.971.971,0,0,0,1.127.877,1.008,1.008,0,0,0,.959-1.018c.044-.567.021-1.139.026-1.708,0-.38.013-.76,0-1.14-.011-.294.148-.349.392-.341s.484-.007.482.328c-.014,1.8.052,3.607-.03,5.41a1.792,1.792,0,0,1-1.313,1.655Z" transform="translate(-912.6 -296.763)" fill="#ababad"/><path d="M700.519,195.06q-12.2,0-24.394-.009c-.492,0-.749.045-.827.643a2.408,2.408,0,0,1-1.925,2.2c-.142.034-.387.191-.445-.033s-.179-.573.124-.722a1.69,1.69,0,0,0,.837-1.737q.033-2.85-.007-5.7c-.007-.467.141-.568.575-.555,1.841.057,3.688-.109,5.523.084a2.949,2.949,0,0,1,2.8,3.094c.014.472-.147,1.1.093,1.374.281.324.926.1,1.412.105,1.178.016,1.178.005,1.178-1.181,0-.988.018-1.976-.009-2.964-.011-.4.107-.521.509-.514.93.017.93,0,.93.93,0,1.083.02,2.166-.01,3.249-.011.413.124.5.512.494.968-.027,1.939-.036,2.906,0,.473.019.555-.158.551-.581-.018-2.242.025-4.485-.028-6.725-.017-.718.387-.552.781-.578.432-.028.674,0,.663.58-.042,2.241-.008,4.483-.026,6.725,0,.415.062.583.542.58q5.186-.036,10.373,0c.475,0,.585-.159.546-.582a6.788,6.788,0,0,1,0-.968,3.127,3.127,0,0,1,3.148-3.1c1.918-.039,3.838.006,5.756-.02.577-.008.387.37.414.651.031.323.036.572-.445.565-1.785-.028-3.572-.013-5.357-.011a1.849,1.849,0,0,0-2.081,2.059c-.005,1.4-.005,1.4,1.41,1.4,4.028,0,8.056-.016,12.083.017.608.005.715-.182.7-.728-.041-1.138,0-2.28-.019-3.419-.006-.369.056-.543.489-.535.954.018.955-.007.955.967,0,1.064.016,2.128-.009,3.192-.009.382.07.534.49.517.854-.034,1.71-.032,2.564,0,.4.014.507-.1.5-.5-.02-2.261,0-4.522-.02-6.782,0-.456.085-.687.579-.594a.625.625,0,0,0,.114,0c.793,0,.793,0,.793.772,0,2.546-.017,5.092.013,7.637.007.552-.1.722-.7.721Q712.8,195.04,700.519,195.06Zm-22.235-1.247c.455,0,.911.016,1.365,0,.542-.025,1.319.25,1.564-.107.276-.4.115-1.128.085-1.709a1.709,1.709,0,0,0-1.664-1.629c-1.288-.027-2.577,0-3.866-.014-.284,0-.4.07-.4.379.019.909.022,1.82,0,2.729-.007.33.144.363.409.359C676.616,193.805,677.45,193.812,678.284,193.813Z" transform="translate(-672.854 -143.289)" fill="#069f90"/><path d="M1403.549,220.121c-.95,0-1.9-.013-2.848.007-.333.007-.476-.064-.463-.435.027-.778-.01-1.557.013-2.335a3.09,3.09,0,0,1,3.1-3.129c1.537-.04,3.076,0,4.614-.016.315,0,.431.086.429.417-.012,1.937.027,3.874-.013,5.81a2.663,2.663,0,0,1-2.183,2.8c-.154.029-.417.2-.44-.124-.016-.226-.153-.5.216-.672a2.007,2.007,0,0,0,.931-2.131c-.063-.262-.247-.19-.4-.191C1405.524,220.118,1404.536,220.121,1403.549,220.121Zm.744-1.248c.739,0,1.479-.015,2.217.007.328.009.422-.1.415-.422-.018-.871-.013-1.744,0-2.615.006-.3-.06-.441-.4-.435-1.042.02-2.085-.009-3.127.015a1.744,1.744,0,0,0-1.7,1.713c-.017.454.014.91-.011,1.364-.017.308.1.385.391.378C1402.815,218.862,1403.554,218.873,1404.293,218.873Z" transform="translate(-1317.301 -168.35)" fill="#08a091"/><path d="M1215.114,220.1c-1.195,0-2.39-.018-3.584.01-.412.01-.511-.124-.5-.514.03-.757,0-1.517.011-2.275a3.031,3.031,0,0,1,2.981-3.105c1.591-.058,3.185-.009,4.778-.023.3,0,.39.107.388.4-.01,1.707-.014,3.413,0,5.12,0,.351-.145.4-.44.395C1217.541,220.094,1216.328,220.1,1215.114,220.1Zm-.008-1.248c.757,0,1.515-.013,2.272.006.3.008.388-.089.382-.386-.018-.909-.015-1.818,0-2.727,0-.272-.084-.359-.356-.356-1.1.013-2.2-.014-3.3.016a1.665,1.665,0,0,0-1.606,1.606c-.023.472.018.949-.016,1.42-.028.377.135.437.46.428C1213.667,218.84,1214.387,218.854,1215.107,218.854Z" transform="translate(-1149.67 -168.331)" fill="#069f90"/><path d="M1687.051-163.245a2.787,2.787,0,0,1,2.791-2.785,2.791,2.791,0,0,1,2.77,2.808,2.819,2.819,0,0,1-2.761,2.769A2.826,2.826,0,0,1,1687.051-163.245Z" transform="translate(-1571.413 168.535)" fill="#039e8f"/><path d="M1755.8-178.12a2.759,2.759,0,0,1,2.762,2.744,2.82,2.82,0,0,1-2.776,2.812,2.78,2.78,0,0,1-2.786-2.787A2.786,2.786,0,0,1,1755.8-178.12Z" transform="translate(-1629.842 179.247)" fill="#0ab0a2"/><path d="M1144.29-169.963a2.743,2.743,0,0,1-2.777-2.78,2.817,2.817,0,0,1,2.821-2.764,2.746,2.746,0,0,1,2.73,2.77A2.728,2.728,0,0,1,1144.29-169.963Z" transform="translate(-1088.077 176.932)" fill="#0ab0a2"/><path d="M1213-161.359a2.744,2.744,0,0,1-2.811,2.743,2.773,2.773,0,0,1-2.756-2.755,2.77,2.77,0,0,1,2.793-2.772A2.758,2.758,0,0,1,1213-161.359Z" transform="translate(-1146.481 166.863)" fill="#029d8e"/><path d="M1074.973-98.458a2.654,2.654,0,0,1-2.679-2.668,2.883,2.883,0,0,1,2.735-2.694,2.755,2.755,0,0,1,2.683,2.707A2.631,2.631,0,0,1,1074.973-98.458Z" transform="translate(-1026.75 113.419)" fill="#65c3b6"/><path d="M1826.51-105.2a2.651,2.651,0,0,1,2.642,2.7,2.7,2.7,0,0,1-2.694,2.671,2.672,2.672,0,0,1-2.668-2.739A2.694,2.694,0,0,1,1826.51-105.2Z" transform="translate(-1692.561 114.645)" fill="#65c3b6"/><path d="M676.592,351.452l.845-1.693c.449-.9.925-1.787,1.337-2.7.238-.529.658-.374,1.018-.341s.212.39.214.6c.014,1.633,0,3.266.01,4.9,0,.344.021.629-.48.631-.481,0-.507-.243-.5-.609.012-1.286,0-2.572,0-3.876-.289.043-.3.269-.375.421-.6,1.2-1.194,2.415-1.79,3.623-.091.185-.157.4-.416.416-.291.012-.365-.228-.468-.428-.63-1.226-1.26-2.451-2.007-3.654,0,1.2-.011,2.4.006,3.6.005.37-.118.519-.491.5-.282-.014-.41-.111-.409-.408.007-1.785,0-3.57,0-5.355,0-.17-.016-.386.231-.37.347.022.751-.188.991.3.635,1.294,1.3,2.573,1.96,3.856C676.356,351.029,676.448,351.189,676.592,351.452Z" transform="translate(-673.06 -285.705)" fill="#a9a9ab"/><path d="M1756.63-101.067a2.445,2.445,0,0,1,2.447,2.407,2.444,2.444,0,0,1-2.426,2.432,2.432,2.432,0,0,1-2.439-2.412A2.413,2.413,0,0,1,1756.63-101.067Z" transform="translate(-1630.916 110.979)" fill="#0bb0a3"/><path d="M1147.193-99.162a2.367,2.367,0,0,1,2.411,2.408,2.391,2.391,0,0,1-2.416,2.413,2.392,2.392,0,0,1-2.409-2.419A2.361,2.361,0,0,1,1147.193-99.162Z" transform="translate(-1090.969 109.291)" fill="#0ab0a2"/><path d="M1830.576-24.806a2.444,2.444,0,0,1-2.419-2.372,2.571,2.571,0,0,1,2.46-2.493,2.477,2.477,0,0,1,2.4,2.458A2.454,2.454,0,0,1,1830.576-24.806Z" transform="translate(-1696.43 47.723)" fill="#65c3b6"/><path d="M1077.144-25.4a2.482,2.482,0,0,1-2.421,2.395,2.485,2.485,0,0,1-2.449-2.43,2.57,2.57,0,0,1,2.476-2.432A2.439,2.439,0,0,1,1077.144-25.4Z" transform="translate(-1026.732 46.125)" fill="#65c3b6"/><path d="M1280.164-141.437a2.37,2.37,0,0,1-2.4,2.366,2.38,2.38,0,0,1-2.352-2.36,2.417,2.417,0,0,1,2.377-2.407A2.39,2.39,0,0,1,1280.164-141.437Z" transform="translate(-1206.712 148.873)" fill="#039e8f"/><path d="M1628.449-140.7a2.379,2.379,0,0,1-2.379-2.387,2.4,2.4,0,0,1,2.368-2.349,2.378,2.378,0,0,1,2.4,2.365A2.372,2.372,0,0,1,1628.449-140.7Z" transform="translate(-1517.385 150.287)" fill="#039e8f"/><path d="M1757.509-23.544a2.36,2.36,0,0,1-2.3-2.335,2.279,2.279,0,0,1,2.314-2.245,2.286,2.286,0,0,1,2.322,2.293A2.291,2.291,0,0,1,1757.509-23.544Z" transform="translate(-1631.795 46.353)" fill="#65c3b6"/><path d="M1154.56-24.406a2.268,2.268,0,0,1-2.315,2.29,2.318,2.318,0,0,1-2.265-2.3,2.333,2.333,0,0,1,2.235-2.335A2.348,2.348,0,0,1,1154.56-24.406Z" transform="translate(-1095.579 45.135)" fill="#65c3b6"/><path d="M1690.506-88.076a2.233,2.233,0,0,1,2.2,2.229,2.241,2.241,0,0,1-2.309,2.239,2.247,2.247,0,0,1-2.2-2.29A2.233,2.233,0,0,1,1690.506-88.076Z" transform="translate(-1572.429 99.47)" fill="#0bb0a3"/><path d="M1215.791-84.125A2.2,2.2,0,0,1,1218-86.387a2.232,2.232,0,0,1,2.265,2.217,2.245,2.245,0,0,1-2.219,2.27A2.227,2.227,0,0,1,1215.791-84.125Z" transform="translate(-1153.886 97.973)" fill="#0bb0a3"/><path d="M1294.793,217.962a24.433,24.433,0,0,1-.048,2.954,2.589,2.589,0,0,1-2.481,2.383c-.228.016-.488.112-.507-.307-.015-.325.014-.459.389-.494.678-.064,1.028-.5,1.119-1.29a26.981,26.981,0,0,0,.064-2.842c.011-1.213.023-2.427,0-3.641-.006-.387.091-.524.5-.517.955.018.956,0,.958.966C1294.795,215.972,1294.793,216.768,1294.793,217.962Z" transform="translate(-1221.188 -168.35)" fill="#039e8f"/><path d="M1360.363,217.568c0,1.024.046,2.051-.011,3.072a2.615,2.615,0,0,1-2.437,2.62c-.277.028-.544.1-.6-.353-.048-.418.165-.412.45-.444a1.109,1.109,0,0,0,.954-.786,3.948,3.948,0,0,0,.171-1.4c.006-1.841.021-3.681,0-5.521,0-.429.083-.6.558-.584.91.034.912,0,.913.894q0,1.252,0,2.5Z" transform="translate(-1279.27 -168.313)" fill="#08a091"/><path d="M1339.308,190.575c0,1.347-.018,2.694.011,4.04.009.429-.109.592-.535.526a1.513,1.513,0,0,0-.454,0c-.367.056-.436-.109-.434-.446q.019-4.1,0-8.194c0-.363.082-.531.468-.478a1.951,1.951,0,0,0,.511,0c.363-.046.444.12.441.455C1339.3,187.843,1339.308,189.209,1339.308,190.575Z" transform="translate(-1262.067 -143.368)" fill="#019d8e"/><path d="M1156.953,190.581c0,1.328-.019,2.657.011,3.985.01.426-.1.595-.53.524a1.3,1.3,0,0,0-.4,0c-.4.06-.505-.105-.5-.5q.026-4.014,0-8.028c0-.471.122-.665.6-.59a1.313,1.313,0,0,0,.4,0c.371-.057.437.121.433.453C1156.944,187.81,1156.953,189.2,1156.953,190.581Z" transform="translate(-1100.497 -143.318)" fill="#019d8e"/><path d="M1144.128,349.893c0,.872,0,1.744,0,2.615,0,.219.008.43-.307.42-.813-.024-1.628.052-2.44-.046a2.033,2.033,0,0,1-1.865-2.45c.087-1.615.812-2.233,2.446-2.244l.285,0c.953,0,.967,0,.978-.943,0-.333.088-.464.447-.473.4-.01.469.16.462.506C1144.116,348.149,1144.128,349.021,1144.128,349.893Zm-.9.68c0-.494,0-.987,0-1.48,0-.208-.027-.383-.3-.38-.512.007-1.027-.021-1.536.024a.912.912,0,0,0-.817.762,5.119,5.119,0,0,0-.068,1.755c.078.849.445,1.144,1.309,1.151a7.63,7.63,0,0,1,.853.007c.474.058.592-.157.561-.586S1143.233,350.991,1143.233,350.573Z" transform="translate(-1086.303 -285.796)" fill="#a9a9ab"/><path d="M1285.629,361.471c0,.608,0,1.216,0,1.824,0,.18.074.42-.157.5s-.547.161-.686-.056c-.169-.264-.3-.133-.462-.073a3.187,3.187,0,0,1-2.013.05,2.27,2.27,0,0,1-1.4-2.822,2.015,2.015,0,0,1,2.149-1.791c.721-.026,1.444.008,2.165-.012.339-.009.42.136.413.442C1285.618,360.179,1285.629,360.825,1285.629,361.471Zm-.9-.37c0-.417,0-.759,0-1.1,0-.174,0-.366-.243-.366a17.019,17.019,0,0,0-1.76.037.865.865,0,0,0-.727.717,4.318,4.318,0,0,0-.006,2.135c.172.653.551.829,1.49.8a1.136,1.136,0,0,0,1.168-.88A5.983,5.983,0,0,0,1284.725,361.1Z" transform="translate(-1211.521 -296.711)" fill="#ababad"/><path d="M1286.031-58.949a1.861,1.861,0,0,1-1.862-1.83,1.915,1.915,0,0,1,1.87-1.9,1.865,1.865,0,0,1,1.876,1.876A1.852,1.852,0,0,1,1286.031-58.949Z" transform="translate(-1214.468 76.972)" fill="#039e8f"/><path d="M1628.09-64.361a1.851,1.851,0,0,1,1.841,1.9,1.862,1.862,0,0,1-1.917,1.83,1.87,1.87,0,0,1-1.825-1.87A1.889,1.889,0,0,1,1628.09-64.361Z" transform="translate(-1517.491 78.458)" fill="#039e8f"/><path d="M1230.365-3.87a1.864,1.864,0,0,1-1.909-1.851,1.886,1.886,0,0,1,1.833-1.88,1.865,1.865,0,0,1,1.894,1.867A1.822,1.822,0,0,1,1230.365-3.87Z" transform="translate(-1165.107 28.17)" fill="#0bb0a3"/><path d="M1685.806-7.335a1.886,1.886,0,0,1-1.836,1.876,1.889,1.889,0,0,1-1.91-1.861,1.845,1.845,0,0,1,1.833-1.861A1.868,1.868,0,0,1,1685.806-7.335Z" transform="translate(-1566.991 29.57)" fill="#0bb0a3"/><path d="M1345.814-112.642a1.8,1.8,0,0,1-1.845,1.826,1.868,1.868,0,0,1-1.8-1.842,1.861,1.861,0,0,1,1.814-1.825A1.8,1.8,0,0,1,1345.814-112.642Z" transform="translate(-1265.857 122.866)" fill="#039e8f"/><path d="M1570.829-116.077a1.8,1.8,0,0,1,1.817,1.8,1.821,1.821,0,0,1-1.831,1.847,1.833,1.833,0,0,1-1.823-1.862A1.819,1.819,0,0,1,1570.829-116.077Z" transform="translate(-1466.815 124.278)" fill="#039e8f"/><path d="M1097.976,349.869c0-.855.013-1.71-.007-2.565-.008-.354.076-.51.47-.5,1.1.023,2.2.007,3.306.009.187,0,.407-.035.4.26,0,.266-.191.29-.4.29-.8,0-1.6.016-2.394-.007-.37-.01-.487.111-.494.486-.028,1.523-.04,1.523,1.5,1.525.133,0,.266,0,.4,0,.181,0,.284.071.281.269s-.11.26-.29.259c-.494,0-.988.012-1.482,0-.289-.009-.411.086-.4.39q.025.883,0,1.767c-.008.306.127.391.41.387.8-.011,1.6-.005,2.394,0,.2,0,.47-.047.464.266s-.278.252-.477.253c-1.064,0-2.128-.016-3.192.011-.417.01-.511-.15-.5-.53C1097.992,351.579,1097.975,350.724,1097.976,349.869Z" transform="translate(-1049.497 -285.824)" fill="#ababad"/><path d="M770.868,361.451c0-.645,0-1.289,0-1.934,0-.226.011-.426.318-.412a15.423,15.423,0,0,1,2.607.089,1.847,1.847,0,0,1,1.535,1.852c.021.777,0,1.555.015,2.332.008.326-.069.488-.438.477-.334-.01-.48-.112-.474-.463.015-.853.012-1.707,0-2.56a1.076,1.076,0,0,0-1.188-1.2c-1.483-.04-1.483-.04-1.483,1.417,0,.777-.01,1.555,0,2.332.006.336-.108.472-.459.479s-.454-.137-.444-.471C770.882,362.741,770.868,362.1,770.868,361.451Z" transform="translate(-759.687 -296.713)" fill="#a9a9ab"/><path d="M1431.979,361.478c0-.664,0-1.328,0-1.992,0-.24.038-.4.335-.4.739.014,1.484-.043,2.218.026a1.98,1.98,0,0,1,1.983,2.128c.031.72-.007,1.442.01,2.162.009.374-.187.43-.5.438-.333.009-.421-.13-.415-.44.016-.815.013-1.631,0-2.447-.012-.949-.409-1.331-1.362-1.338-1.371-.01-1.371-.01-1.371,1.352,0,.816-.012,1.632.006,2.447.007.325-.111.43-.429.427s-.5-.048-.483-.431C1432,362.769,1431.979,362.123,1431.979,361.478Z" transform="translate(-1345.417 -296.702)" fill="#ababad"/><path d="M1195.429,361.47c0,.626-.017,1.254.007,1.879.013.36-.086.522-.475.5a20.954,20.954,0,0,1-2.271-.079,1.877,1.877,0,0,1-1.7-1.889c-.032-.8.005-1.595-.017-2.391-.01-.366.184-.383.462-.391.31-.009.446.08.439.416-.017.873-.013,1.746,0,2.619a1.071,1.071,0,0,0,1.15,1.188c1.52.059,1.52.059,1.52-1.438,0-.759.012-1.519,0-2.278-.008-.357.1-.51.485-.512s.422.2.415.5C1195.42,360.217,1195.429,360.844,1195.429,361.47Z" transform="translate(-1131.894 -296.712)" fill="#a9a9ab"/><path d="M1567.582-30.338a1.682,1.682,0,0,1-1.742-1.647,1.714,1.714,0,0,1,1.7-1.765,1.763,1.763,0,0,1,1.729,1.7A1.714,1.714,0,0,1,1567.582-30.338Z" transform="translate(-1464.023 51.338)" fill="#039e8f"/><path d="M1349.359-28.557a1.7,1.7,0,0,1-1.713-1.745,1.709,1.709,0,0,1,1.725-1.679,1.749,1.749,0,0,1,1.7,1.722A1.739,1.739,0,0,1,1349.359-28.557Z" transform="translate(-1270.706 49.77)" fill="#039e8f"/><path d="M1388.116,361.608c.142,2.327-2.008,2.7-3.474,2.079-.831-.353-1.155-1.369-.977-2.755a1.855,1.855,0,0,1,1.51-1.633,3.2,3.2,0,0,1,1.519.022C1387.678,359.56,1388.121,360.275,1388.116,361.608Zm-.916.015a3.427,3.427,0,0,0-.077-1.012,1.2,1.2,0,0,0-1.248-.943,1.175,1.175,0,0,0-1.266.993,4.3,4.3,0,0,0,.027,1.858c.2.775.574.986,1.505.912a1.114,1.114,0,0,0,1.054-1.129A6.8,6.8,0,0,0,1387.2,361.623Z" transform="translate(-1302.578 -296.824)" fill="#a8a8aa"/><path d="M1003.915,361.29a1.945,1.945,0,0,1,.991-2.088,2.689,2.689,0,0,1,2.714.128,2.211,2.211,0,0,1,.814,1.85,2.258,2.258,0,0,1-1.093,2.266,2.749,2.749,0,0,1-2.957-.469A2.268,2.268,0,0,1,1003.915,361.29Zm.921-.014a3.581,3.581,0,0,0,.058.959,1.219,1.219,0,0,0,1.334.983,1.257,1.257,0,0,0,1.239-1.114,4.059,4.059,0,0,0-.019-1.632,1.219,1.219,0,0,0-1.3-1.093,1.234,1.234,0,0,0-1.3,1.159A6.046,6.046,0,0,0,1004.837,361.276Z" transform="translate(-966.164 -296.539)" fill="#a8a8aa"/><path d="M1404.8-74.6a1.57,1.57,0,0,1-1.566-1.55,1.592,1.592,0,0,1,1.586-1.541,1.585,1.585,0,0,1,1.533,1.588A1.568,1.568,0,0,1,1404.8-74.6Z" transform="translate(-1319.958 90.269)" fill="#059182"/><path d="M845.871,357.987c.209,0,.418.006.626,0,.231-.008.289.115.285.32s-.115.255-.291.258a3.158,3.158,0,0,0-1.07.1c-.31.113-.561.293-.559.637a.653.653,0,0,0,.563.629c.329.083.67.124,1,.22a1.276,1.276,0,0,1,.04,2.52,5.487,5.487,0,0,1-1.968.2c-.216,0-.3-.123-.3-.327s.091-.319.308-.321a10.528,10.528,0,0,0,1.081-.021c.453-.05.92-.211.94-.735.021-.543-.432-.689-.9-.747a4.219,4.219,0,0,1-.612-.121,1.352,1.352,0,0,1-1.093-1.4,1.453,1.453,0,0,1,1.271-1.2,5.062,5.062,0,0,1,.682,0Z" transform="translate(-824.409 -295.732)" fill="#a8a8aa"/><path d="M1512.928-77.885a1.544,1.544,0,0,1,1.554-1.55,1.561,1.561,0,0,1,1.53,1.582,1.585,1.585,0,0,1-1.534,1.527A1.56,1.56,0,0,1,1512.928-77.885Z" transform="translate(-1417.143 91.814)" fill="#059182"/><path d="M1242.7,359.1a5.084,5.084,0,0,1,.626,0c.21.025.56-.15.551.27-.008.373-.328.232-.525.24-.455.019-.911,0-1.366.009a1.064,1.064,0,0,0-1.177,1.159c-.015.455-.014.911,0,1.366a1.075,1.075,0,0,0,1.221,1.171c.493.007.987,0,1.48,0,.2,0,.392,0,.374.29-.016.258-.206.236-.374.231a12.1,12.1,0,0,1-2.155-.085,1.764,1.764,0,0,1-1.357-1.089,3.308,3.308,0,0,1-.131-2.066,1.981,1.981,0,0,1,2.093-1.5C1242.208,359.09,1242.455,359.1,1242.7,359.1Z" transform="translate(-1175.126 -296.711)" fill="#ababad"/><path d="M882.15,349.317c0-.625.011-1.251,0-1.876-.008-.317.146-.378.419-.375s.5.019.461.386a1.37,1.37,0,0,0,0,.171c.008.919-.1.813.817.828.241,0,.565-.111.554.342-.01.417-.311.3-.532.306-.838.02-.839.015-.837.86,0,.474-.01.948.011,1.421.037.876.321,1.18,1.177,1.281.179.021.362.025.365.258,0,.276-.211.285-.4.266-1.315-.128-1.96-.463-2.021-2.048C882.131,350.53,882.15,349.923,882.15,349.317Z" transform="translate(-858.28 -286.058)" fill="#ababad"/><path d="M1458.74-35.978a1.438,1.438,0,0,1,1.431-1.451,1.454,1.454,0,0,1,1.436,1.453,1.447,1.447,0,0,1-1.412,1.42A1.421,1.421,0,0,1,1458.74-35.978Z" transform="translate(-1369.134 54.598)" fill="#059182"/><path d="M1408.67,10.91a1.435,1.435,0,0,1-1.413-1.47,1.454,1.454,0,0,1,1.455-1.379,1.426,1.426,0,0,1,1.395,1.483A1.382,1.382,0,0,1,1408.67,10.91Z" transform="translate(-1323.52 14.294)" fill="#059182"/><path d="M1512.463,9.11a1.412,1.412,0,0,1-1.468-1.4,1.435,1.435,0,0,1,1.381-1.447,1.453,1.453,0,0,1,1.469,1.422A1.4,1.4,0,0,1,1512.463,9.11Z" transform="translate(-1415.431 15.89)" fill="#059182"/><path d="M1050.949,349.9a11.959,11.959,0,0,1,.1-2.3,1.836,1.836,0,0,1,2.2-1.221.224.224,0,0,1,.18.245.2.2,0,0,1-.215.209c-.152.007-.305,0-.455.015a1.7,1.7,0,0,0-.967,2.07c.091.131.234.1.363.107.247.005.494,0,.741.008.168,0,.223.115.224.267s-.033.265-.211.274c-.038,0-.076,0-.114.006-.331.043-.791-.167-.965.111s-.069.7-.075,1.054c-.008.456-.014.912,0,1.368.01.29-.091.4-.391.408-.323.005-.434-.107-.424-.43C1050.962,351.433,1050.949,350.768,1050.949,349.9Z" transform="translate(-1007.83 -285.392)" fill="#a8a8aa"/><path d="M1334.918,349.5c0-.682.012-1.365-.005-2.047-.008-.312.132-.381.41-.383s.437.081.4.387a.784.784,0,0,0,0,.114c.017.865.017.865.869.881.057,0,.114,0,.171,0,.195-.006.328.044.329.28s-.143.258-.331.274c-1.036.091-1.043.095-1.032,1.16a7.191,7.191,0,0,0,.076,1.528c.162.72.354.912,1.1.974.184.015.415-.036.39.266-.022.271-.237.255-.427.25a1.741,1.741,0,0,1-1.941-1.98c-.009-.568,0-1.137,0-1.706Z" transform="translate(-1259.425 -286.06)" fill="#a8a8aa"/><path d="M1461.206,57.764a1.288,1.288,0,0,1-1.3-1.282,1.307,1.307,0,1,1,2.614,0A1.3,1.3,0,0,1,1461.206,57.764Z" transform="translate(-1370.164 -27.428)" fill="#059182"/><path d="M1303.21,27.3a1.262,1.262,0,0,1-1.308-1.217,1.3,1.3,0,1,1,1.308,1.217Z" transform="translate(-1230.178 -0.478)" fill="#069f90"/><path d="M1618.814,24.211a1.288,1.288,0,0,1,1.321-1.275,1.274,1.274,0,0,1,1.247,1.342,1.285,1.285,0,1,1-2.568-.068Z" transform="translate(-1510.956 1.115)" fill="#069f90"/><path d="M913.356,362.269c0,.342-.013.684,0,1.025.015.3-.061.454-.405.45-.323,0-.441-.115-.422-.435.051-.869-.11-1.733,0-2.611a1.933,1.933,0,0,1,2.213-1.7c.173.03.283.094.292.281.009.2-.115.237-.287.262-1.081.155-1.314.408-1.386,1.534-.026.4,0,.8,0,1.2Z" transform="translate(-885.17 -296.604)" fill="#a8a8aa"/><path d="M824.948,361.4c0-.627.015-1.254-.006-1.88-.011-.334.124-.419.435-.421s.482.066.477.439q-.028,1.937,0,3.875c.005.361-.131.446-.466.451-.36.005-.456-.133-.445-.47C824.963,362.732,824.948,362.067,824.948,361.4Z" transform="translate(-807.601 -296.721)" fill="#ababad"/><path d="M1364.941,361.515c0-.665.016-1.33-.006-1.994-.011-.354.162-.4.453-.4s.462.04.458.4q-.024,1.994,0,3.988c0,.381-.219.366-.481.37s-.435-.038-.426-.367C1364.953,362.845,1364.941,362.18,1364.941,361.515Z" transform="translate(-1286.024 -296.737)" fill="#ababad"/><path d="M749.979,362.279c0,.625-.013,1.25.006,1.874.01.316-.09.442-.418.433s-.5-.073-.491-.443q.021-1.93,0-3.861c0-.39.239-.347.489-.357.268-.011.427.044.418.367C749.967,360.954,749.979,361.616,749.979,362.279Z" transform="translate(-740.386 -297.449)" fill="#ababad"/><path d="M1066.309,186.971a.765.765,0,1,1-.767-.807A.781.781,0,0,1,1066.309,186.971Z" transform="translate(-1020.094 -143.502)" fill="#08a091"/><path d="M1371.842,187.733a.781.781,0,1,1,.818-.77A.808.808,0,0,1,1371.842,187.733Z" transform="translate(-1291.487 -143.509)" fill="#08a091"/><path d="M1233.831,187.737a.8.8,0,0,1-.773-.811.779.779,0,1,1,.773.811Z" transform="translate(-1169.183 -143.513)" fill="#08a091"/><path d="M758.39,280.086a.781.781,0,1,1-.785.735A.782.782,0,0,1,758.39,280.086Z" transform="translate(-747.941 -226.714)" fill="#08a091"/><path d="M777.93,281.659a.78.78,0,1,1,.795-.738A.806.806,0,0,1,777.93,281.659Z" transform="translate(-765.27 -226.727)" fill="#08a091"/><path d="M1253.634,186.171a.781.781,0,1,1-.778.736A.778.778,0,0,1,1253.634,186.171Z" transform="translate(-1186.724 -143.508)" fill="#08a091"/><path d="M1085.873,186.976a.8.8,0,0,1-.827.756.781.781,0,1,1,.827-.756Z" transform="translate(-1037.403 -143.508)" fill="#08a091"/><path d="M750.09,347.4c-.018.276-.132.5-.418.518s-.443-.193-.46-.462a.428.428,0,0,1,.416-.5C749.942,346.928,750.05,347.136,750.09,347.4Z" transform="translate(-740.505 -285.959)" fill="#ababad"/><path d="M825.5,347.888c-.3-.007-.443-.152-.444-.421s.083-.49.4-.509.441.2.461.458A.413.413,0,0,1,825.5,347.888Z" transform="translate(-807.706 -285.961)" fill="#a8a8aa"/><path d="M1365.563,347.833c-.248-.057-.444-.166-.431-.444.012-.25.136-.433.42-.426a.4.4,0,0,1,.432.419A.476.476,0,0,1,1365.563,347.833Z" transform="translate(-1286.198 -285.966)" fill="#a9a9ab"/></svg>