<svg xmlns="http://www.w3.org/2000/svg" width="49" height="56" viewBox="0 0 49 56"><path d="M-14.066-13.934-24.5-5.25l-10.434-8.684C-36.947-13.847-49-12.239-49,1.75A5.251,5.251,0,0,0-43.75,7h38.5A5.251,5.251,0,0,0,0,1.75C0-12.239-12.042-13.847-14.066-13.934ZM-26.25,3.5h-17.5A1.755,1.755,0,0,1-45.5,1.75c0-10.894,9.2-12.02,9.45-12.064l9.8,8.159ZM-3.5,1.75A1.755,1.755,0,0,1-5.25,3.5h-17.5V-2.155l9.8-8.159C-12.7-10.27-3.5-9.144-3.5,1.75ZM-47.556-38.062l.744.219v4.112a2.594,2.594,0,0,0-1.312,2.22,2.586,2.586,0,0,0,1.214,2.155l-1.706,6.825c-.186.755.23,1.531.831,1.531h4.572c.6,0,1.017-.777.831-1.531l-1.706-6.814A2.586,2.586,0,0,0-42.875-31.5a2.594,2.594,0,0,0-1.312-2.22v-3.336l5.108,1.509a15.276,15.276,0,0,0-1.17,5.8A15.754,15.754,0,0,0-24.5-14,15.754,15.754,0,0,0-8.75-29.75a15.276,15.276,0,0,0-1.17-5.8l8.477-2.516c1.925-.569,1.925-3.806,0-4.375l-21.208-6.289A6.307,6.307,0,0,0-24.5-49a6.307,6.307,0,0,0-1.848.273l-21.208,6.289C-49.481-41.869-49.481-38.631-47.556-38.062ZM-24.5-17.5A12.258,12.258,0,0,1-36.75-29.75a11.884,11.884,0,0,1,1.05-4.791l9.352,2.778a6.433,6.433,0,0,0,3.7,0l9.352-2.778a11.925,11.925,0,0,1,1.05,4.791A12.258,12.258,0,0,1-24.5-17.5Zm-.853-27.88a3.039,3.039,0,0,1,1.706,0l17.281,5.13-17.281,5.13a3.039,3.039,0,0,1-1.706,0l-17.281-5.13Z" transform="translate(49 49)" fill="#677071"/></svg>