<svg xmlns="http://www.w3.org/2000/svg" width="18.016" height="18.018" viewBox="0 0 18.016 18.018"><g transform="translate(1667.014 -253.739)"><path d="M-1579.239,335.067a4.554,4.554,0,0,0-3.227-1.384,4.515,4.515,0,0,0-3.227,1.308,4.537,4.537,0,0,0-1.374,3.222,4.577,4.577,0,0,0,4.536,4.6h.042a4.57,4.57,0,0,0,4.549-4.52A4.508,4.508,0,0,0-1579.239,335.067Zm-3.271,6.622h0a3.41,3.41,0,0,1-2.432-1.013,3.43,3.43,0,0,1-1-2.452,3.448,3.448,0,0,1,3.445-3.422h.009a3.445,3.445,0,0,1,3.432,3.444A3.453,3.453,0,0,1-1582.51,341.69Z" transform="translate(-75.501 -75.499)" fill="#fff"/><path d="M-1515.126,256.357a.286.286,0,0,0,.07.222.245.245,0,0,0,.175.06h.032a4.993,4.993,0,0,1,.57,0,.272.272,0,0,0,.211-.06.282.282,0,0,0,.068-.22c-.005-.28,0-.564,0-.84q0-.162,0-.325t0-.328c0-.281,0-.572,0-.858a.274.274,0,0,0-.066-.208.259.259,0,0,0-.2-.059c-.193.009-.392.009-.594,0a.263.263,0,0,0-.2.059.271.271,0,0,0-.067.205C-1515.121,254.762-1515.121,255.554-1515.126,256.357Z" transform="translate(-143.442)" fill="#fff"/><path d="M-1664.175,406.679a.246.246,0,0,0,.058-.185c-.006-.223-.008-.409,0-.6a.279.279,0,0,0-.062-.213.28.28,0,0,0-.215-.068c-.283.006-.572,0-.852,0h-.655c-.277,0-.563,0-.844,0a.27.27,0,0,0-.212.065.26.26,0,0,0-.058.2c.009.193.007.386,0,.617a.245.245,0,0,0,.057.186.242.242,0,0,0,.179.061h0c.737,0,1.528,0,2.417,0A.246.246,0,0,0-1664.175,406.679Z" transform="translate(0 -143.433)" fill="#fff"/><path d="M-1392.252,405.867a.228.228,0,0,0-.055-.168.246.246,0,0,0-.181-.059c-.862,0-1.652,0-2.417,0a.245.245,0,0,0-.186.063.241.241,0,0,0-.058.183c.006.194.01.384,0,.574a.3.3,0,0,0,.064.235.286.286,0,0,0,.212.072h.021c.27-.008.545-.006.811,0,.11,0,.22,0,.331,0h.316c.293,0,.6,0,.892,0a.257.257,0,0,0,.195-.061.227.227,0,0,0,.057-.175C-1392.258,406.333-1392.258,406.122-1392.252,405.867Z" transform="translate(-256.747 -143.455)" fill="#fff"/><path d="M-1514.01,527.379q0-.163,0-.325c0-.111,0-.221,0-.331,0-.273,0-.556,0-.833a.3.3,0,0,0-.071-.233.276.276,0,0,0-.217-.06,4.243,4.243,0,0,1-.548,0,.282.282,0,0,0-.218.06.3.3,0,0,0-.073.229c.006.756.006,1.541,0,2.332a.285.285,0,0,0,.069.22.246.246,0,0,0,.175.059h.033a5.111,5.111,0,0,1,.571,0,.272.272,0,0,0,.213-.06.279.279,0,0,0,.067-.216C-1514.012,527.939-1514.01,527.655-1514.01,527.379Z" transform="translate(-143.436 -256.739)" fill="#fff"/><path d="M-1623.458,298.465h0a.216.216,0,0,0,.152.078h0a.194.194,0,0,0,.14-.068c.11-.114.225-.228.336-.339l.177-.177a.329.329,0,0,0,.042-.054l.029-.042.062-.088-.086-.065-.042-.03a.565.565,0,0,1-.071-.056l-.457-.457c-.26-.261-.529-.531-.8-.793a1.849,1.849,0,0,1-.144-.168c-.136-.172-.277-.349-.469-.323a.8.8,0,0,0-.441.342,2.162,2.162,0,0,1-.159.179.231.231,0,0,0-.088.163.225.225,0,0,0,.079.16C-1624.608,297.31-1624.015,297.905-1623.458,298.465Z" transform="translate(-39.419 -39.8)" fill="#fff"/><path d="M-1432.765,297.689c.149.136.295.282.435.434a.25.25,0,0,0,.174.095h0a.258.258,0,0,0,.18-.094c.413-.418.836-.84,1.245-1.248l.446-.446c.021-.02.04-.041.061-.065l.1-.11-.1-.108c-.021-.023-.04-.044-.06-.064l-.139-.137c-.1-.1-.2-.2-.3-.3a.249.249,0,0,0-.173-.1.257.257,0,0,0-.183.093c-.557.563-1.126,1.132-1.692,1.692a.258.258,0,0,0-.1.185A.245.245,0,0,0-1432.765,297.689Z" transform="translate(-221.135 -39.483)" fill="#fff"/><path d="M-1622.678,488.372c-.165-.158-.322-.315-.467-.468a.223.223,0,0,0-.158-.081.245.245,0,0,0-.167.085c-.557.561-1.136,1.141-1.722,1.722a.231.231,0,0,0-.082.165.228.228,0,0,0,.083.159c.11.1.219.213.324.319l.148.148c.017.017.035.033.056.051l.1.092.1-.094c.021-.018.039-.035.057-.052l.447-.447c.418-.418.85-.851,1.277-1.274a.234.234,0,0,0,.083-.165A.228.228,0,0,0-1622.678,488.372Z" transform="translate(-39.419 -221.069)" fill="#fff"/><path d="M-1431.526,487.339l-.445-.445h0c-.02-.02-.041-.04-.064-.061l-.106-.1-.076.066-.034.029c-.025.021-.048.041-.069.062-.049.048-.1.1-.144.145-.1.1-.2.2-.3.292a.248.248,0,0,0-.094.173.258.258,0,0,0,.094.184c.551.545,1.121,1.114,1.693,1.692a.256.256,0,0,0,.179.094h0a.249.249,0,0,0,.173-.1,6.131,6.131,0,0,1,.434-.434.247.247,0,0,0,.095-.172.257.257,0,0,0-.094-.184C-1430.695,488.171-1431.117,487.748-1431.526,487.339Z" transform="translate(-221.139 -220.039)" fill="#fff"/></g></svg>