<svg xmlns="http://www.w3.org/2000/svg" width="13.125" height="15" viewBox="0 0 13.125 15"><path d="M-3.75-2.812h-.138a3.25,3.25,0,0,0-1.04.2,6.093,6.093,0,0,1-1.635.27A6.093,6.093,0,0,1-8.2-2.613a3.239,3.239,0,0,0-1.038-.2h-.139A3.752,3.752,0,0,0-13.125.938a.938.938,0,0,0,.938.938H-.937A.938.938,0,0,0,0,.938,3.751,3.751,0,0,0-3.75-2.812ZM-11.672.469a2.449,2.449,0,0,1,2.3-1.875h.139a1.894,1.894,0,0,1,.586.124,7.778,7.778,0,0,0,2.086.344,7.778,7.778,0,0,0,2.086-.344,1.916,1.916,0,0,1,.589-.125h.139A2.449,2.449,0,0,1-1.453.468Zm.168-7.031a.685.685,0,0,0,.684-.683V-7.5a4.262,4.262,0,0,1,4.258-4.258A4.262,4.262,0,0,1-2.3-7.5v.371A2.016,2.016,0,0,1-4.316-5.117H-5a1.185,1.185,0,0,0-1.109-.9H-7.03A1.133,1.133,0,0,0-8.163-4.883,1.133,1.133,0,0,0-7.03-3.75h2.714A3.385,3.385,0,0,0-.937-7.129V-7.5a5.631,5.631,0,0,0-5.625-5.625A5.631,5.631,0,0,0-12.187-7.5v.254A.685.685,0,0,0-11.5-6.562Zm4.942-2.812A1.879,1.879,0,0,1-4.687-7.5a2.186,2.186,0,0,1-.257.93,2.081,2.081,0,0,1,.536.516h.092a1.057,1.057,0,0,0,.877-.49A3.246,3.246,0,0,0-3.281-7.5a3.282,3.282,0,0,0-3.281-3.281A3.282,3.282,0,0,0-9.844-7.5a3.252,3.252,0,0,0,.82,2.149,2.4,2.4,0,0,1,.836-1.232,2.188,2.188,0,0,1-.25-.917A1.879,1.879,0,0,1-6.562-9.375Z" transform="translate(13.125 13.125)" fill="#677071"/></svg>