<svg xmlns="http://www.w3.org/2000/svg" width="21.875" height="25" viewBox="0 0 21.875 25"><path d="M-6.25-4.687h-.23a5.414,5.414,0,0,0-1.733.332,10.157,10.157,0,0,1-2.726.45,10.157,10.157,0,0,1-2.726-.45,5.392,5.392,0,0,0-1.729-.331h-.231a6.253,6.253,0,0,0-6.25,6.249,1.563,1.563,0,0,0,1.563,1.563h18.75A1.563,1.563,0,0,0,0,1.563,6.252,6.252,0,0,0-6.25-4.687Zm-14.062,6.25a4.7,4.7,0,0,1,4.688-4.687h.231a3.885,3.885,0,0,1,1.229.249,12.028,12.028,0,0,0,3.227.532,12.028,12.028,0,0,0,3.227-.532A3.9,3.9,0,0,1-6.48-3.126h.23A4.7,4.7,0,0,1-1.562,1.562Zm.781-12.5a.782.782,0,0,0,.781-.781V-12.5a7.822,7.822,0,0,1,7.813-7.812A7.822,7.822,0,0,1-3.125-12.5v.781A3.914,3.914,0,0,1-7.031-7.812H-8.594a1.563,1.563,0,0,0-1.562-1.562h-1.562a1.563,1.563,0,0,0-1.562,1.563A1.563,1.563,0,0,0-11.719-6.25h4.688a5.48,5.48,0,0,0,5.469-5.469V-12.5a9.385,9.385,0,0,0-9.375-9.375A9.385,9.385,0,0,0-20.312-12.5v.781A.782.782,0,0,0-19.531-10.937Zm8.594-6.25h.021A4.668,4.668,0,0,1-6.25-12.521,5.392,5.392,0,0,1-7.459-9.387s.006.007.009.012h.419a2.6,2.6,0,0,0,1.98-1.1A6.242,6.242,0,0,0-4.687-12.5a6.252,6.252,0,0,0-6.25-6.25,6.252,6.252,0,0,0-6.25,6.25,6.212,6.212,0,0,0,2.361,4.857c0-.057-.017-.111-.017-.169a3.645,3.645,0,0,1,.436-1.562,5.391,5.391,0,0,1-1.219-3.146,4.669,4.669,0,0,1,4.667-4.667Z" transform="translate(21.875 21.875)" fill="#0f5203"/></svg>