<svg xmlns="http://www.w3.org/2000/svg" width="70" height="56" viewBox="0 0 70 56"><path d="M-3.5-49H-49a3.5,3.5,0,0,0-3.5,3.5V-35A10.5,10.5,0,0,0-63-24.5,10.5,10.5,0,0,0-52.5-14,10.5,10.5,0,0,0-42-24.5a10.469,10.469,0,0,0-7-9.857V-45.5H-3.5V-7h-7v-7A3.5,3.5,0,0,0-14-17.5H-28A3.5,3.5,0,0,0-31.5-14v7h-5.1c-.065-.1-.113-.214-.18-.315a10.038,10.038,0,0,0-8.411-4.278c-3.04,0-3.8,1.093-7.305,1.093s-4.26-1.092-7.305-1.092a10.035,10.035,0,0,0-8.411,4.278A10.445,10.445,0,0,0-70-1.458V2.625A4.375,4.375,0,0,0-65.625,7h26.25A4.375,4.375,0,0,0-35,2.625V-1.458A10.48,10.48,0,0,0-35.223-3.5H-3.5A3.5,3.5,0,0,0,0-7V-45.5A3.5,3.5,0,0,0-3.5-49Zm-42,24.5a7.008,7.008,0,0,1-7,7,7.008,7.008,0,0,1-7-7,7.008,7.008,0,0,1,7-7A7.008,7.008,0,0,1-45.5-24.5Zm7,27.125a.876.876,0,0,1-.875.875h-26.25a.876.876,0,0,1-.875-.875V-1.458a6.958,6.958,0,0,1,1.187-3.9,6.549,6.549,0,0,1,5.508-2.732C-57.421-8.092-56.525-7-52.5-7s4.923-1.092,7.305-1.092a6.55,6.55,0,0,1,5.508,2.732,6.958,6.958,0,0,1,1.187,3.9ZM-14-7H-28v-7h14Z" transform="translate(70 49)" fill="#677071"/></svg>