<svg xmlns="http://www.w3.org/2000/svg" width="15.756" height="12.796" viewBox="0 0 15.756 12.796"><path d="M14.136,51.271c.01.14.01.28.01.42a9.125,9.125,0,0,1-9.187,9.187A9.125,9.125,0,0,1,0,59.429a6.68,6.68,0,0,0,.78.04,6.467,6.467,0,0,0,4.009-1.38A3.235,3.235,0,0,1,1.769,55.85a4.071,4.071,0,0,0,.61.05,3.415,3.415,0,0,0,.85-.11A3.23,3.23,0,0,1,.64,52.621v-.04a3.252,3.252,0,0,0,1.46.41,3.234,3.234,0,0,1-1-4.319,9.179,9.179,0,0,0,6.658,3.379,3.645,3.645,0,0,1-.08-.74A3.232,3.232,0,0,1,13.266,49.1a6.357,6.357,0,0,0,2.049-.78A3.22,3.22,0,0,1,13.9,50.1a6.474,6.474,0,0,0,1.859-.5,6.942,6.942,0,0,1-1.62,1.67Z" transform="translate(0 -48.082)" fill="#fff"/></svg>